STARTFONT 2.1
COMMENT
COMMENT Converted from OpenType font "GenBasB.ttf" by "otf2bdf 3.0".
COMMENT
FONT -FreeType-Gentium Basic-Bold-R-Normal--27-270-72-72-P-135-ISO10646-1
SIZE 27 72 72
FONTBOUNDINGBOX 42 39 -14 -10
STARTPROPERTIES 19
FOUNDRY "FreeType"
FAMILY_NAME "Gentium Basic"
WEIGHT_NAME "Bold"
SLANT "R"
SETWIDTH_NAME "Normal"
ADD_STYLE_NAME ""
PIXEL_SIZE 27
POINT_SIZE 270
RESOLUTION_X 72
RESOLUTION_Y 72
SPACING "P"
AVERAGE_WIDTH 135
CHARSET_REGISTRY "ISO10646"
CHARSET_ENCODING "1"
FONT_ASCENT 23
FONT_DESCENT 7
COPYRIGHT "Copyright (c) SIL International, 2003-2008."
_OTF_FONTFILE "GenBasB.ttf"
_OTF_PSNAME "GentiumBasic-Bold"
ENDPROPERTIES
CHARS 704
STARTCHAR 0020
ENCODING 32
SWIDTH 259 0
DWIDTH 7 0
BBX 0 0 0 0
BITMAP
ENDCHAR
STARTCHAR 0021
ENCODING 33
SWIDTH 296 0
DWIDTH 8 0
BBX 4 21 2 -1
BITMAP
30
F0
F0
F0
F0
70
70
60
60
60
60
60
60
60
40
00
00
70
F0
F0
E0
ENDCHAR
STARTCHAR 0022
ENCODING 34
SWIDTH 481 0
DWIDTH 13 0
BBX 9 9 2 11
BITMAP
7180
E780
E780
E780
E300
E300
6300
6300
6300
ENDCHAR
STARTCHAR 0023
ENCODING 35
SWIDTH 518 0
DWIDTH 14 0
BBX 13 15 1 2
BITMAP
0220
0660
0660
0660
0C60
3FF8
4CC0
1880
1980
FFE0
3300
3300
3300
2300
6600
ENDCHAR
STARTCHAR 0024
ENCODING 36
SWIDTH 481 0
DWIDTH 13 0
BBX 11 20 1 -2
BITMAP
0600
0600
1F80
7FE0
E6E0
C660
C600
F600
7E00
3F80
07C0
06E0
0660
C660
C660
F6C0
FFC0
1F00
0600
0600
ENDCHAR
STARTCHAR 0025
ENCODING 37
SWIDTH 740 0
DWIDTH 20 0
BBX 18 17 1 0
BITMAP
000100
3C0600
660E00
C30C00
C31800
C33000
C37000
C36000
66C000
3D8F00
039080
0330C0
0630C0
0C30C0
1830C0
381980
300F00
ENDCHAR
STARTCHAR 0026
ENCODING 38
SWIDTH 666 0
DWIDTH 18 0
BBX 17 19 1 0
BITMAP
078000
19E000
10E000
30E000
30E000
31C000
3F8000
3F0000
1E0000
3E3F80
7F1D00
7F8C00
EF8C00
E7CC00
E3F800
E1F800
60FC00
70FF00
1F0E80
ENDCHAR
STARTCHAR 0027
ENCODING 39
SWIDTH 259 0
DWIDTH 7 0
BBX 4 9 2 11
BITMAP
70
E0
E0
E0
E0
E0
60
60
60
ENDCHAR
STARTCHAR 0028
ENCODING 40
SWIDTH 333 0
DWIDTH 9 0
BBX 7 25 2 -4
BITMAP
04
0E
1C
38
30
70
70
70
E0
E0
E0
E0
E0
E0
E0
E0
E0
60
70
70
30
38
1C
0C
06
ENDCHAR
STARTCHAR 0029
ENCODING 41
SWIDTH 333 0
DWIDTH 9 0
BBX 7 25 0 -4
BITMAP
40
E0
70
38
18
1C
1C
1C
0E
0E
0E
0E
0E
0E
0E
0E
0E
1C
1C
1C
38
38
70
60
C0
ENDCHAR
STARTCHAR 002A
ENCODING 42
SWIDTH 444 0
DWIDTH 12 0
BBX 10 12 1 9
BITMAP
0C00
0C00
CC80
EDC0
FFC0
3F00
3F00
FFC0
EDC0
4C80
0C00
0C00
ENDCHAR
STARTCHAR 002B
ENCODING 43
SWIDTH 407 0
DWIDTH 11 0
BBX 10 10 1 2
BITMAP
0C00
0C00
0C00
0C00
FFC0
0C00
0C00
0C00
0C00
0C00
ENDCHAR
STARTCHAR 002C
ENCODING 44
SWIDTH 259 0
DWIDTH 7 0
BBX 5 8 1 -5
BITMAP
30
F8
78
38
30
30
60
C0
ENDCHAR
STARTCHAR 002D
ENCODING 45
SWIDTH 370 0
DWIDTH 10 0
BBX 8 1 1 6
BITMAP
FF
ENDCHAR
STARTCHAR 002E
ENCODING 46
SWIDTH 259 0
DWIDTH 7 0
BBX 4 4 2 -1
BITMAP
70
F0
F0
E0
ENDCHAR
STARTCHAR 002F
ENCODING 47
SWIDTH 481 0
DWIDTH 13 0
BBX 12 25 0 -4
BITMAP
0030
0070
0070
0060
00E0
00C0
01C0
01C0
0180
0380
0380
0300
0700
0600
0E00
0E00
0C00
1C00
1800
3800
3800
3000
7000
6000
E000
ENDCHAR
STARTCHAR 0030
ENCODING 48
SWIDTH 518 0
DWIDTH 14 0
BBX 12 16 1 0
BITMAP
0F00
31C0
30E0
60E0
6060
E070
E070
E070
E070
E070
E070
6060
7060
70C0
38C0
0F00
ENDCHAR
STARTCHAR 0031
ENCODING 49
SWIDTH 518 0
DWIDTH 14 0
BBX 10 16 2 0
BITMAP
0600
3E00
FE00
0E00
0E00
0E00
0E00
0E00
0E00
0E00
0E00
0E00
0E00
0E00
1F00
FFC0
ENDCHAR
STARTCHAR 0032
ENCODING 50
SWIDTH 518 0
DWIDTH 14 0
BBX 11 16 1 0
BITMAP
0F80
39C0
70E0
70E0
80E0
00C0
01C0
0380
0300
0700
0E00
1C20
3820
3020
7FE0
FFE0
ENDCHAR
STARTCHAR 0033
ENCODING 51
SWIDTH 518 0
DWIDTH 14 0
BBX 11 16 1 0
BITMAP
1F00
7380
71C0
E1C0
01C0
0380
0780
0FC0
03C0
01E0
00E0
00E0
00E0
80C0
C1C0
3F00
ENDCHAR
STARTCHAR 0034
ENCODING 52
SWIDTH 518 0
DWIDTH 14 0
BBX 11 16 2 0
BITMAP
0080
0380
0780
0780
0D80
0D80
1980
3180
3180
6180
FFE0
0180
0180
0180
03C0
0FE0
ENDCHAR
STARTCHAR 0035
ENCODING 53
SWIDTH 518 0
DWIDTH 14 0
BBX 11 16 1 0
BITMAP
3FE0
3FC0
2000
2000
6000
6000
7F00
63C0
01C0
00E0
00E0
00E0
00E0
01C0
C1C0
3F00
ENDCHAR
STARTCHAR 0036
ENCODING 54
SWIDTH 518 0
DWIDTH 14 0
BBX 12 16 1 0
BITMAP
01C0
0700
1C00
3800
7000
6000
EF80
F0E0
E0E0
E070
E070
E070
7070
7060
38C0
0F80
ENDCHAR
STARTCHAR 0037
ENCODING 55
SWIDTH 518 0
DWIDTH 14 0
BBX 12 16 1 0
BITMAP
7FF0
7FE0
C060
80C0
00C0
01C0
0180
0180
0300
0300
0700
0600
0E00
1C00
1C00
3800
ENDCHAR
STARTCHAR 0038
ENCODING 56
SWIDTH 481 0
DWIDTH 13 0
BBX 11 16 1 0
BITMAP
0F80
39C0
70E0
70E0
78E0
7DC0
3F80
1F80
3FC0
73E0
E1E0
E0E0
E0E0
E0C0
7180
1F00
ENDCHAR
STARTCHAR 0039
ENCODING 57
SWIDTH 518 0
DWIDTH 14 0
BBX 12 17 1 -1
BITMAP
0F80
31C0
60E0
E0E0
E070
E070
E070
F070
70F0
1F70
0060
00E0
00E0
01C0
0380
1E00
3800
ENDCHAR
STARTCHAR 003A
ENCODING 58
SWIDTH 259 0
DWIDTH 7 0
BBX 4 13 2 -1
BITMAP
70
F0
F0
E0
00
00
00
00
00
70
F0
F0
E0
ENDCHAR
STARTCHAR 003B
ENCODING 59
SWIDTH 259 0
DWIDTH 7 0
BBX 5 17 1 -5
BITMAP
38
78
78
30
00
00
00
00
00
30
F8
78
38
30
30
60
C0
ENDCHAR
STARTCHAR 003C
ENCODING 60
SWIDTH 444 0
DWIDTH 12 0
BBX 11 9 1 3
BITMAP
0060
03C0
1F80
FC00
F000
F800
3F00
07C0
00E0
ENDCHAR
STARTCHAR 003D
ENCODING 61
SWIDTH 444 0
DWIDTH 12 0
BBX 11 5 1 5
BITMAP
FFE0
0000
0000
0000
FFE0
ENDCHAR
STARTCHAR 003E
ENCODING 62
SWIDTH 444 0
DWIDTH 12 0
BBX 11 9 1 3
BITMAP
C000
F800
3F00
07C0
01E0
0FC0
7E00
F000
C000
ENDCHAR
STARTCHAR 003F
ENCODING 63
SWIDTH 444 0
DWIDTH 12 0
BBX 9 20 1 -1
BITMAP
3F00
7780
E380
E380
C380
0380
0300
0700
0600
0E00
0C00
0C00
0C00
0C00
0000
0000
1C00
3C00
3C00
3800
ENDCHAR
STARTCHAR 0040
ENCODING 64
SWIDTH 851 0
DWIDTH 23 0
BBX 20 23 2 -5
BITMAP
00FC00
03FF00
0E0780
1801C0
3000E0
200060
60F270
618E30
C30E30
C30E30
C70E30
C70E30
C70E30
C70E60
C79E60
E3FFC0
63EF80
71C700
780000
3C0040
1F03C0
0FFF00
03FC00
ENDCHAR
STARTCHAR 0041
ENCODING 65
SWIDTH 629 0
DWIDTH 17 0
BBX 17 17 0 0
BITMAP
00C000
01C000
03C000
03E000
02E000
06F000
067000
067000
0C7800
0C3800
0FF800
181C00
181C00
101C00
300E00
300E00
FC3F80
ENDCHAR
STARTCHAR 0042
ENCODING 66
SWIDTH 592 0
DWIDTH 16 0
BBX 13 17 1 0
BITMAP
7FC0
F8E0
3870
3870
3870
3870
38E0
3FC0
38F0
3870
3838
3838
3838
3838
3830
3870
FFC0
ENDCHAR
STARTCHAR 0043
ENCODING 67
SWIDTH 555 0
DWIDTH 15 0
BBX 13 17 1 0
BITMAP
07F0
1878
3030
7000
6000
6000
E000
E000
E000
E000
E000
F000
7000
7808
3C38
1FE0
0F80
ENDCHAR
STARTCHAR 0044
ENCODING 68
SWIDTH 629 0
DWIDTH 17 0
BBX 16 17 0 0
BITMAP
7FE0
F878
383C
381E
381E
380F
380F
380F
380F
380F
380F
380F
381E
381E
383C
3878
FFE0
ENDCHAR
STARTCHAR 0045
ENCODING 69
SWIDTH 518 0
DWIDTH 14 0
BBX 13 17 1 0
BITMAP
FFF0
7830
7830
7820
7820
7800
7800
7800
7FC0
7880
7800
7800
7800
7810
7818
7830
FFF0
ENDCHAR
STARTCHAR 0046
ENCODING 70
SWIDTH 518 0
DWIDTH 14 0
BBX 12 17 1 0
BITMAP
FFF0
7830
7830
7830
7820
7800
7800
7800
7FC0
7880
7800
7800
7800
7800
7800
7800
FE00
ENDCHAR
STARTCHAR 0047
ENCODING 71
SWIDTH 592 0
DWIDTH 16 0
BBX 14 17 1 0
BITMAP
03F0
0C78
3030
3000
7000
6000
E000
E000
E000
E0FC
E038
E038
7038
7038
3C38
1FF0
07C0
ENDCHAR
STARTCHAR 0048
ENCODING 72
SWIDTH 666 0
DWIDTH 18 0
BBX 17 17 0 0
BITMAP
FE3F80
3C1E00
380E00
380E00
380E00
380E00
380E00
380E00
3FFE00
380E00
380E00
380E00
380E00
380E00
380E00
380E00
FE3F80
ENDCHAR
STARTCHAR 0049
ENCODING 73
SWIDTH 333 0
DWIDTH 9 0
BBX 7 17 1 0
BITMAP
FE
38
38
38
38
38
38
38
38
38
38
38
38
38
38
38
FE
ENDCHAR
STARTCHAR 004A
ENCODING 74
SWIDTH 333 0
DWIDTH 9 0
BBX 12 22 -4 -5
BITMAP
07F0
01C0
01C0
01C0
01C0
01C0
01C0
01C0
01C0
01C0
01C0
01C0
01C0
01C0
01C0
01C0
01C0
0180
0180
3300
7E00
FC00
ENDCHAR
STARTCHAR 004B
ENCODING 75
SWIDTH 629 0
DWIDTH 17 0
BBX 16 17 1 0
BITMAP
FE7E
3838
3830
3870
38E0
39C0
3B80
3F00
3F00
3B80
39C0
39E0
38F0
3878
383C
381F
FE1E
ENDCHAR
STARTCHAR 004C
ENCODING 76
SWIDTH 518 0
DWIDTH 14 0
BBX 13 17 1 0
BITMAP
FE00
3800
3800
3800
3800
3800
3800
3800
3800
3800
3800
3800
3800
3808
3818
3818
FFF0
ENDCHAR
STARTCHAR 004D
ENCODING 77
SWIDTH 851 0
DWIDTH 23 0
BBX 21 17 1 0
BITMAP
F801F8
3801E0
3C01E0
3C03E0
3E03E0
3E06E0
3F06E0
370CE0
278CE0
239CE0
2398E0
21D8E0
21F0E0
61F0E0
60E0E0
70E0E0
F843F8
ENDCHAR
STARTCHAR 004E
ENCODING 78
SWIDTH 666 0
DWIDTH 18 0
BBX 18 17 0 0
BITMAP
F80FC0
7C0300
3C0300
3E0300
3F0300
378300
33C300
33C300
31E300
30F300
307B00
307B00
303F00
301F00
300F00
300700
FC0300
ENDCHAR
STARTCHAR 004F
ENCODING 79
SWIDTH 629 0
DWIDTH 17 0
BBX 15 17 1 0
BITMAP
07C0
1870
3038
301C
601C
600E
E00E
E00E
E00E
E00E
E00E
E00C
701C
7018
3818
1C20
07C0
ENDCHAR
STARTCHAR 0050
ENCODING 80
SWIDTH 555 0
DWIDTH 15 0
BBX 14 17 0 0
BITMAP
7FE0
F878
3838
381C
381C
381C
381C
3838
3C70
3BE0
3800
3800
3800
3800
3800
3800
FE00
ENDCHAR
STARTCHAR 0051
ENCODING 81
SWIDTH 629 0
DWIDTH 17 0
BBX 18 22 1 -5
BITMAP
07C000
187000
303800
301C00
601C00
600E00
E00E00
E00E00
E00E00
E00E00
E00E00
E00E00
701C00
701C00
381800
1C3000
07C000
007000
003C40
001FC0
000F80
000300
ENDCHAR
STARTCHAR 0052
ENCODING 82
SWIDTH 592 0
DWIDTH 16 0
BBX 16 17 0 0
BITMAP
3FC0
F870
3838
3838
3838
3838
3870
3FF0
3FC0
39C0
38E0
38E0
3870
3878
383C
383F
FE1E
ENDCHAR
STARTCHAR 0053
ENCODING 83
SWIDTH 518 0
DWIDTH 14 0
BBX 12 17 1 0
BITMAP
0FF0
30F0
4020
C000
E000
F800
7E00
3F80
1FC0
07E0
00F0
0070
0030
C030
C020
F040
FF80
ENDCHAR
STARTCHAR 0054
ENCODING 84
SWIDTH 592 0
DWIDTH 16 0
BBX 15 17 0 0
BITMAP
FFFE
C386
C386
8386
8384
0380
0380
0380
0380
0380
0380
0380
0380
0380
0380
07C0
0FE0
ENDCHAR
STARTCHAR 0055
ENCODING 85
SWIDTH 666 0
DWIDTH 18 0
BBX 17 17 0 0
BITMAP
FE1F80
380600
380600
380600
380600
380600
380600
380600
380600
380600
380600
380600
380600
380400
1C0C00
0E1800
03E000
ENDCHAR
STARTCHAR 0056
ENCODING 86
SWIDTH 666 0
DWIDTH 18 0
BBX 18 17 0 0
BITMAP
FE0FC0
380700
3C0600
1C0600
1C0600
1E0C00
0E0C00
0F1800
071800
071800
07B000
03B000
03B000
01E000
01E000
01E000
008000
ENDCHAR
STARTCHAR 0057
ENCODING 87
SWIDTH 851 0
DWIDTH 23 0
BBX 23 17 0 0
BITMAP
FE187E
381818
383818
383C10
1C3C30
1C6E30
1C6E30
1C6E30
0EC760
0EC760
0E8760
0F83E0
0F83E0
0701C0
0701C0
0701C0
060080
ENDCHAR
STARTCHAR 0058
ENCODING 88
SWIDTH 629 0
DWIDTH 17 0
BBX 17 17 0 0
BITMAP
FF3F00
3C0C00
1C1800
1E1800
0F3000
077000
07E000
03C000
01C000
03E000
03F000
067000
0C7800
0C3C00
181C00
381E00
FC3F80
ENDCHAR
STARTCHAR 0059
ENCODING 89
SWIDTH 629 0
DWIDTH 17 0
BBX 16 17 0 0
BITMAP
F81F
3C0E
1C0C
0E18
0F18
0730
0730
03E0
03E0
01C0
01C0
01C0
01C0
01C0
01C0
01C0
07F0
ENDCHAR
STARTCHAR 005A
ENCODING 90
SWIDTH 555 0
DWIDTH 15 0
BBX 13 17 1 0
BITMAP
7FF8
60F0
40F0
C1E0
01C0
03C0
0780
0780
0F00
0F00
1E00
3C00
3C00
7818
7818
F018
FFF8
ENDCHAR
STARTCHAR 005B
ENCODING 91
SWIDTH 333 0
DWIDTH 9 0
BBX 6 25 3 -4
BITMAP
FC
C0
C0
C0
C0
C0
C0
C0
C0
C0
C0
C0
C0
C0
C0
C0
C0
C0
C0
C0
C0
C0
C0
C0
FC
ENDCHAR
STARTCHAR 005C
ENCODING 92
SWIDTH 481 0
DWIDTH 13 0
BBX 11 25 1 -4
BITMAP
C000
C000
E000
6000
7000
7000
3000
3800
1800
1800
1C00
0C00
0E00
0600
0600
0700
0300
0300
0380
0180
01C0
00C0
00C0
00E0
0060
ENDCHAR
STARTCHAR 005D
ENCODING 93
SWIDTH 296 0
DWIDTH 8 0
BBX 6 25 0 -4
BITMAP
FC
0C
0C
0C
0C
0C
0C
0C
0C
0C
0C
0C
0C
0C
0C
0C
0C
0C
0C
0C
0C
0C
0C
0C
FC
ENDCHAR
STARTCHAR 005E
ENCODING 94
SWIDTH 481 0
DWIDTH 13 0
BBX 11 13 1 7
BITMAP
0600
0E00
0E00
0F00
1B00
1300
1180
3180
21C0
60C0
60C0
4060
C040
ENDCHAR
STARTCHAR 005F
ENCODING 95
SWIDTH 481 0
DWIDTH 13 0
BBX 11 1 1 -3
BITMAP
FFE0
ENDCHAR
STARTCHAR 0060
ENCODING 96
SWIDTH 333 0
DWIDTH 9 0
BBX 6 6 0 14
BITMAP
E0
F0
70
38
18
0C
ENDCHAR
STARTCHAR 0061
ENCODING 97
SWIDTH 481 0
DWIDTH 13 0
BBX 12 12 1 0
BITMAP
1F80
71C0
F1C0
81C0
03C0
3FC0
71C0
E1C0
E1C0
E3F0
FDE0
7980
ENDCHAR
STARTCHAR 0062
ENCODING 98
SWIDTH 555 0
DWIDTH 15 0
BBX 14 20 0 0
BITMAP
1800
F800
3800
3800
3800
3800
3800
3800
38F0
3BF8
3E38
381C
380C
380C
380C
3808
3808
3C10
3FE0
0780
ENDCHAR
STARTCHAR 0063
ENCODING 99
SWIDTH 444 0
DWIDTH 12 0
BBX 11 12 1 0
BITMAP
0FE0
30C0
70C0
6040
E000
E000
E000
E000
F040
78E0
3FC0
1F00
ENDCHAR
STARTCHAR 0064
ENCODING 100
SWIDTH 555 0
DWIDTH 15 0
BBX 14 20 1 0
BITMAP
0030
01F0
0070
0070
0070
0070
0070
0070
0FF0
30F0
6070
6070
E070
E070
E070
F070
F8F0
7FF4
3F7C
1E30
ENDCHAR
STARTCHAR 0065
ENCODING 101
SWIDTH 481 0
DWIDTH 13 0
BBX 11 12 1 0
BITMAP
0F00
31C0
70C0
60E0
E0E0
FFC0
E000
E000
F040
78E0
3FC0
1F00
ENDCHAR
STARTCHAR 0066
ENCODING 102
SWIDTH 333 0
DWIDTH 9 0
BBX 11 19 1 0
BITMAP
03E0
0CC0
1800
1800
3800
3800
3800
FF80
3800
3800
3800
3800
3800
3800
3800
3800
3800
3800
FF00
ENDCHAR
STARTCHAR 0067
ENCODING 103
SWIDTH 555 0
DWIDTH 15 0
BBX 14 18 0 -6
BITMAP
0F8C
10FC
2070
6030
6030
7030
3860
1F80
1C00
7C00
7FE0
3FF8
7FFC
F03C
E01C
E018
7030
1FC0
ENDCHAR
STARTCHAR 0068
ENCODING 104
SWIDTH 592 0
DWIDTH 16 0
BBX 15 20 1 0
BITMAP
1800
F800
3800
3800
3800
3800
3800
3800
38F0
3BF8
3E38
3838
3838
3838
3838
3838
3838
3838
3838
FEFE
ENDCHAR
STARTCHAR 0069
ENCODING 105
SWIDTH 296 0
DWIDTH 8 0
BBX 7 18 1 0
BITMAP
38
78
70
00
00
00
38
F8
38
38
38
38
38
38
38
38
38
FE
ENDCHAR
STARTCHAR 006A
ENCODING 106
SWIDTH 296 0
DWIDTH 8 0
BBX 10 24 -4 -6
BITMAP
01C0
03C0
0380
0000
0000
0000
0380
0F80
0380
0380
0380
0380
0380
0380
0380
0380
0380
0380
0380
0380
0300
6600
FC00
7800
ENDCHAR
STARTCHAR 006B
ENCODING 107
SWIDTH 555 0
DWIDTH 15 0
BBX 14 20 1 0
BITMAP
1800
F800
3800
3800
3800
3800
3800
3800
38FC
3870
38E0
3980
3B00
3F00
3B80
39C0
38E0
38F0
3878
FC3C
ENDCHAR
STARTCHAR 006C
ENCODING 108
SWIDTH 296 0
DWIDTH 8 0
BBX 7 20 1 0
BITMAP
18
F8
38
38
38
38
38
38
38
38
38
38
38
38
38
38
38
38
38
FE
ENDCHAR
STARTCHAR 006D
ENCODING 109
SWIDTH 851 0
DWIDTH 23 0
BBX 23 12 0 0
BITMAP
19F1F0
FBFFF8
3E3E38
383838
383838
383838
383838
383838
383838
383838
383838
FEFEFE
ENDCHAR
STARTCHAR 006E
ENCODING 110
SWIDTH 592 0
DWIDTH 16 0
BBX 15 12 1 0
BITMAP
18F0
FBF8
3E38
3838
3838
3838
3838
3838
3838
3838
3838
FEFE
ENDCHAR
STARTCHAR 006F
ENCODING 111
SWIDTH 518 0
DWIDTH 14 0
BBX 12 12 1 0
BITMAP
0F80
31C0
70E0
6070
E070
E070
E070
E070
E060
7060
38C0
1F00
ENDCHAR
STARTCHAR 0070
ENCODING 112
SWIDTH 555 0
DWIDTH 15 0
BBX 13 18 1 -6
BITMAP
19E0
FBF0
3C70
3838
3818
3818
3818
3818
3810
3C30
3FE0
3BC0
3800
3800
3800
3800
3800
FE00
ENDCHAR
STARTCHAR 0071
ENCODING 113
SWIDTH 555 0
DWIDTH 15 0
BBX 14 18 1 -6
BITMAP
0F10
30F0
6070
6070
E070
E070
E070
F070
F8F0
7FF0
7F70
1C70
0070
0070
0070
0070
0070
01FC
ENDCHAR
STARTCHAR 0072
ENCODING 114
SWIDTH 444 0
DWIDTH 12 0
BBX 11 12 1 0
BITMAP
31E0
F7E0
7CC0
7840
7840
7800
7800
7800
7800
7800
7800
FE00
ENDCHAR
STARTCHAR 0073
ENCODING 115
SWIDTH 407 0
DWIDTH 11 0
BBX 9 12 1 0
BITMAP
3E00
4700
C200
E000
F800
7E00
3F00
0F80
8380
C180
E100
FE00
ENDCHAR
STARTCHAR 0074
ENCODING 116
SWIDTH 370 0
DWIDTH 10 0
BBX 10 17 0 0
BITMAP
0800
1800
3800
3800
3800
FFC0
3800
3800
3800
3800
3800
3800
3800
3800
3880
3FC0
1E00
ENDCHAR
STARTCHAR 0075
ENCODING 117
SWIDTH 555 0
DWIDTH 15 0
BBX 15 12 0 0
BITMAP
3838
F8F8
3838
3838
3838
3838
3838
3838
3838
38FA
3FBE
1E38
ENDCHAR
STARTCHAR 0076
ENCODING 118
SWIDTH 518 0
DWIDTH 14 0
BBX 14 12 0 0
BITMAP
FC7C
7830
3830
3C20
1C60
1E60
0EC0
0EC0
0780
0780
0780
0300
ENDCHAR
STARTCHAR 0077
ENCODING 119
SWIDTH 703 0
DWIDTH 19 0
BBX 19 12 0 0
BITMAP
FC21E0
7860C0
3870C0
38F180
1CF980
1CB980
1D9F00
0F1F00
0F1F00
0F0E00
060E00
040400
ENDCHAR
STARTCHAR 0078
ENCODING 120
SWIDTH 518 0
DWIDTH 14 0
BBX 14 12 0 0
BITMAP
FEFC
3C70
1C60
1EC0
0F80
0780
0780
0FC0
19E0
18F0
3078
F9FC
ENDCHAR
STARTCHAR 0079
ENCODING 121
SWIDTH 518 0
DWIDTH 14 0
BBX 15 18 -1 -6
BITMAP
7E3E
3C18
1C18
1E10
0E30
0F30
0760
0760
03C0
03C0
03C0
0180
0180
0300
0300
7E00
7C00
F800
ENDCHAR
STARTCHAR 007A
ENCODING 122
SWIDTH 481 0
DWIDTH 13 0
BBX 11 12 1 0
BITMAP
7FE0
43C0
43C0
8780
0F00
0F00
1E00
3C00
3820
7860
F060
FFE0
ENDCHAR
STARTCHAR 007B
ENCODING 123
SWIDTH 333 0
DWIDTH 9 0
BBX 7 25 1 -4
BITMAP
02
0E
1C
38
38
38
38
1C
1C
1C
1C
38
F0
F8
1C
1C
1C
1C
38
38
38
38
1C
0E
06
ENDCHAR
STARTCHAR 007C
ENCODING 124
SWIDTH 222 0
DWIDTH 6 0
BBX 2 27 2 -5
BITMAP
C0
C0
C0
C0
C0
C0
C0
C0
C0
C0
C0
C0
C0
C0
C0
C0
C0
C0
C0
C0
C0
C0
C0
C0
C0
C0
C0
ENDCHAR
STARTCHAR 007D
ENCODING 125
SWIDTH 333 0
DWIDTH 9 0
BBX 7 25 1 -4
BITMAP
C0
E0
70
38
38
38
38
70
70
70
70
3E
1E
38
70
70
70
70
38
38
38
38
70
E0
80
ENDCHAR
STARTCHAR 007E
ENCODING 126
SWIDTH 481 0
DWIDTH 13 0
BBX 12 4 1 6
BITMAP
3830
7E20
8FC0
8380
ENDCHAR
STARTCHAR 00A0
ENCODING 160
SWIDTH 259 0
DWIDTH 7 0
BBX 0 0 0 0
BITMAP
ENDCHAR
STARTCHAR 00A1
ENCODING 161
SWIDTH 296 0
DWIDTH 8 0
BBX 4 19 2 -7
BITMAP
70
F0
F0
E0
20
60
60
60
60
60
60
70
70
70
F0
F0
F0
F0
C0
ENDCHAR
STARTCHAR 00A2
ENCODING 162
SWIDTH 518 0
DWIDTH 14 0
BBX 10 17 2 -1
BITMAP
0C00
0C00
0F80
3FC0
6DC0
6CC0
CC00
CC00
CC00
CC00
CC00
EC40
7DC0
3F80
1E00
0C00
0C00
ENDCHAR
STARTCHAR 00A3
ENCODING 163
SWIDTH 518 0
DWIDTH 14 0
BBX 13 16 0 0
BITMAP
03F0
0638
0C10
1C10
1C10
3C00
3C00
3C00
FFC0
3C00
3C00
3C10
3818
3818
7FF8
FFF0
ENDCHAR
STARTCHAR 00A4
ENCODING 164
SWIDTH 518 0
DWIDTH 14 0
BBX 12 11 1 2
BITMAP
C030
EF70
70E0
6060
6060
6060
6060
70E0
6F60
C030
8010
ENDCHAR
STARTCHAR 00A5
ENCODING 165
SWIDTH 518 0
DWIDTH 14 0
BBX 15 16 -1 0
BITMAP
F87E
7838
3C30
1E30
1E60
0F60
07C0
07C0
07C0
0380
3FF8
0380
0380
0380
0380
0FE0
ENDCHAR
STARTCHAR 00A6
ENCODING 166
SWIDTH 222 0
DWIDTH 6 0
BBX 2 27 2 -5
BITMAP
C0
C0
C0
C0
C0
C0
C0
C0
C0
C0
C0
C0
80
00
00
C0
C0
C0
C0
C0
C0
C0
C0
C0
C0
C0
C0
ENDCHAR
STARTCHAR 00A7
ENCODING 167
SWIDTH 481 0
DWIDTH 13 0
BBX 10 19 2 0
BITMAP
1F00
2380
6100
7100
7800
3E00
7F80
CF80
C3C0
E1C0
F0C0
7CC0
3F80
1F80
0780
4180
4180
6100
7E00
ENDCHAR
STARTCHAR 00A8
ENCODING 168
SWIDTH 407 0
DWIDTH 11 0
BBX 9 4 1 14
BITMAP
7380
F780
F780
E700
ENDCHAR
STARTCHAR 00A9
ENCODING 169
SWIDTH 740 0
DWIDTH 20 0
BBX 18 18 1 0
BITMAP
03F000
0E1C00
180600
300300
61F180
663980
C610C0
CC00C0
CC00C0
CC00C0
CC00C0
CC00C0
660180
671980
31F300
180600
0C0C00
03F000
ENDCHAR
STARTCHAR 00AA
ENCODING 170
SWIDTH 259 0
DWIDTH 7 0
BBX 6 9 1 8
BITMAP
78
D8
18
78
D8
D8
FC
00
FC
ENDCHAR
STARTCHAR 00AB
ENCODING 171
SWIDTH 518 0
DWIDTH 14 0
BBX 11 12 1 0
BITMAP
0420
0860
18C0
31C0
7380
E780
E780
7380
31C0
18C0
0860
0420
ENDCHAR
STARTCHAR 00AC
ENCODING 172
SWIDTH 518 0
DWIDTH 14 0
BBX 12 6 1 2
BITMAP
7FF0
8030
0030
0030
0030
0020
ENDCHAR
STARTCHAR 00AD
ENCODING 173
SWIDTH 370 0
DWIDTH 10 0
BBX 8 1 1 6
BITMAP
FF
ENDCHAR
STARTCHAR 00AE
ENCODING 174
SWIDTH 370 0
DWIDTH 10 0
BBX 10 9 -1 10
BITMAP
1E00
6180
FF80
DBC0
DEC0
DCC0
FBC0
6180
1E00
ENDCHAR
STARTCHAR 00AF
ENCODING 175
SWIDTH 481 0
DWIDTH 13 0
BBX 11 2 1 16
BITMAP
7FE0
FFE0
ENDCHAR
STARTCHAR 00B0
ENCODING 176
SWIDTH 370 0
DWIDTH 10 0
BBX 6 7 2 10
BITMAP
38
4C
CC
CC
CC
C8
70
ENDCHAR
STARTCHAR 00B1
ENCODING 177
SWIDTH 407 0
DWIDTH 11 0
BBX 10 12 1 2
BITMAP
0C00
0C00
0C00
0C00
FFC0
0C00
0C00
0C00
0C00
0000
0000
FFC0
ENDCHAR
STARTCHAR 00B2
ENCODING 178
SWIDTH 333 0
DWIDTH 9 0
BBX 7 10 1 8
BITMAP
3C
66
E6
06
0C
18
10
32
62
FE
ENDCHAR
STARTCHAR 00B3
ENCODING 179
SWIDTH 333 0
DWIDTH 9 0
BBX 7 10 1 8
BITMAP
3C
66
46
06
1C
06
06
06
8E
78
ENDCHAR
STARTCHAR 00B4
ENCODING 180
SWIDTH 333 0
DWIDTH 9 0
BBX 6 6 3 14
BITMAP
38
3C
70
60
C0
80
ENDCHAR
STARTCHAR 00B5
ENCODING 181
SWIDTH 555 0
DWIDTH 15 0
BBX 15 18 0 -6
BITMAP
1818
F878
3838
3838
3838
3838
3838
3838
3C78
3FF8
3FBE
3718
3000
3000
3800
3800
3C00
3000
ENDCHAR
STARTCHAR 00B6
ENCODING 182
SWIDTH 629 0
DWIDTH 17 0
BBX 15 20 1 -3
BITMAP
0FFE
31F8
7198
E198
E198
E198
E198
7198
7998
1F98
0198
0198
0198
0198
0198
0198
0198
0198
0198
07FE
ENDCHAR
STARTCHAR 00B7
ENCODING 183
SWIDTH 222 0
DWIDTH 6 0
BBX 4 4 1 7
BITMAP
70
F0
F0
E0
ENDCHAR
STARTCHAR 00B8
ENCODING 184
SWIDTH 222 0
DWIDTH 6 0
BBX 5 6 1 -6
BITMAP
20
60
78
38
70
E0
ENDCHAR
STARTCHAR 00B9
ENCODING 185
SWIDTH 333 0
DWIDTH 9 0
BBX 7 10 1 8
BITMAP
18
F8
18
18
18
18
18
18
18
7E
ENDCHAR
STARTCHAR 00BA
ENCODING 186
SWIDTH 296 0
DWIDTH 8 0
BBX 7 9 0 8
BITMAP
38
4C
C6
C6
C6
E4
78
00
FE
ENDCHAR
STARTCHAR 00BB
ENCODING 187
SWIDTH 518 0
DWIDTH 14 0
BBX 11 12 2 0
BITMAP
8400
C600
6300
7380
39C0
3DE0
3DE0
39C0
7380
6300
C600
8400
ENDCHAR
STARTCHAR 00BC
ENCODING 188
SWIDTH 629 0
DWIDTH 17 0
BBX 15 16 1 0
BITMAP
3006
F00C
3018
3030
3030
3060
30C0
FD80
018C
031C
062C
0C2C
0C4C
18FE
300C
603E
ENDCHAR
STARTCHAR 00BD
ENCODING 189
SWIDTH 629 0
DWIDTH 17 0
BBX 15 16 1 0
BITMAP
3006
F00C
3018
3018
3030
3060
30C0
FCC0
01BC
0366
0646
060C
0C08
1810
3022
707E
ENDCHAR
STARTCHAR 00BE
ENCODING 190
SWIDTH 629 0
DWIDTH 17 0
BBX 15 16 1 0
BITMAP
3806
CC0C
0C18
3830
0C30
0C60
8CC0
7980
018C
031C
063C
0C2C
0C4C
18FE
300C
603E
ENDCHAR
STARTCHAR 00BF
ENCODING 191
SWIDTH 444 0
DWIDTH 12 0
BBX 10 19 1 -7
BITMAP
0E00
1E00
1E00
1C00
0000
0600
0600
0600
0E00
0C00
1800
3800
7000
E000
E0C0
E1C0
E1C0
F380
3E00
ENDCHAR
STARTCHAR 00C0
ENCODING 192
SWIDTH 629 0
DWIDTH 17 0
BBX 17 23 0 0
BITMAP
060000
0F0000
078000
01C000
006000
000000
00C000
01C000
03C000
03E000
02E000
06F000
067000
067000
0C7800
0C3800
0FF800
181C00
181C00
101C00
300E00
300E00
FC3F80
ENDCHAR
STARTCHAR 00C1
ENCODING 193
SWIDTH 629 0
DWIDTH 17 0
BBX 17 23 0 0
BITMAP
003000
007800
01E000
038000
020000
000000
00C000
01C000
03C000
03E000
02E000
06F000
067000
067000
0C7800
0C3800
0FF800
181C00
181C00
101C00
300E00
300E00
FC3F80
ENDCHAR
STARTCHAR 00C2
ENCODING 194
SWIDTH 629 0
DWIDTH 17 0
BBX 17 23 0 0
BITMAP
01C000
03E000
07F000
0E3000
081800
000000
00C000
01C000
03C000
03E000
02E000
06F000
067000
067000
0C7800
0C3800
0FF800
181C00
181C00
101C00
300E00
300E00
FC3F80
ENDCHAR
STARTCHAR 00C3
ENCODING 195
SWIDTH 629 0
DWIDTH 17 0
BBX 17 22 0 0
BITMAP
078C00
0FF800
0FF000
106000
000000
00C000
01C000
03C000
03E000
02E000
06F000
067000
067000
0C7800
0C3800
0FF800
181C00
181C00
101C00
300E00
300E00
FC3F80
ENDCHAR
STARTCHAR 00C4
ENCODING 196
SWIDTH 629 0
DWIDTH 17 0
BBX 17 22 0 0
BITMAP
073800
0F7800
0F7800
063000
000000
00C000
01C000
03C000
03E000
02E000
06F000
067000
067000
0C7800
0C3800
0FF800
181C00
181C00
101C00
300E00
300E00
FC3F80
ENDCHAR
STARTCHAR 00C5
ENCODING 197
SWIDTH 629 0
DWIDTH 17 0
BBX 17 23 0 0
BITMAP
03E000
066000
066000
076000
038000
000000
00C000
01C000
03C000
03E000
02E000
06F000
067000
067000
0C7800
0C3800
0FF800
181C00
181C00
101C00
300E00
300E00
FC3F80
ENDCHAR
STARTCHAR 00C6
ENCODING 198
SWIDTH 814 0
DWIDTH 22 0
BBX 21 17 0 0
BITMAP
07FFF0
01F830
01F830
03B830
03B830
033800
073800
063800
07FFE0
0C3840
0C3800
1C3800
183800
183808
303818
303818
F8FFF8
ENDCHAR
STARTCHAR 00C7
ENCODING 199
SWIDTH 555 0
DWIDTH 15 0
BBX 14 23 1 -6
BITMAP
07F0
1878
3030
7000
6000
6000
E000
E000
E000
E000
E000
F000
7000
7808
3C3C
3FF0
0FC0
0100
0380
03C0
01C0
0380
0600
ENDCHAR
STARTCHAR 00C8
ENCODING 200
SWIDTH 518 0
DWIDTH 14 0
BBX 13 23 1 0
BITMAP
1800
3C00
5E00
0700
0180
0000
FFF0
7830
7830
7820
7820
7800
7800
7800
7FC0
7880
7800
7800
7800
7810
7818
7830
FFF0
ENDCHAR
STARTCHAR 00C9
ENCODING 201
SWIDTH 518 0
DWIDTH 14 0
BBX 13 23 1 0
BITMAP
01C0
03E0
0780
0E00
1800
0000
FFF0
7830
7830
7820
7820
7800
7800
7800
7FC0
7880
7800
7800
7800
7810
7818
7830
FFF0
ENDCHAR
STARTCHAR 00CA
ENCODING 202
SWIDTH 518 0
DWIDTH 14 0
BBX 13 23 1 0
BITMAP
0700
0F00
1F80
38C0
2060
0000
FFF0
7830
7830
7820
7820
7800
7800
7800
7FC0
7880
7800
7800
7800
7810
7818
7830
FFF0
ENDCHAR
STARTCHAR 00CB
ENCODING 203
SWIDTH 518 0
DWIDTH 14 0
BBX 13 22 1 0
BITMAP
1CE0
3DE0
3DE0
18C0
0000
FFF0
7830
7830
7820
7820
7800
7800
7800
7FC0
7880
7800
7800
7800
7810
7818
7830
FFF0
ENDCHAR
STARTCHAR 00CC
ENCODING 204
SWIDTH 333 0
DWIDTH 9 0
BBX 8 23 0 0
BITMAP
60
F0
78
1C
06
00
7F
1C
1C
1C
1C
1C
1C
1C
1C
1C
1C
1C
1C
1C
1C
1C
7F
ENDCHAR
STARTCHAR 00CD
ENCODING 205
SWIDTH 333 0
DWIDTH 9 0
BBX 8 23 1 0
BITMAP
06
1F
3C
70
40
00
FE
38
38
38
38
38
38
38
38
38
38
38
38
38
38
38
FE
ENDCHAR
STARTCHAR 00CE
ENCODING 206
SWIDTH 333 0
DWIDTH 9 0
BBX 9 23 0 0
BITMAP
1C00
3E00
7E00
E300
8180
0000
7F00
1C00
1C00
1C00
1C00
1C00
1C00
1C00
1C00
1C00
1C00
1C00
1C00
1C00
1C00
1C00
7F00
ENDCHAR
STARTCHAR 00CF
ENCODING 207
SWIDTH 333 0
DWIDTH 9 0
BBX 9 22 0 0
BITMAP
7380
F780
F780
6300
0000
7F00
1C00
1C00
1C00
1C00
1C00
1C00
1C00
1C00
1C00
1C00
1C00
1C00
1C00
1C00
1C00
7F00
ENDCHAR
STARTCHAR 00D0
ENCODING 208
SWIDTH 629 0
DWIDTH 17 0
BBX 16 17 0 0
BITMAP
3FE0
F878
383C
381E
381E
380F
380F
380F
FF8F
380F
380F
380F
381E
381E
383C
3878
FFE0
ENDCHAR
STARTCHAR 00D1
ENCODING 209
SWIDTH 666 0
DWIDTH 18 0
BBX 18 22 0 0
BITMAP
03CC00
07F800
0FF800
087000
000000
F80FC0
7C0300
3C0300
3E0300
3F0300
378300
33C300
33C300
31E300
30F300
307B00
307B00
303F00
301F00
300F00
300700
FC0300
ENDCHAR
STARTCHAR 00D2
ENCODING 210
SWIDTH 629 0
DWIDTH 17 0
BBX 15 23 1 0
BITMAP
0C00
1E00
0F00
0380
0040
0000
07C0
1870
3038
301C
601C
600E
E00E
E00E
E00E
E00E
E00E
E00C
701C
7018
3818
1C20
07C0
ENDCHAR
STARTCHAR 00D3
ENCODING 211
SWIDTH 629 0
DWIDTH 17 0
BBX 15 23 1 0
BITMAP
0060
00F0
03E0
0700
0400
0000
07C0
1870
3038
301C
601C
600E
E00E
E00E
E00E
E00E
E00E
E00C
701C
7018
3818
1C20
07C0
ENDCHAR
STARTCHAR 00D4
ENCODING 212
SWIDTH 629 0
DWIDTH 17 0
BBX 15 23 1 0
BITMAP
0380
07C0
0FE0
1C60
1030
0000
07C0
1870
3038
301C
601C
600E
E00E
E00E
E00E
E00E
E00E
E00C
701C
7018
3818
1C20
07C0
ENDCHAR
STARTCHAR 00D5
ENCODING 213
SWIDTH 629 0
DWIDTH 17 0
BBX 15 22 1 0
BITMAP
0F18
1FF0
1FE0
30C0
0000
07C0
1870
3038
301C
601C
600E
E00E
E00E
E00E
E00E
E00E
E00C
701C
7018
3818
1C20
07C0
ENDCHAR
STARTCHAR 00D6
ENCODING 214
SWIDTH 629 0
DWIDTH 17 0
BBX 15 22 1 0
BITMAP
0E70
1EF0
1EF0
0C60
0000
07C0
1870
3038
301C
601C
600E
E00E
E00E
E00E
E00E
E00E
E00C
701C
7018
3818
1C20
07C0
ENDCHAR
STARTCHAR 00D7
ENCODING 215
SWIDTH 407 0
DWIDTH 11 0
BBX 9 9 1 3
BITMAP
C180
E380
7700
3E00
1C00
3E00
7700
E380
C180
ENDCHAR
STARTCHAR 00D8
ENCODING 216
SWIDTH 629 0
DWIDTH 17 0
BBX 15 18 1 -1
BITMAP
07EE
087C
3838
303C
707C
60FE
E0EE
E1CE
E38E
E30E
E70E
FE0C
7C1C
7C18
3830
7C20
EFC0
8000
ENDCHAR
STARTCHAR 00D9
ENCODING 217
SWIDTH 666 0
DWIDTH 18 0
BBX 17 23 0 0
BITMAP
030000
078000
03C000
00E000
003000
000000
FE1F80
380600
380600
380600
380600
380600
380600
380600
380600
380600
380600
380600
380600
380400
1C0C00
0E1800
03E000
ENDCHAR
STARTCHAR 00DA
ENCODING 218
SWIDTH 666 0
DWIDTH 18 0
BBX 17 23 0 0
BITMAP
003800
007C00
00F000
01C000
030000
000000
FE1F80
380600
380600
380600
380600
380600
380600
380600
380600
380600
380600
380600
380600
380400
1C0C00
0E1800
03E000
ENDCHAR
STARTCHAR 00DB
ENCODING 219
SWIDTH 666 0
DWIDTH 18 0
BBX 17 23 0 0
BITMAP
00E000
01E000
03F000
071800
040C00
000000
FE1F80
380600
380600
380600
380600
380600
380600
380600
380600
380600
380600
380600
380600
380400
1C0C00
0E1800
03E000
ENDCHAR
STARTCHAR 00DC
ENCODING 220
SWIDTH 666 0
DWIDTH 18 0
BBX 17 22 0 0
BITMAP
039C00
07BC00
07BC00
031800
000000
FE1F80
380600
380600
380600
380600
380600
380600
380600
380600
380600
380600
380600
380600
380400
1C0C00
0E1800
03E000
ENDCHAR
STARTCHAR 00DD
ENCODING 221
SWIDTH 629 0
DWIDTH 17 0
BBX 16 23 0 0
BITMAP
0030
00F8
01E0
0380
0200
0000
F81F
3C0E
1C0C
0E18
0F18
0730
0730
03E0
03E0
01C0
01C0
01C0
01C0
01C0
01C0
01C0
07F0
ENDCHAR
STARTCHAR 00DE
ENCODING 222
SWIDTH 555 0
DWIDTH 15 0
BBX 14 17 0 0
BITMAP
FE00
3800
3800
3FC0
3870
3838
381C
381C
381C
381C
3838
3870
3BE0
3800
3800
3800
FE00
ENDCHAR
STARTCHAR 00DF
ENCODING 223
SWIDTH 629 0
DWIDTH 17 0
BBX 15 20 0 0
BITMAP
01F0
063C
0C1C
180E
180E
380E
381C
3838
3860
38C0
38C0
38E0
3878
383C
381E
380E
3906
3986
3984
F9F8
ENDCHAR
STARTCHAR 00E0
ENCODING 224
SWIDTH 481 0
DWIDTH 13 0
BBX 12 20 1 0
BITMAP
3800
3C00
1C00
0E00
0600
0300
0000
0000
1F80
71C0
F1C0
81C0
03C0
3FC0
71C0
E1C0
E1C0
E3F0
FDE0
7980
ENDCHAR
STARTCHAR 00E1
ENCODING 225
SWIDTH 481 0
DWIDTH 13 0
BBX 12 20 1 0
BITMAP
03C0
03C0
0780
0700
0E00
0C00
0000
0000
1F80
71C0
F1C0
81C0
03C0
3FC0
71C0
E1C0
E1C0
E3F0
FDE0
7980
ENDCHAR
STARTCHAR 00E2
ENCODING 226
SWIDTH 481 0
DWIDTH 13 0
BBX 12 20 1 0
BITMAP
0600
0F00
1F00
3B80
30C0
6040
0000
0000
1F80
71C0
F1C0
81C0
03C0
3FC0
71C0
E1C0
E1C0
E3F0
FDE0
7980
ENDCHAR
STARTCHAR 00E3
ENCODING 227
SWIDTH 481 0
DWIDTH 13 0
BBX 12 19 1 0
BITMAP
0020
1C60
3FC0
47C0
4380
0000
0000
1F80
71C0
F1C0
81C0
03C0
3FC0
71C0
E1C0
E1C0
E3F0
FDE0
7980
ENDCHAR
STARTCHAR 00E4
ENCODING 228
SWIDTH 481 0
DWIDTH 13 0
BBX 12 18 1 0
BITMAP
39C0
3DE0
39C0
39C0
0000
0000
1F80
71C0
F1C0
81C0
03C0
3FC0
71C0
E1C0
E1C0
E3F0
FDE0
7980
ENDCHAR
STARTCHAR 00E5
ENCODING 229
SWIDTH 481 0
DWIDTH 13 0
BBX 12 19 1 0
BITMAP
0F00
1B00
1980
1B00
1E00
0000
0000
1F80
71C0
F1C0
81C0
03C0
3FC0
71C0
E1C0
E1C0
E3F0
FDE0
7980
ENDCHAR
STARTCHAR 00E6
ENCODING 230
SWIDTH 740 0
DWIDTH 20 0
BBX 18 12 1 0
BITMAP
079E00
1FE300
38E180
70C180
40C180
0FFF00
38C000
60C000
E0E080
E3F1C0
FE7F00
7C3E00
ENDCHAR
STARTCHAR 00E7
ENCODING 231
SWIDTH 444 0
DWIDTH 12 0
BBX 11 18 1 -6
BITMAP
0FE0
30C0
70C0
6040
E000
E000
E000
E000
F040
78C0
3F80
1F00
0400
0E00
0F00
0700
0E00
1800
ENDCHAR
STARTCHAR 00E8
ENCODING 232
SWIDTH 481 0
DWIDTH 13 0
BBX 11 20 1 0
BITMAP
3C00
3C00
1E00
0E00
0700
0100
0000
0000
0F00
31C0
70C0
60E0
E0E0
FFC0
E000
E000
F040
78E0
3FC0
1F00
ENDCHAR
STARTCHAR 00E9
ENCODING 233
SWIDTH 481 0
DWIDTH 13 0
BBX 11 20 1 0
BITMAP
01C0
03C0
0380
0700
0600
0C00
0000
0000
0F00
31C0
70C0
60E0
E0E0
FFC0
E000
E000
F040
78E0
3FC0
1F00
ENDCHAR
STARTCHAR 00EA
ENCODING 234
SWIDTH 481 0
DWIDTH 13 0
BBX 11 20 1 0
BITMAP
0600
0F00
1F80
1D80
30C0
2060
0000
0000
0F00
31C0
70C0
60E0
E0E0
FFC0
E000
E000
F040
78E0
3FC0
1F00
ENDCHAR
STARTCHAR 00EB
ENCODING 235
SWIDTH 481 0
DWIDTH 13 0
BBX 11 18 1 0
BITMAP
18C0
3DE0
3DE0
39C0
0000
0000
0F00
31C0
70C0
60E0
E0E0
FFC0
E000
E000
F040
78E0
3FC0
1F00
ENDCHAR
STARTCHAR 00EC
ENCODING 236
SWIDTH 296 0
DWIDTH 8 0
BBX 8 20 0 0
BITMAP
F0
F0
78
18
0C
04
00
00
1C
7C
1C
1C
1C
1C
1C
1C
1C
1C
1C
7F
ENDCHAR
STARTCHAR 00ED
ENCODING 237
SWIDTH 296 0
DWIDTH 8 0
BBX 7 20 1 0
BITMAP
0E
1E
1C
38
30
60
00
00
38
F8
38
38
38
38
38
38
38
38
38
FE
ENDCHAR
STARTCHAR 00EE
ENCODING 238
SWIDTH 296 0
DWIDTH 8 0
BBX 9 20 0 0
BITMAP
1800
3C00
7E00
7600
C300
8180
0000
0000
1C00
7C00
1C00
1C00
1C00
1C00
1C00
1C00
1C00
1C00
1C00
7F00
ENDCHAR
STARTCHAR 00EF
ENCODING 239
SWIDTH 296 0
DWIDTH 8 0
BBX 9 18 0 0
BITMAP
7380
F780
F780
E700
0000
0000
1C00
7C00
1C00
1C00
1C00
1C00
1C00
1C00
1C00
1C00
1C00
7F00
ENDCHAR
STARTCHAR 00F0
ENCODING 240
SWIDTH 518 0
DWIDTH 14 0
BBX 12 19 1 0
BITMAP
0C00
7E70
0FE0
0F80
3DC0
00E0
00E0
0FE0
31F0
60F0
6070
E070
E070
E070
E060
E060
70C0
3880
1F00
ENDCHAR
STARTCHAR 00F1
ENCODING 241
SWIDTH 592 0
DWIDTH 16 0
BBX 15 19 1 0
BITMAP
0010
0E30
1FE0
33E0
21C0
0000
0000
18F0
FBF8
3E38
3838
3838
3838
3838
3838
3838
3838
3838
FEFE
ENDCHAR
STARTCHAR 00F2
ENCODING 242
SWIDTH 518 0
DWIDTH 14 0
BBX 12 20 1 0
BITMAP
1C00
3C00
0E00
0600
0300
0180
0000
0000
0F80
31C0
70E0
6070
E070
E070
E070
E070
E060
7060
38C0
1F00
ENDCHAR
STARTCHAR 00F3
ENCODING 243
SWIDTH 518 0
DWIDTH 14 0
BBX 12 20 1 0
BITMAP
01C0
03E0
0380
0700
0600
0C00
0000
0000
0F80
31C0
70E0
6070
E070
E070
E070
E070
E060
7060
38C0
1F00
ENDCHAR
STARTCHAR 00F4
ENCODING 244
SWIDTH 518 0
DWIDTH 14 0
BBX 12 20 1 0
BITMAP
0700
0F00
0F80
1DC0
38C0
2060
0000
0000
0F80
31C0
70E0
6070
E070
E070
E070
E070
E060
7060
38C0
1F00
ENDCHAR
STARTCHAR 00F5
ENCODING 245
SWIDTH 518 0
DWIDTH 14 0
BBX 12 19 1 0
BITMAP
0030
1E20
3FE0
27C0
4180
0000
0000
0F80
31C0
70E0
6070
E070
E070
E070
E070
E060
7060
38C0
1F00
ENDCHAR
STARTCHAR 00F6
ENCODING 246
SWIDTH 518 0
DWIDTH 14 0
BBX 12 18 1 0
BITMAP
1CE0
3DE0
3DE0
18C0
0000
0000
0F80
31C0
70E0
6070
E070
E070
E070
E070
E060
7060
38C0
1F00
ENDCHAR
STARTCHAR 00F7
ENCODING 247
SWIDTH 407 0
DWIDTH 11 0
BBX 10 10 1 2
BITMAP
0C00
0C00
0C00
0000
FFC0
0000
0000
0C00
0C00
0C00
ENDCHAR
STARTCHAR 00F8
ENCODING 248
SWIDTH 518 0
DWIDTH 14 0
BBX 12 14 1 -1
BITMAP
0010
0FB0
31E0
70E0
61F0
E370
E670
E670
EC70
F860
70E0
78C0
5F00
8000
ENDCHAR
STARTCHAR 00F9
ENCODING 249
SWIDTH 555 0
DWIDTH 15 0
BBX 15 20 0 0
BITMAP
0E00
0F00
0700
0380
0180
00C0
0000
0000
3838
F8F8
3838
3838
3838
3838
3838
3838
3838
38FA
3FBE
1E38
ENDCHAR
STARTCHAR 00FA
ENCODING 250
SWIDTH 555 0
DWIDTH 15 0
BBX 15 20 0 0
BITMAP
00E0
00F0
01C0
0180
0300
0200
0000
0000
3838
F8F8
3838
3838
3838
3838
3838
3838
3838
38FA
3FBE
1E38
ENDCHAR
STARTCHAR 00FB
ENCODING 251
SWIDTH 555 0
DWIDTH 15 0
BBX 15 20 0 0
BITMAP
0380
03C0
07C0
0EE0
1C70
1810
0000
0000
3838
F8F8
3838
3838
3838
3838
3838
3838
3838
38FA
3FBE
1E38
ENDCHAR
STARTCHAR 00FC
ENCODING 252
SWIDTH 555 0
DWIDTH 15 0
BBX 15 18 0 0
BITMAP
0E70
0E70
1EF0
0E70
0000
0000
3838
F8F8
3838
3838
3838
3838
3838
3838
3838
38FA
3FBE
1E38
ENDCHAR
STARTCHAR 00FD
ENCODING 253
SWIDTH 518 0
DWIDTH 14 0
BBX 15 26 -1 -6
BITMAP
0070
00F0
00E0
01C0
0180
0300
0000
0000
7E3E
3C18
1C18
1E10
0E30
0F30
0760
0760
03C0
03C0
03C0
0180
0180
0300
0300
7E00
7C00
F800
ENDCHAR
STARTCHAR 00FE
ENCODING 254
SWIDTH 555 0
DWIDTH 15 0
BBX 13 26 1 -6
BITMAP
1800
F800
3800
3800
3800
3800
3800
3800
39E0
3FF0
3C70
3838
3818
3818
3818
3818
3810
3C30
3FE0
3BC0
3800
3800
3800
3800
3800
FE00
ENDCHAR
STARTCHAR 00FF
ENCODING 255
SWIDTH 518 0
DWIDTH 14 0
BBX 15 24 -1 -6
BITMAP
0738
0F78
0F78
0E70
0000
0000
7E3E
3C18
1C18
1E10
0E30
0F30
0760
0760
03C0
03C0
03C0
0180
0180
0300
0300
7E00
7C00
F800
ENDCHAR
STARTCHAR 0100
ENCODING 256
SWIDTH 629 0
DWIDTH 17 0
BBX 17 21 0 0
BITMAP
1FFC00
1FFC00
000000
000000
00C000
01C000
03C000
03E000
02E000
06F000
067000
067000
0C7800
0C3800
0FF800
181C00
181C00
101C00
300E00
300E00
FC3F80
ENDCHAR
STARTCHAR 0101
ENCODING 257
SWIDTH 481 0
DWIDTH 13 0
BBX 12 18 1 0
BITMAP
7FF0
FFE0
0000
0000
0000
0000
1F80
71C0
F1C0
81C0
03C0
3FC0
71C0
E1C0
E1C0
E3F0
FDE0
7980
ENDCHAR
STARTCHAR 0102
ENCODING 258
SWIDTH 629 0
DWIDTH 17 0
BBX 17 23 0 0
BITMAP
081800
0E3800
07F000
07E000
01C000
000000
00C000
01C000
03C000
03E000
02E000
06F000
067000
067000
0C7800
0C3800
0FF800
181C00
181C00
101C00
300E00
300E00
FC3F80
ENDCHAR
STARTCHAR 0103
ENCODING 259
SWIDTH 481 0
DWIDTH 13 0
BBX 12 19 1 0
BITMAP
4040
70C0
3FC0
1F80
0F00
0000
0000
1F80
71C0
F1C0
81C0
03C0
3FC0
71C0
E1C0
E1C0
E3F0
FDE0
7980
ENDCHAR
STARTCHAR 0106
ENCODING 262
SWIDTH 555 0
DWIDTH 15 0
BBX 13 23 1 0
BITMAP
0060
00F0
03E0
0700
0400
0000
07F0
1878
3030
7000
6000
6000
E000
E000
E000
E000
E000
F000
7000
7808
3C38
1FE0
0F80
ENDCHAR
STARTCHAR 0107
ENCODING 263
SWIDTH 444 0
DWIDTH 12 0
BBX 11 20 1 0
BITMAP
03C0
03C0
0780
0700
0E00
0800
0000
0000
0FE0
30C0
70C0
6040
E000
E000
E000
E000
F040
78E0
3FC0
1F00
ENDCHAR
STARTCHAR 0108
ENCODING 264
SWIDTH 555 0
DWIDTH 15 0
BBX 13 23 1 0
BITMAP
0380
07C0
0FE0
1C60
1030
0000
07F0
1878
3030
7000
6000
6000
E000
E000
E000
E000
E000
F000
7000
7808
3C38
1FE0
0F80
ENDCHAR
STARTCHAR 0109
ENCODING 265
SWIDTH 444 0
DWIDTH 12 0
BBX 11 20 1 0
BITMAP
0E00
0F00
1F00
3B80
30C0
6040
0000
0000
0FE0
30C0
70C0
6040
E000
E000
E000
E000
F040
78E0
3FC0
1F00
ENDCHAR
STARTCHAR 010A
ENCODING 266
SWIDTH 555 0
DWIDTH 15 0
BBX 13 22 1 0
BITMAP
0380
0780
0780
0300
0000
07F0
1878
3030
7000
6000
6000
E000
E000
E000
E000
E000
F000
7000
7808
3C38
1FE0
0F80
ENDCHAR
STARTCHAR 010B
ENCODING 267
SWIDTH 444 0
DWIDTH 12 0
BBX 11 18 1 0
BITMAP
0E00
0F00
0E00
0E00
0000
0000
0FE0
30C0
70C0
6040
E000
E000
E000
E000
F040
78E0
3FC0
1F00
ENDCHAR
STARTCHAR 010C
ENCODING 268
SWIDTH 555 0
DWIDTH 15 0
BBX 13 23 1 0
BITMAP
1830
0C60
07C0
0780
0380
0000
07F0
1878
3030
7000
6000
6000
E000
E000
E000
E000
E000
F000
7000
7808
3C38
1FE0
0F80
ENDCHAR
STARTCHAR 010D
ENCODING 269
SWIDTH 444 0
DWIDTH 12 0
BBX 11 20 1 0
BITMAP
6040
31C0
3B80
1F00
0F00
0E00
0000
0000
0FE0
30C0
70C0
6040
E000
E000
E000
E000
F040
78E0
3FC0
1F00
ENDCHAR
STARTCHAR 010E
ENCODING 270
SWIDTH 629 0
DWIDTH 17 0
BBX 16 23 0 0
BITMAP
1830
0E60
07E0
03C0
0180
0000
7FE0
F878
383C
381E
381E
380F
380F
380F
380F
380F
380F
380F
381E
381E
383C
3878
FFE0
ENDCHAR
STARTCHAR 0110
ENCODING 272
SWIDTH 629 0
DWIDTH 17 0
BBX 16 17 0 0
BITMAP
3FE0
F878
383C
381E
381E
380F
380F
380F
FF8F
380F
380F
380F
381E
381E
383C
3878
FFE0
ENDCHAR
STARTCHAR 0111
ENCODING 273
SWIDTH 555 0
DWIDTH 15 0
BBX 14 20 1 0
BITMAP
0070
01F0
0070
0070
07FC
0070
0070
0070
0FF0
30F0
6070
6070
E070
E070
E070
F070
F8F0
7FF4
3F78
1E30
ENDCHAR
STARTCHAR 0112
ENCODING 274
SWIDTH 518 0
DWIDTH 14 0
BBX 13 21 1 0
BITMAP
7FF0
7FE0
0000
0000
FFF0
7830
7830
7820
7820
7800
7800
7800
7FC0
7880
7800
7800
7800
7810
7818
7830
FFF0
ENDCHAR
STARTCHAR 0113
ENCODING 275
SWIDTH 481 0
DWIDTH 13 0
BBX 12 18 1 0
BITMAP
7FF0
7FE0
0000
0000
0000
0000
0F00
31C0
70C0
60E0
E0E0
FFC0
E000
E000
F040
78E0
3FC0
1F00
ENDCHAR
STARTCHAR 0114
ENCODING 276
SWIDTH 518 0
DWIDTH 14 0
BBX 13 23 1 0
BITMAP
2060
79C0
3FC0
1F80
0700
0000
FFF0
7830
7830
7820
7820
7800
7800
7800
7FC0
7880
7800
7800
7800
7810
7818
7830
FFF0
ENDCHAR
STARTCHAR 0115
ENCODING 277
SWIDTH 481 0
DWIDTH 13 0
BBX 11 19 1 0
BITMAP
2040
70E0
3FC0
1F80
0F00
0000
0000
0F00
31C0
70C0
60E0
E0E0
FFC0
E000
E000
F040
78E0
3FC0
1F00
ENDCHAR
STARTCHAR 0116
ENCODING 278
SWIDTH 518 0
DWIDTH 14 0
BBX 13 22 1 0
BITMAP
0700
0F00
0F00
0600
0000
FFF0
7830
7830
7820
7820
7800
7800
7800
7FC0
7880
7800
7800
7800
7810
7818
7830
FFF0
ENDCHAR
STARTCHAR 0117
ENCODING 279
SWIDTH 481 0
DWIDTH 13 0
BBX 11 18 1 0
BITMAP
0600
0F00
0F00
0E00
0000
0000
0F00
31C0
70C0
60E0
E0E0
FFC0
E000
E000
F040
78E0
3FC0
1F00
ENDCHAR
STARTCHAR 011A
ENCODING 282
SWIDTH 518 0
DWIDTH 14 0
BBX 13 23 1 0
BITMAP
2040
39E0
1F80
0F00
0600
0000
FFF0
7830
7830
7820
7820
7800
7800
7800
7FC0
7880
7800
7800
7800
7810
7818
7830
FFF0
ENDCHAR
STARTCHAR 011B
ENCODING 283
SWIDTH 481 0
DWIDTH 13 0
BBX 11 20 1 0
BITMAP
2040
30E0
1D80
1F80
0F00
0600
0000
0000
0F00
31C0
70C0
60E0
E0E0
FFC0
E000
E000
F040
78E0
3FC0
1F00
ENDCHAR
STARTCHAR 011C
ENCODING 284
SWIDTH 592 0
DWIDTH 16 0
BBX 14 23 1 0
BITMAP
0380
07C0
0FE0
0C70
1010
0000
03F0
0C78
3030
3000
7000
6000
E000
E000
E000
E0FC
E038
E038
7038
7038
3C38
1FF0
07C0
ENDCHAR
STARTCHAR 011D
ENCODING 285
SWIDTH 518 0
DWIDTH 14 0
BBX 14 26 0 -6
BITMAP
0300
0780
0FC0
0DC0
1860
3020
0000
0000
0F8C
10FC
2070
6030
6030
7030
3860
1F80
1C00
7C00
7FE0
3FF8
7FFC
F03C
E01C
E018
7030
1FC0
ENDCHAR
STARTCHAR 011E
ENCODING 286
SWIDTH 592 0
DWIDTH 16 0
BBX 14 23 1 0
BITMAP
1810
1C70
0FE0
07E0
0380
0000
03F0
0C78
3030
3000
7000
6000
E000
E000
E000
E0FC
E038
E038
7038
7038
3C38
1FF0
07C0
ENDCHAR
STARTCHAR 011F
ENCODING 287
SWIDTH 518 0
DWIDTH 14 0
BBX 14 25 0 -6
BITMAP
1020
3870
1FE0
0FC0
0780
0000
0000
0F8C
10FC
2070
6030
6030
7030
3860
1F80
1C00
7C00
7FE0
3FF8
7FFC
F03C
E01C
E018
7030
1FC0
ENDCHAR
STARTCHAR 0120
ENCODING 288
SWIDTH 592 0
DWIDTH 16 0
BBX 14 22 1 0
BITMAP
0380
0380
0780
0300
0000
03F0
0C78
3030
3000
7000
6000
E000
E000
E000
E0FC
E038
E038
7038
7038
3C38
1FF0
07C0
ENDCHAR
STARTCHAR 0121
ENCODING 289
SWIDTH 518 0
DWIDTH 14 0
BBX 14 24 0 -6
BITMAP
0300
0780
0780
0700
0000
0000
0F8C
10FC
2070
6030
6030
7030
3860
1F80
1C00
7C00
7FE0
3FF8
7FFC
F03C
E01C
E018
7030
1FC0
ENDCHAR
STARTCHAR 0124
ENCODING 292
SWIDTH 666 0
DWIDTH 18 0
BBX 17 23 0 0
BITMAP
00E000
01E000
03F000
071800
040C00
000000
FE3F80
3C1E00
380E00
380E00
380E00
380E00
380E00
380E00
3FFE00
380E00
380E00
380E00
380E00
380E00
380E00
380E00
FE3F80
ENDCHAR
STARTCHAR 0125
ENCODING 293
SWIDTH 592 0
DWIDTH 16 0
BBX 15 27 1 0
BITMAP
0300
0780
0FC0
0FC0
1860
0000
0000
1800
F800
3800
3800
3800
3800
3800
3800
38F0
3BF8
3E38
3838
3838
3838
3838
3838
3838
3838
3838
FEFE
ENDCHAR
STARTCHAR 0128
ENCODING 296
SWIDTH 333 0
DWIDTH 9 0
BBX 10 22 -1 0
BITMAP
3C40
7FC0
7F80
8300
0000
3F80
0E00
0E00
0E00
0E00
0E00
0E00
0E00
0E00
0E00
0E00
0E00
0E00
0E00
0E00
0E00
3F80
ENDCHAR
STARTCHAR 0129
ENCODING 297
SWIDTH 296 0
DWIDTH 8 0
BBX 10 19 -1 0
BITMAP
0040
3CC0
7FC0
4F80
8300
0000
0000
0E00
3E00
0E00
0E00
0E00
0E00
0E00
0E00
0E00
0E00
0E00
3F80
ENDCHAR
STARTCHAR 012A
ENCODING 298
SWIDTH 333 0
DWIDTH 9 0
BBX 9 22 0 0
BITMAP
7F80
FF00
0000
0000
0000
7F00
1C00
1C00
1C00
1C00
1C00
1C00
1C00
1C00
1C00
1C00
1C00
1C00
1C00
1C00
1C00
7F00
ENDCHAR
STARTCHAR 012B
ENCODING 299
SWIDTH 296 0
DWIDTH 8 0
BBX 8 18 0 0
BITMAP
7F
FF
00
00
00
00
1C
7C
1C
1C
1C
1C
1C
1C
1C
1C
1C
7F
ENDCHAR
STARTCHAR 012C
ENCODING 300
SWIDTH 333 0
DWIDTH 9 0
BBX 9 23 0 0
BITMAP
8180
E380
FF00
7E00
1C00
0000
7F00
1C00
1C00
1C00
1C00
1C00
1C00
1C00
1C00
1C00
1C00
1C00
1C00
1C00
1C00
1C00
7F00
ENDCHAR
STARTCHAR 012D
ENCODING 301
SWIDTH 296 0
DWIDTH 8 0
BBX 10 19 -1 0
BITMAP
4080
E1C0
7F80
3F00
1E00
0000
0000
0E00
3E00
0E00
0E00
0E00
0E00
0E00
0E00
0E00
0E00
0E00
3F80
ENDCHAR
STARTCHAR 0130
ENCODING 304
SWIDTH 333 0
DWIDTH 9 0
BBX 7 22 1 0
BITMAP
38
78
78
30
00
FE
38
38
38
38
38
38
38
38
38
38
38
38
38
38
38
FE
ENDCHAR
STARTCHAR 0131
ENCODING 305
SWIDTH 296 0
DWIDTH 8 0
BBX 7 12 1 0
BITMAP
38
F8
38
38
38
38
38
38
38
38
38
FE
ENDCHAR
STARTCHAR 0132
ENCODING 306
SWIDTH 666 0
DWIDTH 18 0
BBX 16 22 1 -5
BITMAP
FEFF
381C
381C
381C
381C
381C
381C
381C
381C
381C
381C
381C
381C
381C
381C
381C
FE1C
0018
0038
0230
0FE0
0780
ENDCHAR
STARTCHAR 0133
ENCODING 307
SWIDTH 592 0
DWIDTH 16 0
BBX 13 24 1 -6
BITMAP
3838
7878
7078
0000
0000
0000
3830
F9F0
3870
3870
3870
3870
3870
3870
3870
3870
3870
FE70
0070
0070
0060
0CE0
1F80
0F00
ENDCHAR
STARTCHAR 0139
ENCODING 313
SWIDTH 518 0
DWIDTH 14 0
BBX 13 23 1 0
BITMAP
0180
03C0
0780
1E00
1000
0000
FE00
3800
3800
3800
3800
3800
3800
3800
3800
3800
3800
3800
3800
3808
3818
3818
FFF0
ENDCHAR
STARTCHAR 013A
ENCODING 314
SWIDTH 296 0
DWIDTH 8 0
BBX 8 27 1 0
BITMAP
0E
1F
3C
70
40
00
00
18
F8
38
38
38
38
38
38
38
38
38
38
38
38
38
38
38
38
38
FE
ENDCHAR
STARTCHAR 0141
ENCODING 321
SWIDTH 518 0
DWIDTH 14 0
BBX 13 17 1 0
BITMAP
FE00
3800
3800
3800
3800
3880
3B80
3F00
3C00
7800
F800
B800
3800
3808
3818
3818
FFF0
ENDCHAR
STARTCHAR 0142
ENCODING 322
SWIDTH 333 0
DWIDTH 9 0
BBX 7 21 1 0
BITMAP
18
F8
38
38
38
38
38
3A
3E
3C
38
78
F8
B8
38
38
38
38
38
38
FE
ENDCHAR
STARTCHAR 0143
ENCODING 323
SWIDTH 666 0
DWIDTH 18 0
BBX 18 23 0 0
BITMAP
003000
007C00
00F000
01C000
030000
000000
F80FC0
7C0300
3C0300
3E0300
3F0300
378300
33C300
33C300
31E300
30F300
307B00
307B00
303F00
301F00
300F00
300700
FC0300
ENDCHAR
STARTCHAR 0144
ENCODING 324
SWIDTH 592 0
DWIDTH 16 0
BBX 15 20 1 0
BITMAP
00E0
01E0
01C0
0380
0300
0600
0000
0000
18F0
FBF8
3E38
3838
3838
3838
3838
3838
3838
3838
3838
FEFE
ENDCHAR
STARTCHAR 0147
ENCODING 327
SWIDTH 666 0
DWIDTH 18 0
BBX 18 23 0 0
BITMAP
040800
0F3800
03F000
01E000
00C000
000000
F80FC0
7C0300
3C0300
3E0300
3F0300
378300
33C300
33C300
31E300
30F300
307B00
307B00
303F00
301F00
300F00
300700
FC0300
ENDCHAR
STARTCHAR 0148
ENCODING 328
SWIDTH 592 0
DWIDTH 16 0
BBX 15 20 1 0
BITMAP
1020
3870
0DC0
0FC0
0780
0300
0000
0000
18F0
FBF8
3E38
3838
3838
3838
3838
3838
3838
3838
3838
FEFE
ENDCHAR
STARTCHAR 014A
ENCODING 330
SWIDTH 666 0
DWIDTH 18 0
BBX 15 22 1 -5
BITMAP
1878
F9FC
3BFE
3F0E
3E0E
3C0E
380E
380E
380E
380E
380E
380E
380E
380E
380E
380E
FE0E
000C
041C
0F18
0FF0
07C0
ENDCHAR
STARTCHAR 014B
ENCODING 331
SWIDTH 555 0
DWIDTH 15 0
BBX 13 18 1 -6
BITMAP
18F0
FBF8
3E38
3838
3838
3838
3838
3838
3838
3838
3838
FE38
0038
0038
0830
1C60
3FC0
0F80
ENDCHAR
STARTCHAR 014C
ENCODING 332
SWIDTH 629 0
DWIDTH 17 0
BBX 15 21 1 0
BITMAP
3FF8
3FF8
0000
0000
07C0
1870
3038
301C
601C
600E
E00E
E00E
E00E
E00E
E00E
E00C
701C
7018
3818
1C20
07C0
ENDCHAR
STARTCHAR 014D
ENCODING 333
SWIDTH 518 0
DWIDTH 14 0
BBX 12 18 1 0
BITMAP
7FF0
7FF0
0000
0000
0000
0000
0F80
31C0
70E0
6070
E070
E070
E070
E070
E060
7060
38C0
1F00
ENDCHAR
STARTCHAR 014E
ENCODING 334
SWIDTH 629 0
DWIDTH 17 0
BBX 15 23 1 0
BITMAP
1030
1C70
0FE0
0FC0
0380
0000
07C0
1870
3038
301C
601C
600E
E00E
E00E
E00E
E00E
E00E
E00C
701C
7018
3818
1C20
07C0
ENDCHAR
STARTCHAR 014F
ENCODING 335
SWIDTH 518 0
DWIDTH 14 0
BBX 12 19 1 0
BITMAP
2020
30E0
3FC0
1FC0
0F00
0000
0000
0F80
31C0
70E0
6070
E070
E070
E070
E070
E060
7060
38C0
1F00
ENDCHAR
STARTCHAR 0150
ENCODING 336
SWIDTH 629 0
DWIDTH 17 0
BBX 15 24 1 0
BITMAP
03B8
0338
0770
0660
0C40
08C0
0000
07C0
1870
3038
301C
601C
600E
E00E
E00E
E00E
E00E
E00E
E00C
701C
7018
3818
1C20
07C0
ENDCHAR
STARTCHAR 0151
ENCODING 337
SWIDTH 518 0
DWIDTH 14 0
BBX 12 20 1 0
BITMAP
0670
0770
0EE0
0CC0
18C0
1980
0000
0000
0F80
31C0
70E0
6070
E070
E070
E070
E070
E060
7060
38C0
1F00
ENDCHAR
STARTCHAR 0152
ENCODING 338
SWIDTH 851 0
DWIDTH 23 0
BBX 21 17 1 0
BITMAP
07FFF0
187FE0
303860
703820
603820
603800
E03800
E03800
E03FE0
E03840
E03800
F03800
703800
783808
3C7818
1FF838
0FFFF0
ENDCHAR
STARTCHAR 0153
ENCODING 339
SWIDTH 777 0
DWIDTH 21 0
BBX 20 12 1 0
BITMAP
0F0F80
31D8C0
70F840
607060
E07060
E07FC0
E07000
E07000
E07820
70FC70
38DFE0
1F0F80
ENDCHAR
STARTCHAR 0154
ENCODING 340
SWIDTH 592 0
DWIDTH 16 0
BBX 16 23 0 0
BITMAP
0060
00F0
03E0
0700
0400
0000
3FC0
F870
3838
3838
3838
3838
3870
3FF0
3FC0
39C0
38E0
38E0
3870
3878
383C
383F
FE1E
ENDCHAR
STARTCHAR 0155
ENCODING 341
SWIDTH 444 0
DWIDTH 12 0
BBX 11 20 1 0
BITMAP
03C0
03C0
0780
0600
0C00
0800
0000
0000
31E0
F7E0
7CC0
7840
7840
7800
7800
7800
7800
7800
7800
FE00
ENDCHAR
STARTCHAR 0158
ENCODING 344
SWIDTH 592 0
DWIDTH 16 0
BBX 16 23 0 0
BITMAP
1830
0C60
07C0
0780
0380
0000
3FC0
F870
3838
3838
3838
3838
3870
3FF0
3FC0
39C0
38E0
38E0
3870
3878
383C
383F
FE1E
ENDCHAR
STARTCHAR 0159
ENCODING 345
SWIDTH 444 0
DWIDTH 12 0
BBX 11 20 1 0
BITMAP
6040
31C0
3B80
1F00
0F00
0E00
0000
0000
31E0
F7E0
7CC0
7840
7840
7800
7800
7800
7800
7800
7800
FE00
ENDCHAR
STARTCHAR 015A
ENCODING 346
SWIDTH 518 0
DWIDTH 14 0
BBX 12 23 1 0
BITMAP
01C0
03E0
0780
0E00
1800
0000
0FF0
30F0
4020
C000
E000
F800
7E00
3F80
1FC0
07E0
00F0
0070
0030
C030
C020
F040
FF80
ENDCHAR
STARTCHAR 015B
ENCODING 347
SWIDTH 407 0
DWIDTH 11 0
BBX 9 20 1 0
BITMAP
0780
0780
0F00
0C00
1800
1000
0000
0000
3E00
4700
C200
E000
F800
7E00
3F00
0F80
8380
C180
E100
FE00
ENDCHAR
STARTCHAR 015C
ENCODING 348
SWIDTH 518 0
DWIDTH 14 0
BBX 12 23 1 0
BITMAP
0600
0F00
1F80
38C0
2060
0000
0FF0
30F0
4020
C000
E000
F800
7E00
3F80
1FC0
07E0
00F0
0070
0030
C030
C020
F040
FF80
ENDCHAR
STARTCHAR 015D
ENCODING 349
SWIDTH 407 0
DWIDTH 11 0
BBX 9 20 1 0
BITMAP
1C00
1E00
3E00
7700
6380
C080
0000
0000
3E00
4700
C200
E000
F800
7E00
3F00
0F80
8380
C180
E100
FE00
ENDCHAR
STARTCHAR 0160
ENCODING 352
SWIDTH 518 0
DWIDTH 14 0
BBX 12 23 1 0
BITMAP
2040
39E0
1F80
0F00
0600
0000
0FF0
30F0
4020
C000
E000
F800
7E00
3F80
1FC0
07E0
00F0
0070
0030
C030
C020
F040
FF80
ENDCHAR
STARTCHAR 0161
ENCODING 353
SWIDTH 407 0
DWIDTH 11 0
BBX 9 20 1 0
BITMAP
C080
6380
7700
3E00
1E00
1C00
0000
0000
3E00
4700
C200
E000
F800
7E00
3F00
0F80
8380
C180
E100
FE00
ENDCHAR
STARTCHAR 0164
ENCODING 356
SWIDTH 592 0
DWIDTH 16 0
BBX 15 23 0 0
BITMAP
1830
0C60
07C0
03C0
0380
0000
FFFE
C386
C386
8386
8384
0380
0380
0380
0380
0380
0380
0380
0380
0380
0380
07C0
0FE0
ENDCHAR
STARTCHAR 0168
ENCODING 360
SWIDTH 666 0
DWIDTH 18 0
BBX 17 22 0 0
BITMAP
03CC00
07FC00
0FF800
087000
000000
FE1F80
380600
380600
380600
380600
380600
380600
380600
380600
380600
380600
380600
380600
380400
1C0C00
0E1800
03E000
ENDCHAR
STARTCHAR 0169
ENCODING 361
SWIDTH 555 0
DWIDTH 15 0
BBX 15 19 0 0
BITMAP
0008
0710
0FF0
11E0
30E0
0000
0000
3838
F8F8
3838
3838
3838
3838
3838
3838
3838
38FA
3FBE
1E38
ENDCHAR
STARTCHAR 016A
ENCODING 362
SWIDTH 666 0
DWIDTH 18 0
BBX 17 21 0 0
BITMAP
0FFE00
0FFC00
000000
000000
FE1F80
380600
380600
380600
380600
380600
380600
380600
380600
380600
380600
380600
380600
380400
1C0C00
0E1800
03E000
ENDCHAR
STARTCHAR 016B
ENCODING 363
SWIDTH 555 0
DWIDTH 15 0
BBX 15 18 0 0
BITMAP
1FF8
3FF8
0000
0000
0000
0000
3838
F8F8
3838
3838
3838
3838
3838
3838
3838
38FA
3FBE
1E38
ENDCHAR
STARTCHAR 016C
ENCODING 364
SWIDTH 666 0
DWIDTH 18 0
BBX 17 23 0 0
BITMAP
040C00
0F3800
07F800
03F000
00E000
000000
FE1F80
380600
380600
380600
380600
380600
380600
380600
380600
380600
380600
380600
380600
380400
1C0C00
0E1800
03E000
ENDCHAR
STARTCHAR 016D
ENCODING 365
SWIDTH 555 0
DWIDTH 15 0
BBX 15 19 0 0
BITMAP
1010
1C30
0FF0
0FE0
03C0
0000
0000
3838
F8F8
3838
3838
3838
3838
3838
3838
3838
38FA
3FBE
1E38
ENDCHAR
STARTCHAR 016E
ENCODING 366
SWIDTH 666 0
DWIDTH 18 0
BBX 17 23 0 0
BITMAP
01E000
033000
033000
036000
01C000
000000
FE1F80
380600
380600
380600
380600
380600
380600
380600
380600
380600
380600
380600
380600
380400
1C0C00
0E1800
03E000
ENDCHAR
STARTCHAR 016F
ENCODING 367
SWIDTH 555 0
DWIDTH 15 0
BBX 15 19 0 0
BITMAP
03C0
06C0
0CC0
0EC0
0780
0000
0000
3838
F8F8
3838
3838
3838
3838
3838
3838
3838
38FA
3FBE
1E38
ENDCHAR
STARTCHAR 0170
ENCODING 368
SWIDTH 666 0
DWIDTH 18 0
BBX 17 24 0 0
BITMAP
00CE00
01FC00
019C00
039800
033000
022000
000000
FE1F80
380600
380600
380600
380600
380600
380600
380600
380600
380600
380600
380600
380600
380400
1C0C00
0E1800
03E000
ENDCHAR
STARTCHAR 0171
ENCODING 369
SWIDTH 555 0
DWIDTH 15 0
BBX 15 20 0 0
BITMAP
03B8
03B8
0730
0660
0660
0C40
0000
0000
3838
F8F8
3838
3838
3838
3838
3838
3838
3838
38FA
3FBE
1E38
ENDCHAR
STARTCHAR 0174
ENCODING 372
SWIDTH 851 0
DWIDTH 23 0
BBX 23 23 0 0
BITMAP
003800
007C00
00FE00
01C700
010100
000000
FE187E
381818
383818
383C10
1C3C30
1C6E30
1C6E30
1C6E30
0EC760
0EC760
0E8760
0F83E0
0F83E0
0701C0
0701C0
0701C0
060080
ENDCHAR
STARTCHAR 0175
ENCODING 373
SWIDTH 703 0
DWIDTH 19 0
BBX 19 20 0 0
BITMAP
006000
00F000
01F800
019800
030C00
060600
000000
000000
FC21E0
7860C0
3870C0
38F180
1CF980
1CB980
1D9F00
0F1F00
0F1F00
0F0E00
060E00
040400
ENDCHAR
STARTCHAR 0176
ENCODING 374
SWIDTH 629 0
DWIDTH 17 0
BBX 16 23 0 0
BITMAP
01C0
03E0
07E0
0E30
0818
0000
F81F
3C0E
1C0C
0E18
0F18
0730
0730
03E0
03E0
01C0
01C0
01C0
01C0
01C0
01C0
01C0
07F0
ENDCHAR
STARTCHAR 0177
ENCODING 375
SWIDTH 518 0
DWIDTH 14 0
BBX 15 26 -1 -6
BITMAP
0180
03C0
07E0
0770
0C30
0818
0000
0000
7E3E
3C18
1C18
1E10
0E30
0F30
0760
0760
03C0
03C0
03C0
0180
0180
0300
0300
7E00
7C00
F800
ENDCHAR
STARTCHAR 0178
ENCODING 376
SWIDTH 629 0
DWIDTH 17 0
BBX 16 22 0 0
BITMAP
0738
0F78
0F78
0630
0000
F81F
3C0E
1C0C
0E18
0F18
0730
0730
03E0
03E0
01C0
01C0
01C0
01C0
01C0
01C0
01C0
07F0
ENDCHAR
STARTCHAR 0179
ENCODING 377
SWIDTH 555 0
DWIDTH 15 0
BBX 13 23 1 0
BITMAP
00C0
01E0
03C0
0700
0C00
0000
7FF8
60F0
40F0
C1E0
01C0
03C0
0780
0780
0F00
0F00
1E00
3C00
3C00
7818
7818
F018
FFF8
ENDCHAR
STARTCHAR 017A
ENCODING 378
SWIDTH 481 0
DWIDTH 13 0
BBX 11 20 1 0
BITMAP
03C0
03C0
0780
0700
0C00
0800
0000
0000
7FE0
43C0
43C0
8780
0F00
0F00
1E00
3C00
3820
7860
F060
FFE0
ENDCHAR
STARTCHAR 017B
ENCODING 379
SWIDTH 555 0
DWIDTH 15 0
BBX 13 22 1 0
BITMAP
0700
0700
0F00
0600
0000
7FF8
60F0
40F0
C1E0
01C0
03C0
0780
0780
0F00
0F00
1E00
3C00
3C00
7818
7818
F018
FFF8
ENDCHAR
STARTCHAR 017C
ENCODING 380
SWIDTH 481 0
DWIDTH 13 0
BBX 11 18 1 0
BITMAP
0E00
0E00
1E00
0E00
0000
0000
7FE0
43C0
43C0
8780
0F00
0F00
1E00
3C00
3820
7860
F060
FFE0
ENDCHAR
STARTCHAR 017D
ENCODING 381
SWIDTH 555 0
DWIDTH 15 0
BBX 13 23 1 0
BITMAP
3060
1CC0
0F80
0780
0700
0000
7FF8
60F0
40F0
C1E0
01C0
03C0
0780
0780
0F00
0F00
1E00
3C00
3C00
7818
7818
F018
FFF8
ENDCHAR
STARTCHAR 017E
ENCODING 382
SWIDTH 481 0
DWIDTH 13 0
BBX 11 20 1 0
BITMAP
6040
31C0
3B80
1F00
0F00
0E00
0000
0000
7FE0
43C0
43C0
8780
0F00
0F00
1E00
3C00
3820
7860
F060
FFE0
ENDCHAR
STARTCHAR 0181
ENCODING 385
SWIDTH 703 0
DWIDTH 19 0
BBX 18 17 0 0
BITMAP
0FFC00
3F8700
F38380
E38380
E38380
F38300
438F00
03FE00
038780
038380
0381C0
0381C0
0381C0
0381C0
038380
038700
0FFE00
ENDCHAR
STARTCHAR 0186
ENCODING 390
SWIDTH 555 0
DWIDTH 15 0
BBX 13 17 1 0
BITMAP
3F80
E1C0
80E0
0070
0070
0038
0038
0038
0038
0038
1038
7030
E030
E070
E060
F0C0
3F00
ENDCHAR
STARTCHAR 0189
ENCODING 393
SWIDTH 629 0
DWIDTH 17 0
BBX 16 17 0 0
BITMAP
3FE0
F878
383C
381E
381E
380F
380F
380F
FF8F
380F
380F
380F
381E
381E
383C
3878
FFE0
ENDCHAR
STARTCHAR 018A
ENCODING 394
SWIDTH 777 0
DWIDTH 21 0
BBX 20 17 0 0
BITMAP
0FFE00
3F8F80
7383C0
E381E0
E381E0
F380F0
4380F0
0380F0
0380F0
0380F0
0380F0
0380F0
0381E0
0381E0
0383C0
038780
0FFE00
ENDCHAR
STARTCHAR 018E
ENCODING 398
SWIDTH 518 0
DWIDTH 14 0
BBX 13 17 1 0
BITMAP
7FF8
61E0
41E0
01E0
01E0
01E0
01E0
21E0
3FE0
01E0
01E0
01E0
01E0
C1E0
C1E0
C1E0
FFF8
ENDCHAR
STARTCHAR 0190
ENCODING 400
SWIDTH 518 0
DWIDTH 14 0
BBX 12 17 1 0
BITMAP
0FE0
30F0
2060
6000
6000
6000
7000
7800
3F00
3800
7000
E000
E000
E010
F070
7FE0
1F80
ENDCHAR
STARTCHAR 0192
ENCODING 402
SWIDTH 333 0
DWIDTH 9 0
BBX 15 25 -4 -6
BITMAP
003E
00CC
0188
0180
0380
0380
0380
0FF8
0380
0380
0380
0380
0380
0380
0380
0380
0380
0380
0380
0380
0380
0300
6600
FC00
7800
ENDCHAR
STARTCHAR 0197
ENCODING 407
SWIDTH 333 0
DWIDTH 9 0
BBX 7 17 1 0
BITMAP
FE
7C
38
38
38
38
38
38
FE
38
38
38
38
38
38
38
FE
ENDCHAR
STARTCHAR 0198
ENCODING 408
SWIDTH 629 0
DWIDTH 17 0
BBX 16 17 0 0
BITMAP
FE0E
383F
3833
3863
38C3
3986
3B80
3B00
3F00
3B80
39C0
39E0
38F0
3878
383C
381F
FE0E
ENDCHAR
STARTCHAR 0199
ENCODING 409
SWIDTH 555 0
DWIDTH 15 0
BBX 14 19 0 0
BITMAP
01F0
0678
0C30
1800
3800
3800
3800
38FC
3870
38E0
3980
3B00
3F00
3B80
39C0
39E0
38F0
3878
FC3C
ENDCHAR
STARTCHAR 019A
ENCODING 410
SWIDTH 333 0
DWIDTH 9 0
BBX 7 20 1 0
BITMAP
18
F8
38
38
38
38
38
38
38
FE
38
38
38
38
38
38
38
38
38
FE
ENDCHAR
STARTCHAR 019D
ENCODING 413
SWIDTH 666 0
DWIDTH 18 0
BBX 23 22 -5 -5
BITMAP
07C07E
03E018
01E018
01F018
01F818
01BC18
019E18
019E18
018F18
018798
0183D8
0183D8
0181F8
0180F8
018078
018038
018018
018000
010000
230000
7E0000
FC0000
ENDCHAR
STARTCHAR 019F
ENCODING 415
SWIDTH 629 0
DWIDTH 17 0
BBX 15 17 1 0
BITMAP
07C0
1870
3038
301C
701C
600E
E00E
E00E
FFFE
E00E
E00E
E00C
701C
7018
3818
1C20
07C0
ENDCHAR
STARTCHAR 01A0
ENCODING 416
SWIDTH 629 0
DWIDTH 17 0
BBX 16 20 1 0
BITMAP
0002
000F
0007
07E6
087C
3038
301C
601C
600E
E00E
E00E
E00E
E00E
E00E
E00C
701C
7018
3818
1C20
07C0
ENDCHAR
STARTCHAR 01A1
ENCODING 417
SWIDTH 592 0
DWIDTH 16 0
BBX 14 16 1 0
BITMAP
000C
001C
003C
0018
0F98
31E0
70E0
6070
E070
E070
E070
E070
E060
7060
38C0
1F00
ENDCHAR
STARTCHAR 01A9
ENCODING 425
SWIDTH 555 0
DWIDTH 15 0
BBX 13 17 1 0
BITMAP
FFF0
F030
7810
3C10
3C00
1E00
0E00
0F00
0600
0C00
0C00
1808
3018
3018
7FF8
FFF8
FFF8
ENDCHAR
STARTCHAR 01AA
ENCODING 426
SWIDTH 370 0
DWIDTH 10 0
BBX 13 26 1 -6
BITMAP
3C00
4E00
C700
C700
FF00
7700
0700
0700
0700
0700
0700
0700
0F00
0E00
0E00
0E00
0E00
0E00
0E00
0E00
0E00
0E00
0E18
0E38
0738
03E0
ENDCHAR
STARTCHAR 01AF
ENCODING 431
SWIDTH 740 0
DWIDTH 20 0
BBX 20 20 0 0
BITMAP
000030
0000F0
000070
FE0FF0
3803C0
380380
380300
380300
380300
380300
380300
380300
380300
380300
380300
380300
180200
1C0600
0E0C00
03F000
ENDCHAR
STARTCHAR 01B0
ENCODING 432
SWIDTH 666 0
DWIDTH 18 0
BBX 18 16 0 0
BITMAP
0000C0
0003C0
0001C0
083980
F8FB00
383E00
383800
383800
383800
383800
383800
383800
383800
38FA00
3FBC00
1F3800
ENDCHAR
STARTCHAR 01B3
ENCODING 435
SWIDTH 703 0
DWIDTH 19 0
BBX 18 18 0 0
BITMAP
000380
F807C0
3C0CC0
1C1CC0
0E18C0
0F1980
073000
073000
03E000
03E000
01C000
01C000
01C000
01C000
01C000
01C000
01C000
07F000
ENDCHAR
STARTCHAR 01B4
ENCODING 436
SWIDTH 518 0
DWIDTH 14 0
BBX 20 24 -1 -6
BITMAP
0001F0
0003F0
0007E0
000640
000C00
000C00
7E1800
3C1800
1C1800
1E3000
0E3000
0F2000
076000
076000
03C000
03C000
038000
018000
018000
030000
470000
7E0000
FC0000
780000
ENDCHAR
STARTCHAR 01B7
ENCODING 439
SWIDTH 555 0
DWIDTH 15 0
BBX 11 17 2 0
BITMAP
FFC0
C1E0
C3C0
8780
0700
0F00
1E00
1F80
31C0
00E0
0060
0060
0060
4060
C0C0
F080
7F00
ENDCHAR
STARTCHAR 01CD
ENCODING 461
SWIDTH 629 0
DWIDTH 17 0
BBX 17 23 0 0
BITMAP
0C1800
063000
03E000
03C000
01C000
000000
00C000
01C000
03C000
03E000
02E000
06F000
067000
067000
0C7800
0C3800
0FF800
181C00
181C00
101C00
300E00
300E00
FC3F80
ENDCHAR
STARTCHAR 01CE
ENCODING 462
SWIDTH 481 0
DWIDTH 13 0
BBX 12 20 1 0
BITMAP
2040
71C0
3B80
1F00
0F00
0E00
0000
0000
1F80
71C0
F1C0
81C0
03C0
3FC0
71C0
E1C0
E1C0
E3F0
FDE0
7980
ENDCHAR
STARTCHAR 01CF
ENCODING 463
SWIDTH 333 0
DWIDTH 9 0
BBX 9 23 0 0
BITMAP
C180
6700
7E00
3C00
1800
0000
7F00
1C00
1C00
1C00
1C00
1C00
1C00
1C00
1C00
1C00
1C00
1C00
1C00
1C00
1C00
1C00
7F00
ENDCHAR
STARTCHAR 01D0
ENCODING 464
SWIDTH 296 0
DWIDTH 8 0
BBX 9 20 0 0
BITMAP
8100
C380
7700
7E00
3C00
1800
0000
0000
1C00
7C00
1C00
1C00
1C00
1C00
1C00
1C00
1C00
1C00
1C00
7F00
ENDCHAR
STARTCHAR 01D1
ENCODING 465
SWIDTH 629 0
DWIDTH 17 0
BBX 15 24 1 0
BITMAP
1830
1C60
0EE0
07C0
0380
0300
0000
07C0
1870
3038
301C
601C
600E
E00E
E00E
E00E
E00E
E00E
E00C
701C
7018
3818
1C20
07C0
ENDCHAR
STARTCHAR 01D2
ENCODING 466
SWIDTH 518 0
DWIDTH 14 0
BBX 12 20 1 0
BITMAP
2060
38C0
1DC0
0F80
0F00
0700
0000
0000
0F80
31C0
70E0
6070
E070
E070
E070
E070
E060
7060
38C0
1F00
ENDCHAR
STARTCHAR 01D3
ENCODING 467
SWIDTH 666 0
DWIDTH 18 0
BBX 17 23 0 0
BITMAP
060C00
073800
03F000
01E000
00C000
000000
FE1F80
380600
380600
380600
380600
380600
380600
380600
380600
380600
380600
380600
380600
380400
1C0C00
0E1800
03E000
ENDCHAR
STARTCHAR 01D4
ENCODING 468
SWIDTH 555 0
DWIDTH 15 0
BBX 15 20 0 0
BITMAP
1010
1C70
0EE0
07C0
03C0
0380
0000
0000
3838
F8F8
3838
3838
3838
3838
3838
3838
3838
38FA
3FBE
1E38
ENDCHAR
STARTCHAR 01D5
ENCODING 469
SWIDTH 666 0
DWIDTH 18 0
BBX 17 26 0 0
BITMAP
0FFE00
0FFE00
000000
000000
039C00
07BC00
07BC00
031800
000000
FE1F80
380600
380600
380600
380600
380600
380600
380600
380600
380600
380600
380600
380600
380400
1C0C00
0E1800
03E000
ENDCHAR
STARTCHAR 01D6
ENCODING 470
SWIDTH 555 0
DWIDTH 15 0
BBX 15 23 0 0
BITMAP
1FF8
3FF8
0000
0000
0000
0E70
0E70
1EF0
0E70
0000
0000
3838
F8F8
3838
3838
3838
3838
3838
3838
3838
38FA
3FBE
1E38
ENDCHAR
STARTCHAR 01D7
ENCODING 471
SWIDTH 666 0
DWIDTH 18 0
BBX 17 28 0 0
BITMAP
002000
003800
007C00
00F000
018000
020000
039C00
07BC00
07BC00
031800
000000
FE1F80
380600
380600
380600
380600
380600
380600
380600
380600
380600
380600
380600
380600
380400
1C0C00
0E1800
03E000
ENDCHAR
STARTCHAR 01D8
ENCODING 472
SWIDTH 555 0
DWIDTH 15 0
BBX 15 25 0 0
BITMAP
00E0
00F0
01E0
01C0
0380
0200
0000
0E70
0E70
1EF0
0E70
0000
0000
3838
F8F8
3838
3838
3838
3838
3838
3838
3838
38FA
3FBE
1E38
ENDCHAR
STARTCHAR 01D9
ENCODING 473
SWIDTH 666 0
DWIDTH 18 0
BBX 17 28 0 0
BITMAP
040800
061C00
03B800
01F000
01E000
000000
039C00
07BC00
07BC00
031800
000000
FE1F80
380600
380600
380600
380600
380600
380600
380600
380600
380600
380600
380600
380600
380400
1C0C00
0E1800
03E000
ENDCHAR
STARTCHAR 01DA
ENCODING 474
SWIDTH 555 0
DWIDTH 15 0
BBX 15 25 0 0
BITMAP
1010
1C70
0EE0
07C0
07C0
0380
0000
0E70
0E70
1EF0
0E70
0000
0000
3838
F8F8
3838
3838
3838
3838
3838
3838
3838
38FA
3FBE
1E38
ENDCHAR
STARTCHAR 01DB
ENCODING 475
SWIDTH 666 0
DWIDTH 18 0
BBX 17 28 0 0
BITMAP
020000
070000
078000
01C000
006000
001000
039C00
07BC00
07BC00
031800
000000
FE1F80
380600
380600
380600
380600
380600
380600
380600
380600
380600
380600
380600
380600
380400
1C0C00
0E1800
03E000
ENDCHAR
STARTCHAR 01DC
ENCODING 476
SWIDTH 555 0
DWIDTH 15 0
BBX 15 25 0 0
BITMAP
0600
0F00
0700
0380
0180
00C0
0000
0E70
0E70
1EF0
0E70
0000
0000
3838
F8F8
3838
3838
3838
3838
3838
3838
3838
38FA
3FBE
1E38
ENDCHAR
STARTCHAR 01DD
ENCODING 477
SWIDTH 481 0
DWIDTH 13 0
BBX 11 12 1 0
BITMAP
1F00
7F80
C3C0
81E0
00E0
00E0
7FE0
E0E0
E0C0
E0C0
7180
3E00
ENDCHAR
STARTCHAR 01DE
ENCODING 478
SWIDTH 629 0
DWIDTH 17 0
BBX 17 26 0 0
BITMAP
0FFC00
1FFC00
000000
000000
073800
0F7800
0F7800
063000
000000
00C000
01C000
03C000
03E000
02E000
06F000
067000
067000
0C7800
0C3800
0FF800
181C00
181C00
101C00
300E00
300E00
FC3F80
ENDCHAR
STARTCHAR 01DF
ENCODING 479
SWIDTH 481 0
DWIDTH 13 0
BBX 12 23 1 0
BITMAP
7FF0
FFE0
0000
0000
0000
39C0
3DE0
39C0
39C0
0000
0000
1F80
71C0
F1C0
81C0
03C0
3FC0
71C0
E1C0
E1C0
E3F0
FDE0
7980
ENDCHAR
STARTCHAR 01E0
ENCODING 480
SWIDTH 629 0
DWIDTH 17 0
BBX 17 25 0 0
BITMAP
1FFC00
1FF800
000000
01C000
03C000
03C000
018000
000000
00C000
01C000
03C000
03E000
02E000
06F000
067000
067000
0C7800
0C3800
0FF800
181C00
181C00
101C00
300E00
300E00
FC3F80
ENDCHAR
STARTCHAR 01E1
ENCODING 481
SWIDTH 481 0
DWIDTH 13 0
BBX 12 23 1 0
BITMAP
7FE0
FFF0
0000
0000
0000
0E00
0F00
0E00
0E00
0000
0000
1F80
71C0
F1C0
81C0
03C0
3FC0
71C0
E1C0
E1C0
E3F0
FDE0
7980
ENDCHAR
STARTCHAR 01E2
ENCODING 482
SWIDTH 814 0
DWIDTH 22 0
BBX 21 21 0 0
BITMAP
00FFE0
01FFC0
000000
000000
07FFF0
01F830
01F830
03B830
03B830
033800
073800
063800
07FFE0
0C3840
0C3800
1C3800
183800
183808
303818
303818
F8FFF8
ENDCHAR
STARTCHAR 01E3
ENCODING 483
SWIDTH 740 0
DWIDTH 20 0
BBX 18 18 1 0
BITMAP
0FFE00
0FFE00
000000
000000
000000
000000
079E00
1FE300
38E180
70C180
40C180
0FFF00
38C000
60C000
E0E080
E3F1C0
FE7F00
7C3E00
ENDCHAR
STARTCHAR 01E6
ENCODING 486
SWIDTH 592 0
DWIDTH 16 0
BBX 14 23 1 0
BITMAP
1830
0E60
07E0
03C0
0180
0000
03F0
0C78
3030
3000
7000
6000
E000
E000
E000
E0FC
E038
E038
7038
7038
3C38
1FF0
07C0
ENDCHAR
STARTCHAR 01E7
ENCODING 487
SWIDTH 518 0
DWIDTH 14 0
BBX 14 26 0 -6
BITMAP
1020
3860
0DC0
0FC0
0780
0300
0000
0000
0F8C
10FC
2070
6030
6030
7030
3860
1F80
1C00
7C00
7FE0
3FF8
7FFC
F03C
E01C
E018
7030
1FC0
ENDCHAR
STARTCHAR 01E8
ENCODING 488
SWIDTH 629 0
DWIDTH 17 0
BBX 16 23 1 0
BITMAP
1830
0CE0
0FC0
0780
0300
0000
FE7E
3838
3830
3870
38E0
39C0
3B80
3F00
3F00
3B80
39C0
39E0
38F0
3878
383C
381F
FE1E
ENDCHAR
STARTCHAR 01E9
ENCODING 489
SWIDTH 555 0
DWIDTH 15 0
BBX 14 27 1 0
BITMAP
2020
3860
1CC0
0F80
0780
0000
0000
1800
F800
3800
3800
3800
3800
3800
3800
38FC
3870
38E0
3980
3B00
3F00
3B80
39C0
38E0
38F0
3878
FC3C
ENDCHAR
STARTCHAR 01EE
ENCODING 494
SWIDTH 555 0
DWIDTH 15 0
BBX 11 24 2 0
BITMAP
60C0
7180
3B80
1F00
1E00
0C00
0000
FFC0
C1E0
C3C0
8780
0700
0F00
1E00
1F80
31C0
00E0
0060
0060
0060
4060
C0C0
F080
7F00
ENDCHAR
STARTCHAR 01EF
ENCODING 495
SWIDTH 481 0
DWIDTH 13 0
BBX 12 25 0 -6
BITMAP
2040
38E0
1F80
0F00
0700
0000
0000
7FF0
60E0
41C0
4380
0780
0F00
1E00
1F80
21E0
00E0
0070
0070
0070
0070
2060
7060
F8C0
3F00
ENDCHAR
STARTCHAR 01F4
ENCODING 500
SWIDTH 592 0
DWIDTH 16 0
BBX 14 23 1 0
BITMAP
0060
00F0
01E0
0380
0600
0000
03F0
0C78
3030
3000
7000
6000
E000
E000
E000
E0FC
E038
E038
7038
7038
3C38
1FF0
07C0
ENDCHAR
STARTCHAR 01F5
ENCODING 501
SWIDTH 518 0
DWIDTH 14 0
BBX 14 26 0 -6
BITMAP
01E0
01E0
03C0
0380
0700
0600
0000
0000
0F8C
10FC
2070
6030
6030
7030
3860
1F80
1C00
7C00
7FE0
3FF8
7FFC
F03C
E01C
E018
7030
1FC0
ENDCHAR
STARTCHAR 01F8
ENCODING 504
SWIDTH 666 0
DWIDTH 18 0
BBX 18 23 0 0
BITMAP
070000
0F8000
03C000
00E000
003000
000000
F80FC0
7C0300
3C0300
3E0300
3F0300
378300
33C300
33C300
31E300
30F300
307B00
307B00
303F00
301F00
300F00
300700
FC0300
ENDCHAR
STARTCHAR 01F9
ENCODING 505
SWIDTH 592 0
DWIDTH 16 0
BBX 15 20 1 0
BITMAP
1E00
1E00
0F00
0700
0380
0180
0000
0000
18F0
FBF8
3E38
3838
3838
3838
3838
3838
3838
3838
3838
FEFE
ENDCHAR
STARTCHAR 01FA
ENCODING 506
SWIDTH 629 0
DWIDTH 17 0
BBX 17 29 0 0
BITMAP
002000
007800
00F000
03C000
030000
000000
03E000
066000
066000
076000
038000
000000
00C000
01C000
03C000
03E000
02E000
06F000
067000
067000
0C7800
0C3800
0FF800
181C00
181C00
101C00
300E00
300E00
FC3F80
ENDCHAR
STARTCHAR 01FB
ENCODING 507
SWIDTH 481 0
DWIDTH 13 0
BBX 12 26 1 0
BITMAP
0380
03C0
0780
0700
0E00
0C00
0000
0F00
1B00
1980
1B00
1E00
0000
0000
1F80
71C0
F1C0
81C0
03C0
3FC0
71C0
E1C0
E1C0
E3F0
FDE0
7980
ENDCHAR
STARTCHAR 01FC
ENCODING 508
SWIDTH 814 0
DWIDTH 22 0
BBX 21 23 0 0
BITMAP
000300
000780
000F00
001C00
003000
000000
07FFF0
01F830
01F830
03B830
03B830
033800
073800
063800
07FFE0
0C3840
0C3800
1C3800
183800
183808
303818
303818
F8FFF8
ENDCHAR
STARTCHAR 01FD
ENCODING 509
SWIDTH 740 0
DWIDTH 20 0
BBX 18 20 1 0
BITMAP
003800
007C00
007000
00E000
00C000
018000
000000
000000
079E00
1FE300
38E180
70C180
40C180
0FFF00
38C000
60C000
E0E080
E3F1C0
FE7F00
7C3E00
ENDCHAR
STARTCHAR 01FE
ENCODING 510
SWIDTH 629 0
DWIDTH 17 0
BBX 15 24 1 -1
BITMAP
0060
01F0
03C0
0700
0400
0000
07EE
087C
3838
303C
707C
60FE
E0EE
E1CE
E38E
E30E
E70E
FE0C
7C1C
7C18
3830
7C20
EFC0
8000
ENDCHAR
STARTCHAR 01FF
ENCODING 511
SWIDTH 518 0
DWIDTH 14 0
BBX 12 21 1 -1
BITMAP
01C0
03C0
0380
0700
0600
0C00
0000
0010
0FB0
31E0
70E0
61F0
E370
E670
E670
EC70
F860
70E0
78C0
5F00
8000
ENDCHAR
STARTCHAR 021E
ENCODING 542
SWIDTH 666 0
DWIDTH 18 0
BBX 17 23 0 0
BITMAP
040C00
073800
03F000
01E000
00C000
000000
FE3F80
3C1E00
380E00
380E00
380E00
380E00
380E00
380E00
3FFE00
380E00
380E00
380E00
380E00
380E00
380E00
380E00
FE3F80
ENDCHAR
STARTCHAR 021F
ENCODING 543
SWIDTH 592 0
DWIDTH 16 0
BBX 15 27 1 0
BITMAP
2020
1860
0CC0
0FC0
0780
0000
0000
1800
F800
3800
3800
3800
3800
3800
3800
38F0
3BF8
3E38
3838
3838
3838
3838
3838
3838
3838
3838
FEFE
ENDCHAR
STARTCHAR 0226
ENCODING 550
SWIDTH 629 0
DWIDTH 17 0
BBX 17 22 0 0
BITMAP
01C000
03C000
03C000
018000
000000
00C000
01C000
03C000
03E000
02E000
06F000
067000
067000
0C7800
0C3800
0FF800
181C00
181C00
101C00
300E00
300E00
FC3F80
ENDCHAR
STARTCHAR 0227
ENCODING 551
SWIDTH 481 0
DWIDTH 13 0
BBX 12 18 1 0
BITMAP
0E00
0F00
0E00
0E00
0000
0000
1F80
71C0
F1C0
81C0
03C0
3FC0
71C0
E1C0
E1C0
E3F0
FDE0
7980
ENDCHAR
STARTCHAR 0228
ENCODING 552
SWIDTH 518 0
DWIDTH 14 0
BBX 13 23 1 -6
BITMAP
FFF0
7830
7830
7820
7820
7800
7800
7800
7FC0
7880
7800
7800
7800
7810
7818
7830
FFF0
0600
0600
0F80
0380
0700
1C00
ENDCHAR
STARTCHAR 0229
ENCODING 553
SWIDTH 481 0
DWIDTH 13 0
BBX 11 18 1 -6
BITMAP
0F80
31C0
60E0
60E0
FFC0
E000
E000
F040
F8E0
7F80
3F80
1E00
0400
0600
0F00
0700
0600
1C00
ENDCHAR
STARTCHAR 022A
ENCODING 554
SWIDTH 629 0
DWIDTH 17 0
BBX 15 26 1 0
BITMAP
1FF8
3FF8
0000
0000
0E70
1EF0
1EF0
0C60
0000
07C0
1870
3038
301C
601C
600E
E00E
E00E
E00E
E00E
E00E
E00C
701C
7018
3818
1C20
07C0
ENDCHAR
STARTCHAR 022B
ENCODING 555
SWIDTH 518 0
DWIDTH 14 0
BBX 12 23 1 0
BITMAP
7FF0
7FF0
0000
0000
0000
1CE0
3DE0
3DE0
18C0
0000
0000
0F80
31C0
70E0
6070
E070
E070
E070
E070
E060
7060
38C0
1F00
ENDCHAR
STARTCHAR 022C
ENCODING 556
SWIDTH 629 0
DWIDTH 17 0
BBX 15 26 1 0
BITMAP
3FF8
3FF8
0000
0000
0F18
1FF0
1FE0
30C0
0000
07C0
1870
3038
301C
601C
600E
E00E
E00E
E00E
E00E
E00E
E00C
701C
7018
3818
1C20
07C0
ENDCHAR
STARTCHAR 022D
ENCODING 557
SWIDTH 518 0
DWIDTH 14 0
BBX 12 23 1 0
BITMAP
7FF0
7FF0
0000
0000
0030
1E20
3FE0
27C0
4180
0000
0000
0F80
31C0
70E0
6070
E070
E070
E070
E070
E060
7060
38C0
1F00
ENDCHAR
STARTCHAR 022E
ENCODING 558
SWIDTH 629 0
DWIDTH 17 0
BBX 15 22 1 0
BITMAP
0380
0780
0780
0300
0000
07C0
1870
3038
301C
601C
600E
E00E
E00E
E00E
E00E
E00E
E00C
701C
7018
3818
1C20
07C0
ENDCHAR
STARTCHAR 022F
ENCODING 559
SWIDTH 518 0
DWIDTH 14 0
BBX 12 18 1 0
BITMAP
0700
0F00
0F00
0600
0000
0000
0F80
31C0
70E0
6070
E070
E070
E070
E070
E060
7060
38C0
1F00
ENDCHAR
STARTCHAR 0230
ENCODING 560
SWIDTH 629 0
DWIDTH 17 0
BBX 15 25 1 0
BITMAP
3FF8
3FF0
0000
0380
0780
0780
0300
0000
07C0
1870
3038
301C
601C
600E
E00E
E00E
E00E
E00E
E00E
E00C
701C
7018
3818
1C20
07C0
ENDCHAR
STARTCHAR 0231
ENCODING 561
SWIDTH 518 0
DWIDTH 14 0
BBX 12 23 1 0
BITMAP
7FF0
7FF0
0000
0000
0000
0700
0F00
0F00
0600
0000
0000
0F80
31C0
70E0
6070
E070
E070
E070
E070
E060
7060
38C0
1F00
ENDCHAR
STARTCHAR 0232
ENCODING 562
SWIDTH 629 0
DWIDTH 17 0
BBX 16 21 0 0
BITMAP
1FFC
1FF8
0000
0000
F81F
3C0E
1C0C
0E18
0F18
0730
0730
03E0
03E0
01C0
01C0
01C0
01C0
01C0
01C0
01C0
07F0
ENDCHAR
STARTCHAR 0233
ENCODING 563
SWIDTH 518 0
DWIDTH 14 0
BBX 15 24 -1 -6
BITMAP
1FFC
1FF8
0000
0000
0000
0000
7E3E
3C18
1C18
1E10
0E30
0F30
0760
0760
03C0
03C0
03C0
0180
0180
0300
0300
7E00
7C00
F800
ENDCHAR
STARTCHAR 0237
ENCODING 567
SWIDTH 296 0
DWIDTH 8 0
BBX 9 18 -3 -6
BITMAP
0380
0F80
0380
0380
0380
0380
0380
0380
0380
0380
0380
0380
0380
0380
0300
6600
FC00
7800
ENDCHAR
STARTCHAR 023D
ENCODING 573
SWIDTH 518 0
DWIDTH 14 0
BBX 13 17 1 0
BITMAP
FE00
7C00
3800
3800
3800
3800
3800
3800
3800
FF80
3800
3800
3800
3808
3818
3818
FFF0
ENDCHAR
STARTCHAR 0241
ENCODING 577
SWIDTH 481 0
DWIDTH 13 0
BBX 12 17 0 0
BITMAP
1FC0
78E0
F070
F070
F070
0070
00E0
01C0
0380
0700
0700
0700
0700
0700
0700
0700
1FC0
ENDCHAR
STARTCHAR 0242
ENCODING 578
SWIDTH 444 0
DWIDTH 12 0
BBX 10 12 1 0
BITMAP
3F00
63C0
E1C0
E1C0
0380
0700
0E00
1C00
1C00
1C00
1C00
7F00
ENDCHAR
STARTCHAR 0244
ENCODING 580
SWIDTH 666 0
DWIDTH 18 0
BBX 17 17 0 0
BITMAP
FE1F80
7C0F00
380600
380600
380600
380600
380600
380600
FFFF80
380600
380600
380600
380600
380400
1C0C00
0E1800
03E000
ENDCHAR
STARTCHAR 0245
ENCODING 581
SWIDTH 666 0
DWIDTH 18 0
BBX 18 17 0 0
BITMAP
00C000
01C000
01E000
03E000
03F000
037000
067000
067800
063800
0C3800
0C1C00
081C00
181E00
180E00
300E00
300F00
FC1FC0
ENDCHAR
STARTCHAR 024A
ENCODING 586
SWIDTH 666 0
DWIDTH 18 0
BBX 20 23 1 -6
BITMAP
03C400
0C3C00
181C00
301C00
601C00
601C00
E01C00
E01C00
E01C00
E01C00
E01C00
F01C00
703C00
7C7C00
3FFC00
3FDC00
0F1C00
001C00
001C00
001C30
001C70
000C60
0007C0
ENDCHAR
STARTCHAR 024B
ENCODING 587
SWIDTH 555 0
DWIDTH 15 0
BBX 18 18 1 -6
BITMAP
0F1000
30F000
607000
607000
E07000
E07000
E07000
F07000
F8F000
7FF000
3F7000
1E7000
007000
007000
0070C0
0071C0
003380
001F00
ENDCHAR
STARTCHAR 0251
ENCODING 593
SWIDTH 555 0
DWIDTH 15 0
BBX 14 12 1 0
BITMAP
0F10
30F0
6070
6070
E070
E070
E070
F070
F8F0
7FF4
7F7C
1E70
ENDCHAR
STARTCHAR 0253
ENCODING 595
SWIDTH 555 0
DWIDTH 15 0
BBX 12 19 2 0
BITMAP
07E0
18F0
3060
6000
6000
E000
E000
E3C0
EFE0
F8E0
E070
E030
E030
E030
E020
E020
F040
FF80
1E00
ENDCHAR
STARTCHAR 0254
ENCODING 596
SWIDTH 481 0
DWIDTH 13 0
BBX 11 12 1 0
BITMAP
1F00
7F80
C3C0
01E0
00E0
00E0
30E0
F0E0
E0C0
E1C0
F180
3E00
ENDCHAR
STARTCHAR 0256
ENCODING 598
SWIDTH 555 0
DWIDTH 15 0
BBX 18 26 1 -6
BITMAP
003000
01F000
007000
007000
007000
007000
007000
007000
0FF000
30F000
607000
607000
E07000
E07000
E07000
F07000
F8F000
7FF000
3F7000
1E7000
007000
007000
0070C0
0071C0
003380
001F00
ENDCHAR
STARTCHAR 0257
ENCODING 599
SWIDTH 555 0
DWIDTH 15 0
BBX 18 19 1 0
BITMAP
000F80
001BC0
003100
007000
007000
007000
007000
0FF000
30F000
607000
607000
E07000
E07000
E07000
F07000
F8F000
7FF400
3F7C00
1E3000
ENDCHAR
STARTCHAR 0259
ENCODING 601
SWIDTH 481 0
DWIDTH 13 0
BBX 11 12 1 0
BITMAP
1F00
7F80
C3C0
81E0
00E0
00E0
7FE0
E0E0
E0C0
E0C0
7180
3E00
ENDCHAR
STARTCHAR 025B
ENCODING 603
SWIDTH 444 0
DWIDTH 12 0
BBX 10 12 1 0
BITMAP
1F80
21C0
6180
6000
7800
3C00
3200
6000
E040
F0C0
FF80
3E00
ENDCHAR
STARTCHAR 0263
ENCODING 611
SWIDTH 481 0
DWIDTH 13 0
BBX 13 18 0 -6
BITMAP
FCF8
7060
7860
38C0
3CC0
1D80
1F80
0F00
0F00
0700
0780
0F80
0FC0
1DC0
18C0
18C0
1880
0F00
ENDCHAR
STARTCHAR 0268
ENCODING 616
SWIDTH 296 0
DWIDTH 8 0
BBX 7 18 1 0
BITMAP
38
78
70
00
00
00
38
F8
38
38
38
FE
38
38
38
38
7C
FE
ENDCHAR
STARTCHAR 0269
ENCODING 617
SWIDTH 333 0
DWIDTH 9 0
BBX 8 12 1 0
BITMAP
38
F8
38
38
38
38
38
38
38
3F
3E
1C
ENDCHAR
STARTCHAR 026B
ENCODING 619
SWIDTH 370 0
DWIDTH 10 0
BBX 11 20 0 0
BITMAP
0600
3E00
0E00
0E00
0E00
0E00
0E00
0E00
1E60
3FC0
7F80
4F00
8E00
0E00
0E00
0E00
0E00
0E00
0E00
3F80
ENDCHAR
STARTCHAR 0272
ENCODING 626
SWIDTH 592 0
DWIDTH 16 0
BBX 20 18 -4 -6
BITMAP
018F80
0FBFC0
03E1C0
0381C0
0381C0
0381C0
0381C0
0381C0
0381C0
0381C0
0381C0
0387F0
038000
038000
030000
660000
FC0000
780000
ENDCHAR
STARTCHAR 0275
ENCODING 629
SWIDTH 518 0
DWIDTH 14 0
BBX 12 12 1 0
BITMAP
0F80
31C0
60E0
6070
E070
FFF0
E070
E070
F060
70E0
38C0
1F00
ENDCHAR
STARTCHAR 0283
ENCODING 643
SWIDTH 259 0
DWIDTH 7 0
BBX 14 25 -3 -6
BITMAP
007C
0198
0310
0300
0700
0700
0700
0700
0700
0700
0700
0780
0780
0380
0380
0380
0380
0380
0380
0380
0300
0300
6600
FC00
F800
ENDCHAR
STARTCHAR 0289
ENCODING 649
SWIDTH 592 0
DWIDTH 16 0
BBX 16 12 0 0
BITMAP
180C
F87C
381C
381C
381C
381C
7FFF
B81C
381C
387D
3FDF
1F1C
ENDCHAR
STARTCHAR 028A
ENCODING 650
SWIDTH 518 0
DWIDTH 14 0
BBX 12 12 1 0
BITMAP
F8F0
38C0
3040
7060
E030
E030
E030
E030
E030
7060
3840
1F80
ENDCHAR
STARTCHAR 028C
ENCODING 652
SWIDTH 518 0
DWIDTH 14 0
BBX 14 12 0 0
BITMAP
0300
0700
0780
0F80
0FC0
09C0
19E0
18E0
30E0
3070
6070
F8FC
ENDCHAR
STARTCHAR 0292
ENCODING 658
SWIDTH 481 0
DWIDTH 13 0
BBX 12 18 0 -6
BITMAP
7FF0
60E0
41C0
4380
0780
0F00
1E00
1F80
21E0
00E0
0070
0070
0070
0070
2060
7060
F8C0
3F00
ENDCHAR
STARTCHAR 0294
ENCODING 660
SWIDTH 481 0
DWIDTH 13 0
BBX 11 20 1 0
BITMAP
1F80
71C0
E1E0
E0E0
E0E0
00E0
01E0
01C0
0380
0700
0600
0E00
0E00
0E00
0E00
0E00
0E00
0E00
0E00
3F80
ENDCHAR
STARTCHAR 02A0
ENCODING 672
SWIDTH 555 0
DWIDTH 15 0
BBX 18 25 1 -6
BITMAP
000F80
001BC0
003100
007000
007000
007000
007000
0FF000
30F000
607000
607000
E07000
E07000
E07000
F07000
F8F000
7FF000
3F7000
1E7000
007000
007000
007000
007000
007000
01FC00
ENDCHAR
STARTCHAR 02BC
ENCODING 700
SWIDTH 259 0
DWIDTH 7 0
BBX 4 7 1 12
BITMAP
70
F0
70
30
30
60
40
ENDCHAR
STARTCHAR 02C0
ENCODING 704
SWIDTH 333 0
DWIDTH 9 0
BBX 8 9 0 11
BITMAP
3E
67
C3
03
06
0C
18
18
18
ENDCHAR
STARTCHAR 02C6
ENCODING 710
SWIDTH 370 0
DWIDTH 10 0
BBX 9 6 0 14
BITMAP
0C00
1E00
3E00
7700
6180
C080
ENDCHAR
STARTCHAR 02C7
ENCODING 711
SWIDTH 370 0
DWIDTH 10 0
BBX 9 6 0 14
BITMAP
4080
E180
7700
3F00
1E00
0C00
ENDCHAR
STARTCHAR 02C9
ENCODING 713
SWIDTH 481 0
DWIDTH 13 0
BBX 11 2 1 16
BITMAP
7FE0
FFE0
ENDCHAR
STARTCHAR 02CA
ENCODING 714
SWIDTH 222 0
DWIDTH 6 0
BBX 6 6 0 14
BITMAP
1C
3C
78
70
E0
C0
ENDCHAR
STARTCHAR 02CB
ENCODING 715
SWIDTH 222 0
DWIDTH 6 0
BBX 6 6 0 14
BITMAP
F0
F0
78
38
1C
0C
ENDCHAR
STARTCHAR 02CD
ENCODING 717
SWIDTH 481 0
DWIDTH 13 0
BBX 11 2 1 -3
BITMAP
7FE0
FFE0
ENDCHAR
STARTCHAR 02D7
ENCODING 727
SWIDTH 370 0
DWIDTH 10 0
BBX 8 1 1 6
BITMAP
FF
ENDCHAR
STARTCHAR 02D8
ENCODING 728
SWIDTH 370 0
DWIDTH 10 0
BBX 10 5 0 14
BITMAP
8080
E1C0
7F80
3F00
1E00
ENDCHAR
STARTCHAR 02D9
ENCODING 729
SWIDTH 185 0
DWIDTH 5 0
BBX 4 4 1 14
BITMAP
70
F0
F0
E0
ENDCHAR
STARTCHAR 02DA
ENCODING 730
SWIDTH 259 0
DWIDTH 7 0
BBX 5 5 1 14
BITMAP
70
D8
D8
D8
70
ENDCHAR
STARTCHAR 02DB
ENCODING 731
SWIDTH 259 0
DWIDTH 7 0
BBX 6 6 1 -5
BITMAP
18
30
60
E0
E4
78
ENDCHAR
STARTCHAR 02DC
ENCODING 732
SWIDTH 407 0
DWIDTH 11 0
BBX 11 5 0 14
BITMAP
0060
3C40
7FC0
4F80
8300
ENDCHAR
STARTCHAR 02DD
ENCODING 733
SWIDTH 370 0
DWIDTH 10 0
BBX 9 6 1 14
BITMAP
7300
7780
6700
E600
CC00
8800
ENDCHAR
STARTCHAR 0300
ENCODING 768
SWIDTH 0 0
DWIDTH 0 0
BBX 6 6 -10 14
BITMAP
70
F0
38
18
0C
04
ENDCHAR
STARTCHAR 0301
ENCODING 769
SWIDTH 0 0
DWIDTH 0 0
BBX 6 6 -9 14
BITMAP
3C
3C
78
70
E0
C0
ENDCHAR
STARTCHAR 0302
ENCODING 770
SWIDTH 0 0
DWIDTH 0 0
BBX 9 6 -11 14
BITMAP
1800
3C00
3E00
7700
C300
8180
ENDCHAR
STARTCHAR 0303
ENCODING 771
SWIDTH 0 0
DWIDTH 0 0
BBX 10 5 -12 14
BITMAP
0040
38C0
7F80
CF80
8700
ENDCHAR
STARTCHAR 0304
ENCODING 772
SWIDTH 0 0
DWIDTH 0 0
BBX 11 2 -12 16
BITMAP
FFE0
FFC0
ENDCHAR
STARTCHAR 0306
ENCODING 774
SWIDTH 0 0
DWIDTH 0 0
BBX 9 5 -11 14
BITMAP
8100
C380
FF00
7E00
3C00
ENDCHAR
STARTCHAR 0307
ENCODING 775
SWIDTH 0 0
DWIDTH 0 0
BBX 4 4 -9 14
BITMAP
70
F0
F0
E0
ENDCHAR
STARTCHAR 0308
ENCODING 776
SWIDTH 0 0
DWIDTH 0 0
BBX 9 4 -11 14
BITMAP
7380
F780
F780
E700
ENDCHAR
STARTCHAR 0309
ENCODING 777
SWIDTH 0 0
DWIDTH 0 0
BBX 5 5 -9 14
BITMAP
78
D8
30
60
70
ENDCHAR
STARTCHAR 030A
ENCODING 778
SWIDTH 0 0
DWIDTH 0 0
BBX 6 5 -10 14
BITMAP
38
CC
CC
CC
70
ENDCHAR
STARTCHAR 030B
ENCODING 779
SWIDTH 0 0
DWIDTH 0 0
BBX 9 6 -10 14
BITMAP
3B80
3380
7700
6600
C600
CC00
ENDCHAR
STARTCHAR 030C
ENCODING 780
SWIDTH 0 0
DWIDTH 0 0
BBX 9 6 -11 14
BITMAP
8180
C300
7700
3E00
3C00
1C00
ENDCHAR
STARTCHAR 031B
ENCODING 795
SWIDTH 74 0
DWIDTH 2 0
BBX 6 7 -5 9
BITMAP
0C
3C
1C
1C
38
70
C0
ENDCHAR
STARTCHAR 0323
ENCODING 803
SWIDTH 0 0
DWIDTH 0 0
BBX 4 4 -9 -6
BITMAP
70
F0
F0
E0
ENDCHAR
STARTCHAR 0327
ENCODING 807
SWIDTH 0 0
DWIDTH 0 0
BBX 5 6 -9 -6
BITMAP
20
60
78
38
70
E0
ENDCHAR
STARTCHAR 0328
ENCODING 808
SWIDTH 0 0
DWIDTH 0 0
BBX 6 6 -10 -5
BITMAP
18
30
60
E0
E4
78
ENDCHAR
STARTCHAR 0331
ENCODING 817
SWIDTH 0 0
DWIDTH 0 0
BBX 11 2 -12 -4
BITMAP
FFE0
FFC0
ENDCHAR
STARTCHAR 033F
ENCODING 831
SWIDTH 0 0
DWIDTH 0 0
BBX 15 3 -14 17
BITMAP
7FFE
8000
FFFE
ENDCHAR
STARTCHAR 035E
ENCODING 862
SWIDTH 0 0
DWIDTH 0 0
BBX 18 2 -9 22
BITMAP
FFFFC0
FFFFC0
ENDCHAR
STARTCHAR 035F
ENCODING 863
SWIDTH 0 0
DWIDTH 0 0
BBX 18 2 -9 -10
BITMAP
FFFFC0
FFFFC0
ENDCHAR
STARTCHAR 03A0
ENCODING 928
SWIDTH 666 0
DWIDTH 18 0
BBX 17 17 0 0
BITMAP
FFFF80
380E00
380E00
380E00
380E00
380E00
380E00
380E00
380E00
380E00
380E00
380E00
380E00
380E00
380E00
380E00
FE3F80
ENDCHAR
STARTCHAR 03A9
ENCODING 937
SWIDTH 666 0
DWIDTH 18 0
BBX 15 17 1 0
BITMAP
07E0
1838
301C
701C
600E
E00E
E00E
E00E
E00E
E00C
701C
7018
3830
9C72
8C62
FC7E
FC7E
ENDCHAR
STARTCHAR 03C0
ENCODING 960
SWIDTH 555 0
DWIDTH 15 0
BBX 13 12 0 0
BITMAP
3FF8
7FF0
FFE0
9980
1980
1980
1980
1980
3980
3980
39F8
60E0
ENDCHAR
STARTCHAR 1E02
ENCODING 7682
SWIDTH 592 0
DWIDTH 16 0
BBX 13 22 1 0
BITMAP
0700
0700
0F00
0600
0000
7FC0
F8E0
3870
3870
3870
3870
38E0
3FC0
38F0
3870
3838
3838
3838
3838
3830
3870
FFC0
ENDCHAR
STARTCHAR 1E03
ENCODING 7683
SWIDTH 518 0
DWIDTH 14 0
BBX 13 20 0 0
BITMAP
1800
F800
38E0
39E0
39E0
39C0
3800
3800
39E0
3FF0
3C30
3838
3818
3818
3818
3818
3810
3C20
3FC0
0F80
ENDCHAR
STARTCHAR 1E04
ENCODING 7684
SWIDTH 592 0
DWIDTH 16 0
BBX 13 23 1 -6
BITMAP
7FC0
F8E0
3870
3870
3870
3870
38E0
3FC0
38F0
3870
3838
3838
3838
3838
3830
3870
FFC0
0000
0000
0700
0700
0F00
0700
ENDCHAR
STARTCHAR 1E05
ENCODING 7685
SWIDTH 555 0
DWIDTH 15 0
BBX 14 26 0 -6
BITMAP
1800
F800
3800
3800
3800
3800
3800
3800
38F0
3BF8
3E38
381C
380C
380C
380C
3808
3808
3C10
3FE0
0780
0000
0000
0700
0780
0700
0700
ENDCHAR
STARTCHAR 1E06
ENCODING 7686
SWIDTH 592 0
DWIDTH 16 0
BBX 13 21 1 -4
BITMAP
7FC0
F8E0
3870
3870
3870
3870
38E0
3FC0
38F0
3870
3838
3838
3838
3838
3830
3870
FFC0
0000
0000
7FF0
7FF0
ENDCHAR
STARTCHAR 1E07
ENCODING 7687
SWIDTH 555 0
DWIDTH 15 0
BBX 14 24 0 -4
BITMAP
1800
F800
3800
3800
3800
3800
3800
3800
38F0
3BF8
3E38
381C
380C
380C
380C
3808
3808
3C10
3FE0
0780
0000
0000
3FF0
7FF0
ENDCHAR
STARTCHAR 1E08
ENCODING 7688
SWIDTH 555 0
DWIDTH 15 0
BBX 14 29 1 -6
BITMAP
0060
00F0
01F0
03C0
0700
0000
07F0
1878
3030
7000
6000
6000
E000
E000
E000
E000
E000
F000
7000
7808
3C3C
3FF0
0FC0
0100
0380
03C0
01C0
0380
0600
ENDCHAR
STARTCHAR 1E09
ENCODING 7689
SWIDTH 444 0
DWIDTH 12 0
BBX 11 26 1 -6
BITMAP
03C0
03C0
0780
0700
0E00
0C00
0000
0000
0FE0
30C0
70C0
6040
E000
E000
E000
E000
F040
78C0
3F80
1F00
0400
0E00
0F00
0700
0E00
1800
ENDCHAR
STARTCHAR 1E0A
ENCODING 7690
SWIDTH 629 0
DWIDTH 17 0
BBX 16 22 0 0
BITMAP
0380
03C0
0380
0300
0000
7FE0
F878
383C
381E
381E
380F
380F
380F
380F
380F
380F
380F
381E
381E
383C
3878
FFE0
ENDCHAR
STARTCHAR 1E0B
ENCODING 7691
SWIDTH 555 0
DWIDTH 15 0
BBX 14 20 1 0
BITMAP
0030
01F0
3870
3870
7870
3070
0070
0070
0FF0
30F0
6070
6070
E070
E070
E070
F070
F8F0
7FF4
3F7C
1E30
ENDCHAR
STARTCHAR 1E0C
ENCODING 7692
SWIDTH 629 0
DWIDTH 17 0
BBX 16 23 0 -6
BITMAP
7FE0
F878
383C
381E
381E
380F
380F
380F
380F
380F
380F
380F
381E
381E
383C
3878
FFE0
0000
0000
0380
03C0
0380
0380
ENDCHAR
STARTCHAR 1E0D
ENCODING 7693
SWIDTH 555 0
DWIDTH 15 0
BBX 14 26 1 -6
BITMAP
0030
01F0
0070
0070
0070
0070
0070
0070
0FF0
30F0
6070
6070
E070
E070
E070
F070
F8F0
7FF4
3F7C
1E30
0000
0000
0700
0F00
0F00
0E00
ENDCHAR
STARTCHAR 1E0E
ENCODING 7694
SWIDTH 629 0
DWIDTH 17 0
BBX 16 21 0 -4
BITMAP
7FE0
F878
383C
381E
381E
380F
380F
380F
380F
380F
380F
380F
381E
381E
383C
3878
FFE0
0000
0000
1FF8
3FF8
ENDCHAR
STARTCHAR 1E0F
ENCODING 7695
SWIDTH 555 0
DWIDTH 15 0
BBX 14 24 1 -4
BITMAP
0030
01F0
0070
0070
0070
0070
0070
0070
0FF0
30F0
6070
6070
E070
E070
E070
F070
F8F0
7FF4
3F7C
1E30
0000
0000
7FF0
7FE0
ENDCHAR
STARTCHAR 1E14
ENCODING 7700
SWIDTH 518 0
DWIDTH 14 0
BBX 13 27 1 0
BITMAP
3800
3C00
5E00
0700
0180
0000
7FF0
7FE0
0000
0000
FFF0
7830
7830
7820
7820
7800
7800
7800
7FC0
7880
7800
7800
7800
7810
7818
7830
FFF0
ENDCHAR
STARTCHAR 1E15
ENCODING 7701
SWIDTH 481 0
DWIDTH 13 0
BBX 12 25 1 0
BITMAP
0800
3C00
1C00
0E00
0700
0300
0000
7FF0
7FE0
0000
0000
0000
0000
0F00
31C0
70C0
60E0
E0E0
FFC0
E000
E000
F040
78E0
3FC0
1F00
ENDCHAR
STARTCHAR 1E16
ENCODING 7702
SWIDTH 518 0
DWIDTH 14 0
BBX 13 27 1 0
BITMAP
01C0
03E0
0780
0E00
1000
0000
7FF0
7FE0
0000
0000
FFF0
7830
7830
7820
7820
7800
7800
7800
7FC0
7880
7800
7800
7800
7810
7818
7830
FFF0
ENDCHAR
STARTCHAR 1E17
ENCODING 7703
SWIDTH 481 0
DWIDTH 13 0
BBX 12 25 1 0
BITMAP
0180
03C0
0380
0700
0600
0C00
0000
7FF0
7FE0
0000
0000
0000
0000
0F00
31C0
70C0
60E0
E0E0
FFC0
E000
E000
F040
78E0
3FC0
1F00
ENDCHAR
STARTCHAR 1E1C
ENCODING 7708
SWIDTH 518 0
DWIDTH 14 0
BBX 13 29 1 -6
BITMAP
2040
70E0
3FC0
1F80
0F00
0000
FFF0
7830
7830
7820
7820
7800
7800
7800
7FC0
7880
7800
7800
7800
7810
7818
7830
FFF0
0600
0600
0780
0B80
0700
1C00
ENDCHAR
STARTCHAR 1E1D
ENCODING 7709
SWIDTH 481 0
DWIDTH 13 0
BBX 11 25 1 -6
BITMAP
2040
70E0
3FC0
1F80
0F00
0000
0000
0F00
31C0
60C0
60E0
FFE0
FFC0
E000
E000
F040
70E0
3F80
1F00
0400
0600
0F00
0700
0600
1C00
ENDCHAR
STARTCHAR 1E1E
ENCODING 7710
SWIDTH 518 0
DWIDTH 14 0
BBX 12 22 1 0
BITMAP
0E00
0E00
1E00
0C00
0000
FFF0
7830
7830
7830
7820
7800
7800
7800
7FC0
7880
7800
7800
7800
7800
7800
7800
FE00
ENDCHAR
STARTCHAR 1E1F
ENCODING 7711
SWIDTH 333 0
DWIDTH 9 0
BBX 11 26 1 0
BITMAP
0800
0E00
1E00
1E00
0000
0000
0000
03E0
0CC0
1800
1800
3800
3800
3800
FF80
3800
3800
3800
3800
3800
3800
3800
3800
3800
3800
FF00
ENDCHAR
STARTCHAR 1E20
ENCODING 7712
SWIDTH 592 0
DWIDTH 16 0
BBX 14 21 1 0
BITMAP
1FF8
3FF8
0000
0000
03F0
0C78
3030
3000
7000
6000
E000
E000
E000
E0FC
E038
E038
7038
7038
3C38
1FF0
07C0
ENDCHAR
STARTCHAR 1E21
ENCODING 7713
SWIDTH 518 0
DWIDTH 14 0
BBX 14 24 0 -6
BITMAP
3FF8
7FF0
0000
0000
0000
0000
0F8C
10FC
2070
6030
6030
7030
3860
1F80
1C00
7C00
7FE0
3FF8
7FFC
F03C
E01C
E018
7030
1FC0
ENDCHAR
STARTCHAR 1E22
ENCODING 7714
SWIDTH 666 0
DWIDTH 18 0
BBX 17 22 0 0
BITMAP
00E000
01E000
01E000
00C000
000000
FE3F80
3C1E00
380E00
380E00
380E00
380E00
380E00
380E00
3FFE00
380E00
380E00
380E00
380E00
380E00
380E00
380E00
FE3F80
ENDCHAR
STARTCHAR 1E23
ENCODING 7715
SWIDTH 592 0
DWIDTH 16 0
BBX 15 26 1 0
BITMAP
0200
0780
0780
0700
0000
0000
1800
F800
3800
3800
3800
3800
3800
3800
38F0
3BF8
3E38
3838
3838
3838
3838
3838
3838
3838
3838
FEFE
ENDCHAR
STARTCHAR 1E24
ENCODING 7716
SWIDTH 666 0
DWIDTH 18 0
BBX 17 23 0 -6
BITMAP
FE3F80
3C1E00
380E00
380E00
380E00
380E00
380E00
380E00
3FFE00
380E00
380E00
380E00
380E00
380E00
380E00
380E00
FE3F80
000000
000000
00E000
01E000
01E000
01C000
ENDCHAR
STARTCHAR 1E25
ENCODING 7717
SWIDTH 592 0
DWIDTH 16 0
BBX 15 26 1 -6
BITMAP
1800
F800
3800
3800
3800
3800
3800
3800
38F0
3BF8
3E38
3838
3838
3838
3838
3838
3838
3838
3838
FEFE
0000
0000
0300
0780
0780
0700
ENDCHAR
STARTCHAR 1E26
ENCODING 7718
SWIDTH 666 0
DWIDTH 18 0
BBX 17 22 0 0
BITMAP
039C00
07BC00
07BC00
031800
000000
FE3F80
3C1E00
380E00
380E00
380E00
380E00
380E00
380E00
3FFE00
380E00
380E00
380E00
380E00
380E00
380E00
380E00
FE3F80
ENDCHAR
STARTCHAR 1E27
ENCODING 7719
SWIDTH 592 0
DWIDTH 16 0
BBX 15 26 1 0
BITMAP
0840
1EF0
1EF0
1CE0
0000
0000
1800
F800
3800
3800
3800
3800
3800
3800
38F0
3BF8
3E38
3838
3838
3838
3838
3838
3838
3838
3838
FEFE
ENDCHAR
STARTCHAR 1E2E
ENCODING 7726
SWIDTH 333 0
DWIDTH 9 0
BBX 9 28 0 0
BITMAP
0200
0700
0F80
1E00
3800
0000
7380
F780
F780
6300
0000
7F00
1C00
1C00
1C00
1C00
1C00
1C00
1C00
1C00
1C00
1C00
1C00
1C00
1C00
1C00
1C00
7F00
ENDCHAR
STARTCHAR 1E2F
ENCODING 7727
SWIDTH 296 0
DWIDTH 8 0
BBX 9 25 0 0
BITMAP
0600
0F00
0E00
1C00
1800
3000
0000
7380
F780
F780
E700
0000
0000
1C00
7C00
1C00
1C00
1C00
1C00
1C00
1C00
1C00
1C00
1C00
7F00
ENDCHAR
STARTCHAR 1E30
ENCODING 7728
SWIDTH 629 0
DWIDTH 17 0
BBX 16 23 1 0
BITMAP
0060
01F0
03C0
0700
0400
0000
FE7E
3838
3830
3870
38E0
39C0
3B80
3F00
3F00
3B80
39C0
39E0
38F0
3878
383C
381F
FE1E
ENDCHAR
STARTCHAR 1E31
ENCODING 7729
SWIDTH 555 0
DWIDTH 15 0
BBX 14 27 1 0
BITMAP
0080
00E0
01E0
0780
0E00
0000
0000
1800
F800
3800
3800
3800
3800
3800
3800
38FC
3870
38E0
3980
3B00
3F00
3B80
39C0
38E0
38F0
3878
FC3C
ENDCHAR
STARTCHAR 1E32
ENCODING 7730
SWIDTH 629 0
DWIDTH 17 0
BBX 16 23 1 -6
BITMAP
FE7E
3838
3830
3870
38E0
39C0
3B80
3F00
3F00
3B80
39C0
39E0
38F0
3878
383C
381F
FE1E
0000
0000
0380
0380
0780
0380
ENDCHAR
STARTCHAR 1E33
ENCODING 7731
SWIDTH 555 0
DWIDTH 15 0
BBX 14 26 1 -6
BITMAP
1800
F800
3800
3800
3800
3800
3800
3800
38FC
3870
38E0
3980
3B00
3F00
3B80
39C0
38E0
38F0
3878
FC3C
0000
0000
0700
0780
0700
0700
ENDCHAR
STARTCHAR 1E34
ENCODING 7732
SWIDTH 629 0
DWIDTH 17 0
BBX 16 21 1 -4
BITMAP
FE7E
3838
3830
3870
38E0
39C0
3B80
3F00
3F00
3B80
39C0
39E0
38F0
3878
383C
381F
FE1E
0000
0000
3FF8
3FF8
ENDCHAR
STARTCHAR 1E35
ENCODING 7733
SWIDTH 555 0
DWIDTH 15 0
BBX 14 24 1 -4
BITMAP
1800
F800
3800
3800
3800
3800
3800
3800
38FC
3870
38E0
3980
3B00
3F00
3B80
39C0
38E0
38F0
3878
FC3C
0000
0000
3FF0
7FF0
ENDCHAR
STARTCHAR 1E36
ENCODING 7734
SWIDTH 518 0
DWIDTH 14 0
BBX 13 23 1 -6
BITMAP
FE00
3800
3800
3800
3800
3800
3800
3800
3800
3800
3800
3800
3800
3808
3818
3818
FFF0
0000
0000
0600
0F00
0F00
0E00
ENDCHAR
STARTCHAR 1E37
ENCODING 7735
SWIDTH 296 0
DWIDTH 8 0
BBX 7 26 1 -6
BITMAP
18
F8
38
38
38
38
38
38
38
38
38
38
38
38
38
38
38
38
38
FE
00
00
38
78
78
70
ENDCHAR
STARTCHAR 1E38
ENCODING 7736
SWIDTH 518 0
DWIDTH 14 0
BBX 13 27 1 -6
BITMAP
FFE0
FFE0
0000
0000
FE00
3800
3800
3800
3800
3800
3800
3800
3800
3800
3800
3800
3800
3808
3818
3818
FFF0
0000
0000
0600
0F00
0F00
0E00
ENDCHAR
STARTCHAR 1E39
ENCODING 7737
SWIDTH 296 0
DWIDTH 8 0
BBX 11 31 -1 -6
BITMAP
FFE0
FFC0
0000
0000
0000
0600
3E00
0E00
0E00
0E00
0E00
0E00
0E00
0E00
0E00
0E00
0E00
0E00
0E00
0E00
0E00
0E00
0E00
0E00
3F80
0000
0000
0E00
1E00
1E00
1C00
ENDCHAR
STARTCHAR 1E3A
ENCODING 7738
SWIDTH 518 0
DWIDTH 14 0
BBX 13 21 1 -4
BITMAP
FE00
3800
3800
3800
3800
3800
3800
3800
3800
3800
3800
3800
3800
3808
3818
3818
FFF0
0000
0000
7FF0
FFE0
ENDCHAR
STARTCHAR 1E3B
ENCODING 7739
SWIDTH 296 0
DWIDTH 8 0
BBX 11 24 -1 -4
BITMAP
0600
3E00
0E00
0E00
0E00
0E00
0E00
0E00
0E00
0E00
0E00
0E00
0E00
0E00
0E00
0E00
0E00
0E00
0E00
3F80
0000
0000
FFE0
FFC0
ENDCHAR
STARTCHAR 1E3E
ENCODING 7742
SWIDTH 851 0
DWIDTH 23 0
BBX 21 23 1 0
BITMAP
000C00
003E00
007800
00E000
008000
000000
F801F8
3801E0
3C01E0
3C03E0
3E03E0
3E06E0
3F06E0
370CE0
278CE0
239CE0
2398E0
21D8E0
21F0E0
61F0E0
60E0E0
70E0E0
F843F8
ENDCHAR
STARTCHAR 1E3F
ENCODING 7743
SWIDTH 851 0
DWIDTH 23 0
BBX 23 20 0 0
BITMAP
000E00
000F00
001C00
001800
003000
002000
000000
000000
19F1F0
FBFFF8
3E3E38
383838
383838
383838
383838
383838
383838
383838
383838
FEFEFE
ENDCHAR
STARTCHAR 1E40
ENCODING 7744
SWIDTH 851 0
DWIDTH 23 0
BBX 21 22 1 0
BITMAP
007000
00F000
00F000
006000
000000
F801F8
3801E0
3C01E0
3C03E0
3E03E0
3E06E0
3F06E0
370CE0
278CE0
239CE0
2398E0
21D8E0
21F0E0
61F0E0
60E0E0
70E0E0
F843F8
ENDCHAR
STARTCHAR 1E41
ENCODING 7745
SWIDTH 851 0
DWIDTH 23 0
BBX 23 18 0 0
BITMAP
003800
007800
007800
003000
000000
000000
19F1F0
FBFFF8
3E3E38
383838
383838
383838
383838
383838
383838
383838
383838
FEFEFE
ENDCHAR
STARTCHAR 1E42
ENCODING 7746
SWIDTH 851 0
DWIDTH 23 0
BBX 21 23 1 -6
BITMAP
F801F8
3801E0
3C01E0
3C03E0
3E03E0
3E06E0
3F06E0
370CE0
278CE0
239CE0
2398E0
21D8E0
21F0E0
61F0E0
60E0E0
70E0E0
F843F8
000000
000000
007000
00F000
00F000
00E000
ENDCHAR
STARTCHAR 1E43
ENCODING 7747
SWIDTH 851 0
DWIDTH 23 0
BBX 23 18 0 -6
BITMAP
19F1F0
FBFFF8
3E3E38
383838
383838
383838
383838
383838
383838
383838
383838
FEFEFE
000000
000000
003800
007800
007800
003000
ENDCHAR
STARTCHAR 1E44
ENCODING 7748
SWIDTH 666 0
DWIDTH 18 0
BBX 18 22 0 0
BITMAP
01E000
01E000
01C000
00C000
000000
F80FC0
7C0300
3C0300
3E0300
3F0300
378300
33C300
33C300
31E300
30F300
307B00
307B00
303F00
301F00
300F00
300700
FC0300
ENDCHAR
STARTCHAR 1E45
ENCODING 7749
SWIDTH 592 0
DWIDTH 16 0
BBX 15 18 1 0
BITMAP
0300
0780
0780
0700
0000
0000
18F0
FBF8
3E38
3838
3838
3838
3838
3838
3838
3838
3838
FEFE
ENDCHAR
STARTCHAR 1E46
ENCODING 7750
SWIDTH 666 0
DWIDTH 18 0
BBX 18 23 0 -6
BITMAP
F80FC0
7C0300
3C0300
3E0300
3F0300
378300
33C300
33C300
31E300
30F300
307B00
307B00
303F00
301F00
300F00
300700
FC0300
000000
000000
00C000
01E000
01E000
01C000
ENDCHAR
STARTCHAR 1E47
ENCODING 7751
SWIDTH 592 0
DWIDTH 16 0
BBX 15 18 1 -6
BITMAP
18F0
FBF8
3E38
3838
3838
3838
3838
3838
3838
3838
3838
FEFE
0000
0000
0300
0780
0780
0700
ENDCHAR
STARTCHAR 1E48
ENCODING 7752
SWIDTH 666 0
DWIDTH 18 0
BBX 18 21 0 -4
BITMAP
F80FC0
7C0300
3C0300
3E0300
3F0300
378300
33C300
33C300
31E300
30F300
307B00
307B00
303F00
301F00
300F00
300700
FC0300
000000
000000
0FFE00
1FFC00
ENDCHAR
STARTCHAR 1E49
ENCODING 7753
SWIDTH 592 0
DWIDTH 16 0
BBX 15 16 1 -4
BITMAP
18F0
FBF8
3E38
3838
3838
3838
3838
3838
3838
3838
3838
FEFE
0000
0000
3FF8
7FF0
ENDCHAR
STARTCHAR 1E4C
ENCODING 7756
SWIDTH 629 0
DWIDTH 17 0
BBX 15 28 1 0
BITMAP
0040
00F0
01E0
0380
0600
0000
0F18
1FF0
1FE0
30C0
0000
07C0
1870
3038
301C
601C
600E
E00E
E00E
E00E
E00E
E00E
E00C
701C
7018
3818
1C20
07C0
ENDCHAR
STARTCHAR 1E4D
ENCODING 7757
SWIDTH 518 0
DWIDTH 14 0
BBX 12 25 1 0
BITMAP
01C0
03E0
0380
0700
0600
0400
0030
1E20
3FE0
27C0
4180
0000
0000
0F80
31C0
70E0
6070
E070
E070
E070
E070
E060
7060
38C0
1F00
ENDCHAR
STARTCHAR 1E4E
ENCODING 7758
SWIDTH 629 0
DWIDTH 17 0
BBX 15 27 1 0
BITMAP
0E70
1EF0
1EF0
1CE0
0000
0F18
1FF0
1FE0
30C0
0000
07C0
1870
3038
301C
601C
600E
E00E
E00E
E00E
E00E
E00E
E00C
701C
7018
3818
1C20
07C0
ENDCHAR
STARTCHAR 1E4F
ENCODING 7759
SWIDTH 518 0
DWIDTH 14 0
BBX 12 23 1 0
BITMAP
1CE0
3DE0
3DE0
18C0
0030
1E20
3FE0
27C0
4180
0000
0000
0F80
31C0
70E0
6070
E070
E070
E070
E070
E060
7060
38C0
1F00
ENDCHAR
STARTCHAR 1E50
ENCODING 7760
SWIDTH 629 0
DWIDTH 17 0
BBX 15 27 1 0
BITMAP
0C00
1E00
0700
01C0
0080
0000
3FF8
3FF8
0000
0000
07C0
1870
3038
301C
601C
600E
E00E
E00E
E00E
E00E
E00E
E00C
701C
7018
3818
1C20
07C0
ENDCHAR
STARTCHAR 1E51
ENCODING 7761
SWIDTH 518 0
DWIDTH 14 0
BBX 12 25 1 0
BITMAP
0C00
3C00
1E00
0E00
0300
0100
0080
7FF0
7FF0
0000
0000
0000
0000
0F80
31C0
70E0
6070
E070
E070
E070
E070
E060
7060
38C0
1F00
ENDCHAR
STARTCHAR 1E52
ENCODING 7762
SWIDTH 629 0
DWIDTH 17 0
BBX 15 27 1 0
BITMAP
00E0
01F0
03C0
0700
0400
0000
3FF8
3FF8
0000
0000
07C0
1870
3038
301C
601C
600E
E00E
E00E
E00E
E00E
E00E
E00C
701C
7018
3818
1C20
07C0
ENDCHAR
STARTCHAR 1E53
ENCODING 7763
SWIDTH 518 0
DWIDTH 14 0
BBX 12 25 1 0
BITMAP
0180
01E0
03C0
0300
0600
0400
0800
7FF0
7FF0
0000
0000
0000
0000
0F80
31C0
70E0
6070
E070
E070
E070
E070
E060
7060
38C0
1F00
ENDCHAR
STARTCHAR 1E54
ENCODING 7764
SWIDTH 555 0
DWIDTH 15 0
BBX 14 23 0 0
BITMAP
0060
00F0
03E0
0700
0400
0000
7FE0
F878
3838
381C
381C
381C
381C
3838
3C70
3BE0
3800
3800
3800
3800
3800
3800
FE00
ENDCHAR
STARTCHAR 1E55
ENCODING 7765
SWIDTH 555 0
DWIDTH 15 0
BBX 13 26 1 -6
BITMAP
01C0
03E0
0380
0700
0600
0C00
0000
0000
19E0
FBF0
3C70
3838
3818
3818
3818
3818
3810
3C30
3FE0
3BC0
3800
3800
3800
3800
3800
FE00
ENDCHAR
STARTCHAR 1E56
ENCODING 7766
SWIDTH 555 0
DWIDTH 15 0
BBX 14 22 0 0
BITMAP
0380
0780
0780
0300
0000
7FE0
F878
3838
381C
381C
381C
381C
3838
3C70
3BE0
3800
3800
3800
3800
3800
3800
FE00
ENDCHAR
STARTCHAR 1E57
ENCODING 7767
SWIDTH 555 0
DWIDTH 15 0
BBX 13 24 1 -6
BITMAP
0700
0F00
0F00
0600
0000
0000
19E0
FBF0
3C70
3838
3818
3818
3818
3818
3810
3C30
3FE0
3BC0
3800
3800
3800
3800
3800
FE00
ENDCHAR
STARTCHAR 1E58
ENCODING 7768
SWIDTH 592 0
DWIDTH 16 0
BBX 16 22 0 0
BITMAP
0380
0780
0780
0300
0000
3FC0
F870
3838
3838
3838
3838
3870
3FF0
3FC0
39C0
38E0
38E0
3870
3878
383C
383F
FE1E
ENDCHAR
STARTCHAR 1E59
ENCODING 7769
SWIDTH 444 0
DWIDTH 12 0
BBX 11 18 1 0
BITMAP
0E00
0E00
1E00
0E00
0000
0000
31E0
F7E0
7CC0
7840
7840
7800
7800
7800
7800
7800
7800
FE00
ENDCHAR
STARTCHAR 1E5A
ENCODING 7770
SWIDTH 592 0
DWIDTH 16 0
BBX 16 23 0 -6
BITMAP
3FC0
F870
3838
3838
3838
3838
3870
3FF0
3FC0
39C0
38E0
38E0
3870
3878
383C
383F
FE1E
0000
0000
0380
0780
0780
0300
ENDCHAR
STARTCHAR 1E5B
ENCODING 7771
SWIDTH 444 0
DWIDTH 12 0
BBX 11 18 1 -6
BITMAP
31E0
F7E0
7CC0
7840
7840
7800
7800
7800
7800
7800
7800
FE00
0000
0000
3000
7800
7800
7000
ENDCHAR
STARTCHAR 1E5C
ENCODING 7772
SWIDTH 592 0
DWIDTH 16 0
BBX 16 27 0 -6
BITMAP
3FF8
3FF8
0000
0000
3FC0
F870
3838
3838
3838
3838
3870
3FF0
3FC0
39C0
38E0
38E0
3870
3878
383C
383F
FE1E
0000
0000
0380
0780
0780
0300
ENDCHAR
STARTCHAR 1E5D
ENCODING 7773
SWIDTH 444 0
DWIDTH 12 0
BBX 11 24 1 -6
BITMAP
7FE0
FFE0
0000
0000
0000
0000
31E0
F7E0
7CC0
7840
7840
7800
7800
7800
7800
7800
7800
FE00
0000
0000
3000
7800
7800
7000
ENDCHAR
STARTCHAR 1E5E
ENCODING 7774
SWIDTH 592 0
DWIDTH 16 0
BBX 16 21 0 -4
BITMAP
3FC0
F870
3838
3838
3838
3838
3870
3FF0
3FC0
39C0
38E0
38E0
3870
3878
383C
383F
FE1E
0000
0000
3FF8
3FF8
ENDCHAR
STARTCHAR 1E5F
ENCODING 7775
SWIDTH 444 0
DWIDTH 12 0
BBX 14 16 -2 -4
BITMAP
063C
1EFC
0F98
0F08
0F08
0F00
0F00
0F00
0F00
0F00
0F00
1FC0
0000
0000
7FF0
FFE0
ENDCHAR
STARTCHAR 1E60
ENCODING 7776
SWIDTH 518 0
DWIDTH 14 0
BBX 12 22 1 0
BITMAP
0F00
0F00
0F00
0600
0000
0FF0
30F0
4020
C000
E000
F800
7E00
3F80
1FC0
07E0
00F0
0070
0030
C030
C020
F040
FF80
ENDCHAR
STARTCHAR 1E61
ENCODING 7777
SWIDTH 407 0
DWIDTH 11 0
BBX 9 18 1 0
BITMAP
1C00
1C00
3C00
1C00
0000
0000
3E00
4700
C200
E000
F800
7E00
3F00
0F80
8380
C180
E100
FE00
ENDCHAR
STARTCHAR 1E62
ENCODING 7778
SWIDTH 518 0
DWIDTH 14 0
BBX 12 23 1 -6
BITMAP
0FF0
30F0
4020
C000
E000
F800
7E00
3F80
1FC0
07E0
00F0
0070
0030
C030
C020
F040
FF80
0000
0000
0600
0F00
0F00
0E00
ENDCHAR
STARTCHAR 1E63
ENCODING 7779
SWIDTH 407 0
DWIDTH 11 0
BBX 9 18 1 -6
BITMAP
3E00
4700
C200
E000
F800
7E00
3F00
0F80
8380
C180
E100
FE00
0000
0000
1C00
1C00
3C00
1C00
ENDCHAR
STARTCHAR 1E64
ENCODING 7780
SWIDTH 518 0
DWIDTH 14 0
BBX 12 27 1 0
BITMAP
0600
0F00
0E00
0E00
01C0
03E0
0780
0E00
1800
0000
0FF0
30F0
4020
C000
E000
F800
7E00
3F80
1FC0
07E0
00F0
0070
0030
C030
C020
F040
FF80
ENDCHAR
STARTCHAR 1E65
ENCODING 7781
SWIDTH 407 0
DWIDTH 11 0
BBX 9 23 1 0
BITMAP
3800
3C00
3800
3F80
0780
0F00
0C00
1800
1000
0000
0000
3E00
4700
C200
E000
F800
7E00
3F00
0F80
8380
C180
E100
FE00
ENDCHAR
STARTCHAR 1E66
ENCODING 7782
SWIDTH 518 0
DWIDTH 14 0
BBX 12 27 1 0
BITMAP
0600
0F00
0F00
0E00
2040
39E0
1F80
0F00
0600
0000
0FF0
30F0
4020
C000
E000
F800
7E00
3F80
1FC0
07E0
00F0
0070
0030
C030
C020
F040
FF80
ENDCHAR
STARTCHAR 1E67
ENCODING 7783
SWIDTH 407 0
DWIDTH 11 0
BBX 9 23 1 0
BITMAP
1C00
1C00
3C00
C880
6380
7700
3E00
1E00
1C00
0000
0000
3E00
4700
C200
E000
F800
7E00
3F00
0F80
8380
C180
E100
FE00
ENDCHAR
STARTCHAR 1E68
ENCODING 7784
SWIDTH 518 0
DWIDTH 14 0
BBX 12 28 1 -6
BITMAP
0F00
0F00
0F00
0600
0000
0FF0
30F0
4020
C000
E000
F800
7E00
3F80
1FC0
07E0
00F0
0070
0030
C030
C020
F040
FF80
0000
0000
0600
0F00
0F00
0E00
ENDCHAR
STARTCHAR 1E69
ENCODING 7785
SWIDTH 407 0
DWIDTH 11 0
BBX 9 24 1 -6
BITMAP
1C00
1C00
3C00
1C00
0000
0000
3E00
4700
C200
E000
F800
7E00
3F00
0F80
8380
C180
E100
FE00
0000
0000
1C00
1C00
3C00
1C00
ENDCHAR
STARTCHAR 1E6A
ENCODING 7786
SWIDTH 592 0
DWIDTH 16 0
BBX 15 22 0 0
BITMAP
0380
0780
0780
0300
0000
FFFE
C386
C386
8386
8384
0380
0380
0380
0380
0380
0380
0380
0380
0380
0380
07C0
0FE0
ENDCHAR
STARTCHAR 1E6B
ENCODING 7787
SWIDTH 370 0
DWIDTH 10 0
BBX 10 22 0 0
BITMAP
0800
1E00
1E00
1C00
0000
0800
1800
3800
3800
3800
FFC0
3800
3800
3800
3800
3800
3800
3800
3800
3880
3FC0
1E00
ENDCHAR
STARTCHAR 1E6C
ENCODING 7788
SWIDTH 592 0
DWIDTH 16 0
BBX 15 23 0 -6
BITMAP
FFFE
C386
C386
8386
8384
0380
0380
0380
0380
0380
0380
0380
0380
0380
0380
07C0
0FE0
0000
0000
0380
0380
0780
0380
ENDCHAR
STARTCHAR 1E6D
ENCODING 7789
SWIDTH 370 0
DWIDTH 10 0
BBX 10 23 0 -6
BITMAP
0800
1800
3800
3800
3800
FFC0
3800
3800
3800
3800
3800
3800
3800
3800
3880
3FC0
1E00
0000
0000
0C00
1E00
1E00
1C00
ENDCHAR
STARTCHAR 1E6E
ENCODING 7790
SWIDTH 592 0
DWIDTH 16 0
BBX 15 21 0 -4
BITMAP
FFFE
C386
C386
8386
8384
0380
0380
0380
0380
0380
0380
0380
0380
0380
0380
07C0
0FE0
0000
0000
3FF8
3FF8
ENDCHAR
STARTCHAR 1E6F
ENCODING 7791
SWIDTH 370 0
DWIDTH 10 0
BBX 12 21 -1 -4
BITMAP
0400
0C00
1C00
1C00
1C00
7FE0
1C00
1C00
1C00
1C00
1C00
1C00
1C00
1C00
1C40
1FE0
0F00
0000
0000
7FF0
FFE0
ENDCHAR
STARTCHAR 1E78
ENCODING 7800
SWIDTH 666 0
DWIDTH 18 0
BBX 17 28 0 0
BITMAP
001000
003C00
00F800
01E000
038000
000000
03CC00
07FC00
0FF800
087000
000000
FE1F80
380600
380600
380600
380600
380600
380600
380600
380600
380600
380600
380600
380600
380400
1C0C00
0E1800
03E000
ENDCHAR
STARTCHAR 1E79
ENCODING 7801
SWIDTH 555 0
DWIDTH 15 0
BBX 15 25 0 0
BITMAP
00F0
00E0
01C0
0180
0300
0200
0008
0710
0FF0
11E0
30E0
0000
0000
3838
F8F8
3838
3838
3838
3838
3838
3838
3838
38FA
3FBE
1E38
ENDCHAR
STARTCHAR 1E7A
ENCODING 7802
SWIDTH 666 0
DWIDTH 18 0
BBX 17 26 0 0
BITMAP
07BC00
07BC00
07BC00
021000
000000
0FFE00
0FFC00
000000
000000
FE1F80
380600
380600
380600
380600
380600
380600
380600
380600
380600
380600
380600
380600
380400
1C0C00
0E1800
03E000
ENDCHAR
STARTCHAR 1E7B
ENCODING 7803
SWIDTH 555 0
DWIDTH 15 0
BBX 15 23 0 0
BITMAP
0420
0E70
1EF0
0E70
0000
1FF8
3FF8
0000
0000
0000
0000
3838
F8F8
3838
3838
3838
3838
3838
3838
3838
38FA
3FBE
1E38
ENDCHAR
STARTCHAR 1E7C
ENCODING 7804
SWIDTH 666 0
DWIDTH 18 0
BBX 18 22 0 0
BITMAP
03CC00
07F800
0FF800
087000
000000
FE0FC0
380700
3C0600
1C0600
1C0600
1E0C00
0E0C00
0F1800
071800
071800
07B000
03B000
03B000
01E000
01E000
01E000
008000
ENDCHAR
STARTCHAR 1E7D
ENCODING 7805
SWIDTH 518 0
DWIDTH 14 0
BBX 14 19 0 0
BITMAP
0010
0F10
1FF0
13E0
20C0
0000
0000
FC7C
7830
3830
3C20
1C60
1E60
0EC0
0EC0
0780
0780
0780
0300
ENDCHAR
STARTCHAR 1E7E
ENCODING 7806
SWIDTH 666 0
DWIDTH 18 0
BBX 18 23 0 -6
BITMAP
FE0FC0
380700
3C0600
1C0600
1C0600
1E0C00
0E0C00
0F1800
071800
071800
07B000
03B000
03B000
01E000
01E000
01E000
008000
000000
000000
00C000
01E000
01C000
01C000
ENDCHAR
STARTCHAR 1E7F
ENCODING 7807
SWIDTH 518 0
DWIDTH 14 0
BBX 14 18 0 -6
BITMAP
FC7C
7830
3830
3C20
1C60
1E60
0EC0
0EC0
0780
0780
0780
0300
0000
0000
0300
0780
0780
0700
ENDCHAR
STARTCHAR 1E80
ENCODING 7808
SWIDTH 851 0
DWIDTH 23 0
BBX 23 23 0 0
BITMAP
00C000
01E000
00F000
003800
000400
000000
FE187E
381818
383818
383C10
1C3C30
1C6E30
1C6E30
1C6E30
0EC760
0EC760
0E8760
0F83E0
0F83E0
0701C0
0701C0
0701C0
060080
ENDCHAR
STARTCHAR 1E81
ENCODING 7809
SWIDTH 703 0
DWIDTH 19 0
BBX 19 20 0 0
BITMAP
03C000
03C000
01E000
00E000
007000
003000
000000
000000
FC21E0
7860C0
3870C0
38F180
1CF980
1CB980
1D9F00
0F1F00
0F1F00
0F0E00
060E00
040400
ENDCHAR
STARTCHAR 1E82
ENCODING 7810
SWIDTH 851 0
DWIDTH 23 0
BBX 23 23 0 0
BITMAP
000600
000F00
001E00
007800
004000
000000
FE187E
381818
383818
383C10
1C3C30
1C6E30
1C6E30
1C6E30
0EC760
0EC760
0E8760
0F83E0
0F83E0
0701C0
0701C0
0701C0
060080
ENDCHAR
STARTCHAR 1E83
ENCODING 7811
SWIDTH 703 0
DWIDTH 19 0
BBX 19 20 0 0
BITMAP
001C00
003C00
003800
007000
006000
00C000
000000
000000
FC21E0
7860C0
3870C0
38F180
1CF980
1CB980
1D9F00
0F1F00
0F1F00
0F0E00
060E00
040400
ENDCHAR
STARTCHAR 1E84
ENCODING 7812
SWIDTH 851 0
DWIDTH 23 0
BBX 23 22 0 0
BITMAP
00E700
01EF00
01EF00
00C600
000000
FE187E
381818
383818
383C10
1C3C30
1C6E30
1C6E30
1C6E30
0EC760
0EC760
0E8760
0F83E0
0F83E0
0701C0
0701C0
0701C0
060080
ENDCHAR
STARTCHAR 1E85
ENCODING 7813
SWIDTH 703 0
DWIDTH 19 0
BBX 19 18 0 0
BITMAP
018C00
03DE00
03DE00
039C00
000000
000000
FC21E0
7860C0
3870C0
38F180
1CF980
1CB980
1D9F00
0F1F00
0F1F00
0F0E00
060E00
040400
ENDCHAR
STARTCHAR 1E86
ENCODING 7814
SWIDTH 851 0
DWIDTH 23 0
BBX 23 22 0 0
BITMAP
003800
007800
007800
003000
000000
FE187E
381818
383818
383C10
1C3C30
1C6E30
1C6E30
1C6E30
0EC760
0EC760
0E8760
0F83E0
0F83E0
0701C0
0701C0
0701C0
060080
ENDCHAR
STARTCHAR 1E87
ENCODING 7815
SWIDTH 703 0
DWIDTH 19 0
BBX 19 18 0 0
BITMAP
006000
00F000
00F000
00E000
000000
000000
FC21E0
7860C0
3870C0
38F180
1CF980
1CB980
1D9F00
0F1F00
0F1F00
0F0E00
060E00
040400
ENDCHAR
STARTCHAR 1E88
ENCODING 7816
SWIDTH 851 0
DWIDTH 23 0
BBX 23 23 0 -6
BITMAP
FE187E
381818
383818
383C10
1C3C30
1C6E30
1C6E30
1C6E30
0EC760
0EC760
0E8760
0F83E0
0F83E0
0701C0
0701C0
0701C0
060080
000000
000000
003800
007800
007800
003000
ENDCHAR
STARTCHAR 1E89
ENCODING 7817
SWIDTH 703 0
DWIDTH 19 0
BBX 19 18 0 -6
BITMAP
FC21E0
7860C0
3870C0
38F180
1CF980
1CB980
1D9F00
0F1F00
0F1F00
0F0E00
060E00
040400
000000
000000
00E000
00F000
00E000
00E000
ENDCHAR
STARTCHAR 1E8A
ENCODING 7818
SWIDTH 629 0
DWIDTH 17 0
BBX 17 22 0 0
BITMAP
01C000
03C000
03C000
018000
000000
FF3F00
3C0C00
1C1800
1E1800
0F3000
077000
07E000
03C000
01C000
03E000
03F000
067000
0C7800
0C3C00
181C00
381E00
FC3F80
ENDCHAR
STARTCHAR 1E8B
ENCODING 7819
SWIDTH 518 0
DWIDTH 14 0
BBX 14 18 0 0
BITMAP
0300
0780
0780
0700
0000
0000
FEFC
3C70
1C60
1EC0
0F80
0780
0780
0FC0
19E0
18F0
3078
F9FC
ENDCHAR
STARTCHAR 1E8C
ENCODING 7820
SWIDTH 629 0
DWIDTH 17 0
BBX 17 22 0 0
BITMAP
073800
0F7800
0F7800
063000
000000
FF3F00
3C0C00
1C1800
1E1800
0F3000
077000
07E000
03C000
01C000
03E000
03F000
067000
0C7800
0C3C00
181C00
381E00
FC3F80
ENDCHAR
STARTCHAR 1E8D
ENCODING 7821
SWIDTH 518 0
DWIDTH 14 0
BBX 14 18 0 0
BITMAP
0C60
1EF0
1EF0
1CE0
0000
0000
FEFC
3C70
1C60
1EC0
0F80
0780
0780
0FC0
19E0
18F0
3078
F9FC
ENDCHAR
STARTCHAR 1E8E
ENCODING 7822
SWIDTH 629 0
DWIDTH 17 0
BBX 16 22 0 0
BITMAP
01C0
03C0
03C0
0180
0000
F81F
3C0E
1C0C
0E18
0F18
0730
0730
03E0
03E0
01C0
01C0
01C0
01C0
01C0
01C0
01C0
07F0
ENDCHAR
STARTCHAR 1E8F
ENCODING 7823
SWIDTH 518 0
DWIDTH 14 0
BBX 15 24 -1 -6
BITMAP
01C0
03C0
03C0
0380
0000
0000
7E3E
3C18
1C18
1E10
0E30
0F30
0760
0760
03C0
03C0
03C0
0180
0180
0300
0300
7E00
7C00
F800
ENDCHAR
STARTCHAR 1E90
ENCODING 7824
SWIDTH 555 0
DWIDTH 15 0
BBX 13 23 1 0
BITMAP
0700
0F80
1FC0
18E0
2020
0000
7FF8
60F0
40F0
C1E0
01C0
03C0
0780
0780
0F00
0F00
1E00
3C00
3C00
7818
7818
F018
FFF8
ENDCHAR
STARTCHAR 1E91
ENCODING 7825
SWIDTH 481 0
DWIDTH 13 0
BBX 11 20 1 0
BITMAP
0E00
0F00
1F00
3B80
31C0
6040
0000
0000
7FE0
43C0
43C0
8780
0F00
0F00
1E00
3C00
3820
7860
F060
FFE0
ENDCHAR
STARTCHAR 1E92
ENCODING 7826
SWIDTH 555 0
DWIDTH 15 0
BBX 13 23 1 -6
BITMAP
7FF8
60F0
40F0
C1E0
01C0
03C0
0780
0780
0F00
0F00
1E00
3C00
3C00
7818
7818
F018
FFF8
0000
0000
0700
0F00
0F00
0E00
ENDCHAR
STARTCHAR 1E93
ENCODING 7827
SWIDTH 481 0
DWIDTH 13 0
BBX 11 18 1 -6
BITMAP
7FE0
43C0
43C0
8780
0F00
0F00
1E00
3C00
3820
7860
F060
FFE0
0000
0000
0E00
1E00
1E00
1C00
ENDCHAR
STARTCHAR 1E94
ENCODING 7828
SWIDTH 555 0
DWIDTH 15 0
BBX 13 21 1 -4
BITMAP
7FF8
60F0
40F0
C1E0
01C0
03C0
0780
0780
0F00
0F00
1E00
3C00
3C00
7818
7818
F018
FFF8
0000
0000
7FF0
7FE0
ENDCHAR
STARTCHAR 1E95
ENCODING 7829
SWIDTH 481 0
DWIDTH 13 0
BBX 11 16 1 -4
BITMAP
7FE0
43C0
43C0
8780
0F00
0F00
1E00
3C00
3820
7860
F060
FFE0
0000
0000
FFE0
FFC0
ENDCHAR
STARTCHAR 1E96
ENCODING 7830
SWIDTH 592 0
DWIDTH 16 0
BBX 15 24 1 -4
BITMAP
1800
F800
3800
3800
3800
3800
3800
3800
38F0
3BF8
3E38
3838
3838
3838
3838
3838
3838
3838
3838
FEFE
0000
0000
3FF8
7FF0
ENDCHAR
STARTCHAR 1E97
ENCODING 7831
SWIDTH 370 0
DWIDTH 10 0
BBX 10 22 0 0
BITMAP
2100
7BC0
7BC0
7380
0000
0800
1800
3800
3800
3800
FFC0
3800
3800
3800
3800
3800
3800
3800
3800
3880
3FC0
1E00
ENDCHAR
STARTCHAR 1E98
ENCODING 7832
SWIDTH 703 0
DWIDTH 19 0
BBX 19 19 0 0
BITMAP
00F000
019800
019800
019000
00E000
000000
000000
FC21E0
7860C0
3870C0
38F180
1CF980
1CB980
1D9F00
0F1F00
0F1F00
0F0E00
060E00
040400
ENDCHAR
STARTCHAR 1E99
ENCODING 7833
SWIDTH 518 0
DWIDTH 14 0
BBX 15 25 -1 -6
BITMAP
01C0
0660
0660
0660
0380
0000
0000
7E3E
3C18
1C18
1E10
0E30
0F30
0760
0760
03C0
03C0
03C0
0180
0180
0300
0300
7E00
7C00
F800
ENDCHAR
STARTCHAR 1EA0
ENCODING 7840
SWIDTH 629 0
DWIDTH 17 0
BBX 17 23 0 -6
BITMAP
00C000
01C000
03C000
03E000
02E000
06F000
067000
067000
0C7800
0C3800
0FF800
181C00
181C00
101C00
300E00
300E00
FC3F80
000000
000000
01C000
03C000
03C000
038000
ENDCHAR
STARTCHAR 1EA1
ENCODING 7841
SWIDTH 481 0
DWIDTH 13 0
BBX 12 18 1 -6
BITMAP
1F80
71C0
F1C0
81C0
03C0
3FC0
71C0
E1C0
E1C0
E3F0
FDE0
7980
0000
0000
0E00
1E00
1E00
0C00
ENDCHAR
STARTCHAR 1EA2
ENCODING 7842
SWIDTH 629 0
DWIDTH 17 0
BBX 17 23 0 0
BITMAP
01E000
036000
00C000
018000
00C000
000000
00C000
01C000
03C000
03E000
02E000
06F000
067000
067000
0C7800
0C3800
0FF800
181C00
181C00
101C00
300E00
300E00
FC3F80
ENDCHAR
STARTCHAR 1EA3
ENCODING 7843
SWIDTH 481 0
DWIDTH 13 0
BBX 12 19 1 0
BITMAP
0700
0980
1700
0600
0600
0000
0000
1F80
71C0
F1C0
81C0
03C0
3FC0
71C0
E1C0
E1C0
E3F0
FDE0
7980
ENDCHAR
STARTCHAR 1EA4
ENCODING 7844
SWIDTH 629 0
DWIDTH 17 0
BBX 17 29 0 0
BITMAP
002000
007000
00F800
01E000
038000
020000
01C000
03E000
07F000
0E3000
081800
000000
00C000
01C000
03C000
03E000
02E000
06F000
067000
067000
0C7800
0C3800
0FF800
181C00
181C00
101C00
300E00
300E00
FC3F80
ENDCHAR
STARTCHAR 1EA5
ENCODING 7845
SWIDTH 481 0
DWIDTH 13 0
BBX 12 26 1 0
BITMAP
03C0
0380
0700
0600
0C00
0800
0600
0F00
1F00
3B80
30C0
6040
0000
0000
1F80
71C0
F1C0
81C0
03C0
3FC0
71C0
E1C0
E1C0
E3F0
FDE0
7980
ENDCHAR
STARTCHAR 1EA6
ENCODING 7846
SWIDTH 629 0
DWIDTH 17 0
BBX 17 29 0 0
BITMAP
040000
0E0000
0F0000
038000
00E000
004000
01C000
03E000
07F000
0E3000
081800
000000
00C000
01C000
03C000
03E000
02E000
06F000
067000
067000
0C7800
0C3800
0FF800
181C00
181C00
101C00
300E00
300E00
FC3F80
ENDCHAR
STARTCHAR 1EA7
ENCODING 7847
SWIDTH 481 0
DWIDTH 13 0
BBX 12 26 1 0
BITMAP
3800
3C00
1C00
0E00
0700
0200
0600
0F00
1F00
3B80
30C0
6040
0000
0000
1F80
71C0
F1C0
81C0
03C0
3FC0
71C0
E1C0
E1C0
E3F0
FDE0
7980
ENDCHAR
STARTCHAR 1EA8
ENCODING 7848
SWIDTH 629 0
DWIDTH 17 0
BBX 17 29 0 0
BITMAP
008000
03E000
036000
00C000
018000
014000
01C000
03E000
07F000
0E3000
081800
000000
00C000
01C000
03C000
03E000
02E000
06F000
067000
067000
0C7800
0C3800
0FF800
181C00
181C00
101C00
300E00
300E00
FC3F80
ENDCHAR
STARTCHAR 1EA9
ENCODING 7849
SWIDTH 481 0
DWIDTH 13 0
BBX 12 25 1 0
BITMAP
0F00
1980
0700
0600
0600
0600
0F00
1F00
3B80
30C0
6040
0000
0000
1F80
71C0
F1C0
81C0
03C0
3FC0
71C0
E1C0
E1C0
E3F0
FDE0
7980
ENDCHAR
STARTCHAR 1EAA
ENCODING 7850
SWIDTH 629 0
DWIDTH 17 0
BBX 17 28 0 0
BITMAP
020800
07FC00
0FF800
1FF000
104000
01C000
03E000
07F000
0E3000
081800
000000
00C000
01C000
03C000
03E000
02E000
06F000
067000
067000
0C7800
0C3800
0FF800
181C00
181C00
101C00
300E00
300E00
FC3F80
ENDCHAR
STARTCHAR 1EAB
ENCODING 7851
SWIDTH 481 0
DWIDTH 13 0
BBX 12 25 1 0
BITMAP
0020
3E40
3FC0
4780
4100
0600
0F00
1F00
3B80
30C0
6040
0000
0000
1F80
71C0
F1C0
81C0
03C0
3FC0
71C0
E1C0
E1C0
E3F0
FDE0
7980
ENDCHAR
STARTCHAR 1EAC
ENCODING 7852
SWIDTH 629 0
DWIDTH 17 0
BBX 17 29 0 -6
BITMAP
01C000
03E000
07F000
0E3000
081800
000000
00C000
01C000
03C000
03E000
02E000
06F000
067000
067000
0C7800
0C3800
0FF800
181C00
181C00
101C00
300E00
300E00
FC3F80
000000
000000
01C000
03C000
03C000
038000
ENDCHAR
STARTCHAR 1EAD
ENCODING 7853
SWIDTH 481 0
DWIDTH 13 0
BBX 12 26 1 -6
BITMAP
0600
0F00
1F00
3B80
30C0
6040
0000
0000
1F80
71C0
F1C0
81C0
03C0
3FC0
71C0
E1C0
E1C0
E3F0
FDE0
7980
0000
0000
0E00
1E00
1E00
0C00
ENDCHAR
STARTCHAR 1EAE
ENCODING 7854
SWIDTH 629 0
DWIDTH 17 0
BBX 17 28 0 0
BITMAP
002000
007800
00F800
01C000
030000
081800
0E3800
07F000
07E000
01C000
000000
00C000
01C000
03C000
03E000
02E000
06F000
067000
067000
0C7800
0C3800
0FF800
181C00
181C00
101C00
300E00
300E00
FC3F80
ENDCHAR
STARTCHAR 1EAF
ENCODING 7855
SWIDTH 481 0
DWIDTH 13 0
BBX 12 25 1 0
BITMAP
0200
03C0
0380
0700
0600
0C00
4040
70C0
3FC0
1F80
0F00
0000
0000
1F80
71C0
F1C0
81C0
03C0
3FC0
71C0
E1C0
E1C0
E3F0
FDE0
7980
ENDCHAR
STARTCHAR 1EB0
ENCODING 7856
SWIDTH 629 0
DWIDTH 17 0
BBX 17 28 0 0
BITMAP
040000
0E0000
0F8000
03C000
00E000
081800
0E3800
07F000
07E000
01C000
000000
00C000
01C000
03C000
03E000
02E000
06F000
067000
067000
0C7800
0C3800
0FF800
181C00
181C00
101C00
300E00
300E00
FC3F80
ENDCHAR
STARTCHAR 1EB1
ENCODING 7857
SWIDTH 481 0
DWIDTH 13 0
BBX 12 25 1 0
BITMAP
0800
3C00
1C00
0E00
0600
0300
4040
70C0
3FC0
1F80
0F00
0000
0000
1F80
71C0
F1C0
81C0
03C0
3FC0
71C0
E1C0
E1C0
E3F0
FDE0
7980
ENDCHAR
STARTCHAR 1EB2
ENCODING 7858
SWIDTH 629 0
DWIDTH 17 0
BBX 17 28 0 0
BITMAP
00C000
036000
026000
00C000
018000
085800
0E3800
07F000
07E000
01C000
000000
00C000
01C000
03C000
03E000
02E000
06F000
067000
067000
0C7800
0C3800
0FF800
181C00
181C00
101C00
300E00
300E00
FC3F80
ENDCHAR
STARTCHAR 1EB3
ENCODING 7859
SWIDTH 481 0
DWIDTH 13 0
BBX 12 24 1 0
BITMAP
0200
0F00
1980
0600
0600
4040
70C0
3FC0
1F80
0F00
0000
0000
1F80
71C0
F1C0
81C0
03C0
3FC0
71C0
E1C0
E1C0
E3F0
FDE0
7980
ENDCHAR
STARTCHAR 1EB4
ENCODING 7860
SWIDTH 629 0
DWIDTH 17 0
BBX 17 27 0 0
BITMAP
070C00
0FD800
0FF800
18F000
087800
0E3800
07F000
03E000
01C000
000000
00C000
01C000
03C000
03E000
02E000
06F000
067000
067000
0C7800
0C3800
0FF800
181C00
181C00
101C00
300E00
300E00
FC3F80
ENDCHAR
STARTCHAR 1EB5
ENCODING 7861
SWIDTH 481 0
DWIDTH 13 0
BBX 12 24 1 0
BITMAP
0040
1060
3FC0
6FC0
4380
4040
70C0
3FC0
1F80
0F00
0000
0000
1F80
71C0
F1C0
81C0
03C0
3FC0
71C0
E1C0
E1C0
E3F0
FDE0
7980
ENDCHAR
STARTCHAR 1EB6
ENCODING 7862
SWIDTH 629 0
DWIDTH 17 0
BBX 17 29 0 -6
BITMAP
081800
0E3800
07F000
07E000
01C000
000000
00C000
01C000
03C000
03E000
02E000
06F000
067000
067000
0C7800
0C3800
0FF800
181C00
181C00
101C00
300E00
300E00
FC3F80
000000
000000
01C000
03C000
03C000
038000
ENDCHAR
STARTCHAR 1EB7
ENCODING 7863
SWIDTH 481 0
DWIDTH 13 0
BBX 12 25 1 -6
BITMAP
4040
70C0
3FC0
1F80
0F00
0000
0000
1F80
71C0
F1C0
81C0
03C0
3FC0
71C0
E1C0
E1C0
E3F0
FDE0
7980
0000
0000
0E00
1E00
1E00
0C00
ENDCHAR
STARTCHAR 1EB8
ENCODING 7864
SWIDTH 518 0
DWIDTH 14 0
BBX 13 23 1 -6
BITMAP
FFF0
7830
7830
7820
7820
7800
7800
7800
7FC0
7880
7800
7800
7800
7810
7818
7830
FFF0
0000
0000
0600
0F00
0F00
0E00
ENDCHAR
STARTCHAR 1EB9
ENCODING 7865
SWIDTH 481 0
DWIDTH 13 0
BBX 11 18 1 -6
BITMAP
0F00
31C0
70C0
60E0
E0E0
FFC0
E000
E000
F040
78E0
3FC0
1F00
0000
0000
0600
0F00
0F00
0E00
ENDCHAR
STARTCHAR 1EBA
ENCODING 7866
SWIDTH 518 0
DWIDTH 14 0
BBX 13 23 1 0
BITMAP
0F80
0D80
0300
0600
0200
0000
FFF0
7830
7830
7820
7820
7800
7800
7800
7FC0
7880
7800
7800
7800
7810
7818
7830
FFF0
ENDCHAR
STARTCHAR 1EBB
ENCODING 7867
SWIDTH 481 0
DWIDTH 13 0
BBX 11 19 1 0
BITMAP
0700
0D80
0300
0600
0600
0000
0000
0F00
31C0
70C0
60E0
E0E0
FFC0
E000
E000
F040
78E0
3FC0
1F00
ENDCHAR
STARTCHAR 1EBC
ENCODING 7868
SWIDTH 518 0
DWIDTH 14 0
BBX 13 22 1 0
BITMAP
1E60
3FE0
7FC0
4380
0000
FFF0
7830
7830
7820
7820
7800
7800
7800
7FC0
7880
7800
7800
7800
7810
7818
7830
FFF0
ENDCHAR
STARTCHAR 1EBD
ENCODING 7869
SWIDTH 481 0
DWIDTH 13 0
BBX 11 19 1 0
BITMAP
0020
1E60
3FC0
67C0
4380
0000
0000
0F00
31C0
70C0
60E0
E0E0
FFC0
E000
E000
F040
78E0
3FC0
1F00
ENDCHAR
STARTCHAR 1EBE
ENCODING 7870
SWIDTH 518 0
DWIDTH 14 0
BBX 13 29 1 0
BITMAP
0100
01C0
03E0
0780
0C00
1000
0700
0F00
1F80
38C0
2060
0000
FFF0
7830
7830
7820
7820
7800
7800
7800
7FC0
7880
7800
7800
7800
7810
7818
7830
FFF0
ENDCHAR
STARTCHAR 1EBF
ENCODING 7871
SWIDTH 481 0
DWIDTH 13 0
BBX 11 26 1 0
BITMAP
01C0
03C0
0380
0700
0E00
0400
0600
0F00
1F80
1D80
30C0
2060
0000
0000
0F00
31C0
70C0
60E0
E0E0
FFC0
E000
E000
F040
78E0
3FC0
1F00
ENDCHAR
STARTCHAR 1EC0
ENCODING 7872
SWIDTH 518 0
DWIDTH 14 0
BBX 13 29 1 0
BITMAP
1000
3800
3C00
5E00
0300
0180
0700
0F00
1F80
38C0
2060
0000
FFF0
7830
7830
7820
7820
7800
7800
7800
7FC0
7880
7800
7800
7800
7810
7818
7830
FFF0
ENDCHAR
STARTCHAR 1EC1
ENCODING 7873
SWIDTH 481 0
DWIDTH 13 0
BBX 11 26 1 0
BITMAP
3C00
1C00
0E00
0600
0300
0100
0600
0F00
1F80
1D80
30C0
2060
0000
0000
0F00
31C0
70C0
60E0
E0E0
FFC0
E000
E000
F040
78E0
3FC0
1F00
ENDCHAR
STARTCHAR 1EC2
ENCODING 7874
SWIDTH 518 0
DWIDTH 14 0
BBX 13 29 1 0
BITMAP
0200
0F80
0D80
0300
0600
0400
0700
0F00
1F80
38C0
2060
0000
FFF0
7830
7830
7820
7820
7800
7800
7800
7FC0
7880
7800
7800
7800
7810
7818
7830
FFF0
ENDCHAR
STARTCHAR 1EC3
ENCODING 7875
SWIDTH 481 0
DWIDTH 13 0
BBX 11 25 1 0
BITMAP
0F80
0D80
0300
0600
0200
0600
0F00
1F80
1D80
30C0
2060
0000
0000
0F00
31C0
70C0
60E0
E0E0
FFC0
E000
E000
F040
78E0
3FC0
1F00
ENDCHAR
STARTCHAR 1EC4
ENCODING 7876
SWIDTH 518 0
DWIDTH 14 0
BBX 13 28 1 0
BITMAP
1040
3FE0
3FC0
7FC0
4100
0700
0F00
1F80
38C0
2060
0000
FFF0
7830
7830
7820
7820
7800
7800
7800
7FC0
7880
7800
7800
7800
7810
7818
7830
FFF0
ENDCHAR
STARTCHAR 1EC5
ENCODING 7877
SWIDTH 481 0
DWIDTH 13 0
BBX 11 25 1 0
BITMAP
0020
1E60
3FC0
67C0
4100
0600
0F00
1F80
1D80
30C0
2060
0000
0000
0F00
31C0
70C0
60E0
E0E0
FFC0
E000
E000
F040
78E0
3FC0
1F00
ENDCHAR
STARTCHAR 1EC6
ENCODING 7878
SWIDTH 518 0
DWIDTH 14 0
BBX 13 29 1 -6
BITMAP
0700
0F00
1F80
38C0
2060
0000
FFF0
7830
7830
7820
7820
7800
7800
7800
7FC0
7880
7800
7800
7800
7810
7818
7830
FFF0
0000
0000
0600
0F00
0F00
0E00
ENDCHAR
STARTCHAR 1EC7
ENCODING 7879
SWIDTH 481 0
DWIDTH 13 0
BBX 11 26 1 -6
BITMAP
0600
0F00
1F80
1D80
30C0
2060
0000
0000
0F00
31C0
70C0
60E0
E0E0
FFC0
E000
E000
F040
78E0
3FC0
1F00
0000
0000
0600
0F00
0F00
0E00
ENDCHAR
STARTCHAR 1EC8
ENCODING 7880
SWIDTH 333 0
DWIDTH 9 0
BBX 7 23 1 0
BITMAP
3C
6C
18
30
18
00
FE
38
38
38
38
38
38
38
38
38
38
38
38
38
38
38
FE
ENDCHAR
STARTCHAR 1EC9
ENCODING 7881
SWIDTH 296 0
DWIDTH 8 0
BBX 7 19 1 0
BITMAP
38
6C
18
30
30
08
00
38
F8
38
38
38
38
38
38
38
38
38
FE
ENDCHAR
STARTCHAR 1ECA
ENCODING 7882
SWIDTH 333 0
DWIDTH 9 0
BBX 7 23 1 -6
BITMAP
FE
38
38
38
38
38
38
38
38
38
38
38
38
38
38
38
FE
00
00
38
78
78
70
ENDCHAR
STARTCHAR 1ECB
ENCODING 7883
SWIDTH 296 0
DWIDTH 8 0
BBX 7 24 1 -6
BITMAP
38
78
70
00
00
00
38
F8
38
38
38
38
38
38
38
38
38
FE
00
00
38
78
78
70
ENDCHAR
STARTCHAR 1ECC
ENCODING 7884
SWIDTH 629 0
DWIDTH 17 0
BBX 15 23 1 -6
BITMAP
07C0
1870
3038
301C
601C
600E
E00E
E00E
E00E
E00E
E00E
E00C
701C
7018
3818
1C20
07C0
0000
0000
0380
0780
0780
0300
ENDCHAR
STARTCHAR 1ECD
ENCODING 7885
SWIDTH 518 0
DWIDTH 14 0
BBX 12 18 1 -6
BITMAP
0F80
31C0
70E0
6070
E070
E070
E070
E070
E060
7060
38C0
1F00
0000
0000
0700
0F00
0F00
0600
ENDCHAR
STARTCHAR 1ECE
ENCODING 7886
SWIDTH 629 0
DWIDTH 17 0
BBX 15 23 1 0
BITMAP
03C0
06C0
0180
0300
0180
0000
07C0
1870
3038
301C
601C
600E
E00E
E00E
E00E
E00E
E00E
E00C
701C
7018
3818
1C20
07C0
ENDCHAR
STARTCHAR 1ECF
ENCODING 7887
SWIDTH 518 0
DWIDTH 14 0
BBX 12 19 1 0
BITMAP
0780
0D80
0180
0600
0300
0000
0000
0F80
31C0
70E0
6070
E070
E070
E070
E070
E060
7060
38C0
1F00
ENDCHAR
STARTCHAR 1ED0
ENCODING 7888
SWIDTH 629 0
DWIDTH 17 0
BBX 15 29 1 0
BITMAP
0040
00E0
01F0
03C0
0700
0400
0380
07C0
0FE0
1C60
1030
0000
07C0
1870
3038
301C
601C
600E
E00E
E00E
E00E
E00E
E00E
E00C
701C
7018
3818
1C20
07C0
ENDCHAR
STARTCHAR 1ED1
ENCODING 7889
SWIDTH 518 0
DWIDTH 14 0
BBX 12 26 1 0
BITMAP
01C0
03E0
0380
0700
0600
0C00
0700
0F00
0F80
1DC0
38C0
2060
0000
0000
0F80
31C0
70E0
6070
E070
E070
E070
E070
E060
7060
38C0
1F00
ENDCHAR
STARTCHAR 1ED2
ENCODING 7890
SWIDTH 629 0
DWIDTH 17 0
BBX 15 29 1 0
BITMAP
0800
1C00
1E00
0780
01C0
0080
0380
07C0
0FE0
1C60
1030
0000
07C0
1870
3038
301C
601C
600E
E00E
E00E
E00E
E00E
E00E
E00C
701C
7018
3818
1C20
07C0
ENDCHAR
STARTCHAR 1ED3
ENCODING 7891
SWIDTH 518 0
DWIDTH 14 0
BBX 12 26 1 0
BITMAP
1C00
3E00
0E00
0700
0300
0180
0700
0F00
0F80
1DC0
38C0
2060
0000
0000
0F80
31C0
70E0
6070
E070
E070
E070
E070
E060
7060
38C0
1F00
ENDCHAR
STARTCHAR 1ED4
ENCODING 7892
SWIDTH 629 0
DWIDTH 17 0
BBX 15 29 1 0
BITMAP
0100
03C0
06C0
0180
0300
0180
0380
07C0
0FE0
1C60
1030
0000
07C0
1870
3038
301C
601C
600E
E00E
E00E
E00E
E00E
E00E
E00C
701C
7018
3818
1C20
07C0
ENDCHAR
STARTCHAR 1ED5
ENCODING 7893
SWIDTH 518 0
DWIDTH 14 0
BBX 12 25 1 0
BITMAP
0780
0D80
0300
0600
0300
0700
0F00
0F80
1DC0
38C0
2060
0000
0000
0F80
31C0
70E0
6070
E070
E070
E070
E070
E060
7060
38C0
1F00
ENDCHAR
STARTCHAR 1ED6
ENCODING 7894
SWIDTH 629 0
DWIDTH 17 0
BBX 15 28 1 0
BITMAP
0410
0FF8
1FF0
1FE0
2080
0380
07C0
0FE0
1C60
1030
0000
07C0
1870
3038
301C
601C
600E
E00E
E00E
E00E
E00E
E00E
E00C
701C
7018
3818
1C20
07C0
ENDCHAR
STARTCHAR 1ED7
ENCODING 7895
SWIDTH 518 0
DWIDTH 14 0
BBX 12 25 1 0
BITMAP
0030
1E60
3FE0
23C0
4180
0700
0F00
0F80
1DC0
38C0
2060
0000
0000
0F80
31C0
70E0
6070
E070
E070
E070
E070
E060
7060
38C0
1F00
ENDCHAR
STARTCHAR 1ED8
ENCODING 7896
SWIDTH 629 0
DWIDTH 17 0
BBX 15 29 1 -6
BITMAP
0380
07C0
0FE0
1C60
1030
0000
07C0
1870
3038
301C
601C
600E
E00E
E00E
E00E
E00E
E00E
E00C
701C
7018
3818
1C20
07C0
0000
0000
0380
0780
0780
0300
ENDCHAR
STARTCHAR 1ED9
ENCODING 7897
SWIDTH 518 0
DWIDTH 14 0
BBX 12 26 1 -6
BITMAP
0700
0F00
0F80
1DC0
38C0
2060
0000
0000
0F80
31C0
70E0
6070
E070
E070
E070
E070
E060
7060
38C0
1F00
0000
0000
0700
0F00
0F00
0600
ENDCHAR
STARTCHAR 1EDA
ENCODING 7898
SWIDTH 629 0
DWIDTH 17 0
BBX 16 23 1 0
BITMAP
0060
01F0
03C0
0702
040F
0007
07E6
087C
3038
301C
601C
600E
E00E
E00E
E00E
E00E
E00E
E00C
701C
7018
3818
1C20
07C0
ENDCHAR
STARTCHAR 1EDB
ENCODING 7899
SWIDTH 592 0
DWIDTH 16 0
BBX 14 20 1 0
BITMAP
01C0
01E0
0380
0300
060C
041C
003C
0018
0F98
31E0
70E0
6070
E070
E070
E070
E070
E060
7060
38C0
1F00
ENDCHAR
STARTCHAR 1EDC
ENCODING 7900
SWIDTH 629 0
DWIDTH 17 0
BBX 16 23 1 0
BITMAP
0C00
1E00
0F00
0382
00CF
0007
07E6
087C
3038
301C
601C
600E
E00E
E00E
E00E
E00E
E00E
E00C
701C
7018
3818
1C20
07C0
ENDCHAR
STARTCHAR 1EDD
ENCODING 7901
SWIDTH 592 0
DWIDTH 16 0
BBX 14 20 1 0
BITMAP
1C00
1E00
0E00
0700
030C
019C
003C
0018
0F98
31E0
70E0
6070
E070
E070
E070
E070
E060
7060
38C0
1F00
ENDCHAR
STARTCHAR 1EDE
ENCODING 7902
SWIDTH 629 0
DWIDTH 17 0
BBX 16 23 1 0
BITMAP
03C0
06C0
0180
0302
018F
0007
07E6
087C
3038
301C
601C
600E
E00E
E00E
E00E
E00E
E00E
E00C
701C
7018
3818
1C20
07C0
ENDCHAR
STARTCHAR 1EDF
ENCODING 7903
SWIDTH 592 0
DWIDTH 16 0
BBX 14 19 1 0
BITMAP
0780
0D80
0180
070C
031C
003C
0018
0F98
31E0
70E0
6070
E070
E070
E070
E070
E060
7060
38C0
1F00
ENDCHAR
STARTCHAR 1EE0
ENCODING 7904
SWIDTH 629 0
DWIDTH 17 0
BBX 16 22 1 0
BITMAP
0F10
1FF0
1FE2
20CF
0007
07E6
087C
3038
301C
601C
600E
E00E
E00E
E00E
E00E
E00E
E00C
701C
7018
3818
1C20
07C0
ENDCHAR
STARTCHAR 1EE1
ENCODING 7905
SWIDTH 592 0
DWIDTH 16 0
BBX 14 19 1 0
BITMAP
0030
0E20
1FE0
23CC
619C
003C
0018
0F98
31E0
70E0
6070
E070
E070
E070
E070
E060
7060
38C0
1F00
ENDCHAR
STARTCHAR 1EE2
ENCODING 7906
SWIDTH 629 0
DWIDTH 17 0
BBX 16 26 1 -6
BITMAP
0002
000F
0007
07E6
087C
3038
301C
601C
600E
E00E
E00E
E00E
E00E
E00E
E00C
701C
7018
3818
1C20
07C0
0000
0000
0380
0780
0780
0700
ENDCHAR
STARTCHAR 1EE3
ENCODING 7907
SWIDTH 592 0
DWIDTH 16 0
BBX 14 22 1 -6
BITMAP
000C
001C
003C
0018
0F98
31E0
70E0
6070
E070
E070
E070
E070
E060
7060
38C0
1F00
0000
0000
0700
0F00
0F00
0600
ENDCHAR
STARTCHAR 1EE4
ENCODING 7908
SWIDTH 666 0
DWIDTH 18 0
BBX 17 23 0 -6
BITMAP
FE1F80
380600
380600
380600
380600
380600
380600
380600
380600
380600
380600
380600
380600
380400
1C0C00
0E1800
03E000
000000
000000
00E000
01E000
01E000
01C000
ENDCHAR
STARTCHAR 1EE5
ENCODING 7909
SWIDTH 555 0
DWIDTH 15 0
BBX 15 18 0 -6
BITMAP
3838
F8F8
3838
3838
3838
3838
3838
3838
3838
38FA
3FBE
1E38
0000
0000
0380
0380
0780
0380
ENDCHAR
STARTCHAR 1EE6
ENCODING 7910
SWIDTH 666 0
DWIDTH 18 0
BBX 17 23 0 0
BITMAP
00F000
01B000
006000
00C000
004000
000000
FE1F80
380600
380600
380600
380600
380600
380600
380600
380600
380600
380600
380600
380600
380400
1C0C00
0E1800
03E000
ENDCHAR
STARTCHAR 1EE7
ENCODING 7911
SWIDTH 555 0
DWIDTH 15 0
BBX 15 19 0 0
BITMAP
03C0
06C0
00C0
0180
0380
0000
0000
3838
F8F8
3838
3838
3838
3838
3838
3838
3838
38FA
3FBE
1E38
ENDCHAR
STARTCHAR 1EE8
ENCODING 7912
SWIDTH 740 0
DWIDTH 20 0
BBX 20 23 0 0
BITMAP
001800
003C00
00F800
01C030
0100F0
000070
FE0FF0
3803C0
380380
380300
380300
380300
380300
380300
380300
380300
380300
380300
380300
180200
1C0600
0E0C00
03F000
ENDCHAR
STARTCHAR 1EE9
ENCODING 7913
SWIDTH 666 0
DWIDTH 18 0
BBX 18 20 0 0
BITMAP
00E000
00F000
01C000
018000
0300C0
0203C0
0001C0
083980
F8FB00
383E00
383800
383800
383800
383800
383800
383800
383800
38FA00
3FBC00
1F3800
ENDCHAR
STARTCHAR 1EEA
ENCODING 7914
SWIDTH 740 0
DWIDTH 20 0
BBX 20 23 0 0
BITMAP
030000
078000
03C000
00E030
0010F0
000070
FE0FF0
3803C0
380380
380300
380300
380300
380300
380300
380300
380300
380300
380300
380300
180200
1C0600
0E0C00
03F000
ENDCHAR
STARTCHAR 1EEB
ENCODING 7915
SWIDTH 666 0
DWIDTH 18 0
BBX 18 20 0 0
BITMAP
0E0000
0F0000
070000
038000
0180C0
00C3C0
0001C0
083980
F8FB00
383E00
383800
383800
383800
383800
383800
383800
383800
38FA00
3FBC00
1F3800
ENDCHAR
STARTCHAR 1EEC
ENCODING 7916
SWIDTH 740 0
DWIDTH 20 0
BBX 20 23 0 0
BITMAP
00F000
01B000
006000
00C030
0060F0
000070
FE0FF0
3803C0
380380
380300
380300
380300
380300
380300
380300
380300
380300
380300
380300
180200
1C0600
0E0C00
03F000
ENDCHAR
STARTCHAR 1EED
ENCODING 7917
SWIDTH 666 0
DWIDTH 18 0
BBX 18 19 0 0
BITMAP
03C000
06C000
00C000
0180C0
0383C0
0001C0
083980
F8FB00
383E00
383800
383800
383800
383800
383800
383800
383800
38FA00
3FBC00
1F3800
ENDCHAR
STARTCHAR 1EEE
ENCODING 7918
SWIDTH 740 0
DWIDTH 20 0
BBX 20 22 0 0
BITMAP
03E600
07FC00
07F830
0C30F0
000070
FE0FF0
3803C0
380380
380300
380300
380300
380300
380300
380300
380300
380300
380300
380300
180200
1C0600
0E0C00
03F000
ENDCHAR
STARTCHAR 1EEF
ENCODING 7919
SWIDTH 666 0
DWIDTH 18 0
BBX 18 19 0 0
BITMAP
000800
071000
0FF000
11E0C0
30E3C0
0001C0
083980
F8FB00
383E00
383800
383800
383800
383800
383800
383800
383800
38FA00
3FBC00
1F3800
ENDCHAR
STARTCHAR 1EF0
ENCODING 7920
SWIDTH 740 0
DWIDTH 20 0
BBX 20 26 0 -6
BITMAP
000030
0000F0
000070
FE0FF0
3803C0
380380
380300
380300
380300
380300
380300
380300
380300
380300
380300
380300
180200
1C0600
0E0C00
03F000
000000
000000
00E000
01E000
01E000
00C000
ENDCHAR
STARTCHAR 1EF1
ENCODING 7921
SWIDTH 666 0
DWIDTH 18 0
BBX 18 22 0 -6
BITMAP
0000C0
0003C0
0001C0
083980
F8FB00
383E00
383800
383800
383800
383800
383800
383800
383800
38FA00
3FBC00
1F3800
000000
000000
038000
038000
078000
038000
ENDCHAR
STARTCHAR 1EF2
ENCODING 7922
SWIDTH 629 0
DWIDTH 17 0
BBX 16 23 0 0
BITMAP
0600
0F00
0780
01C0
0060
0000
F81F
3C0E
1C0C
0E18
0F18
0730
0730
03E0
03E0
01C0
01C0
01C0
01C0
01C0
01C0
01C0
07F0
ENDCHAR
STARTCHAR 1EF3
ENCODING 7923
SWIDTH 518 0
DWIDTH 14 0
BBX 15 26 -1 -6
BITMAP
0F00
0F00
0780
0180
00C0
0040
0000
0000
7E3E
3C18
1C18
1E10
0E30
0F30
0760
0760
03C0
03C0
03C0
0180
0180
0300
0300
7E00
7C00
F800
ENDCHAR
STARTCHAR 1EF4
ENCODING 7924
SWIDTH 629 0
DWIDTH 17 0
BBX 16 23 0 -6
BITMAP
F81F
3C0E
1C0C
0E18
0F18
0730
0730
03E0
03E0
01C0
01C0
01C0
01C0
01C0
01C0
01C0
07F0
0000
0000
01C0
03C0
03C0
0380
ENDCHAR
STARTCHAR 1EF5
ENCODING 7925
SWIDTH 518 0
DWIDTH 14 0
BBX 15 18 -1 -6
BITMAP
7E3E
3C18
1C18
1E10
0E30
0F30
0760
0760
03C0
03C0
03C0
0180
0180
0300
0338
7E3C
7C38
F838
ENDCHAR
STARTCHAR 1EF6
ENCODING 7926
SWIDTH 629 0
DWIDTH 17 0
BBX 16 23 0 0
BITMAP
01E0
0360
00C0
0180
00C0
0000
F81F
3C0E
1C0C
0E18
0F18
0730
0730
03E0
03E0
01C0
01C0
01C0
01C0
01C0
01C0
01C0
07F0
ENDCHAR
STARTCHAR 1EF7
ENCODING 7927
SWIDTH 518 0
DWIDTH 14 0
BBX 15 25 -1 -6
BITMAP
01C0
0360
00C0
0180
0180
0040
0000
7E3E
3C18
1C18
1E10
0E30
0F30
0760
0760
03C0
03C0
03C0
0180
0180
0300
0300
7E00
7C00
F800
ENDCHAR
STARTCHAR 1EF8
ENCODING 7928
SWIDTH 629 0
DWIDTH 17 0
BBX 16 22 0 0
BITMAP
0788
0FF8
0FF0
1060
0000
F81F
3C0E
1C0C
0E18
0F18
0730
0730
03E0
03E0
01C0
01C0
01C0
01C0
01C0
01C0
01C0
07F0
ENDCHAR
STARTCHAR 1EF9
ENCODING 7929
SWIDTH 518 0
DWIDTH 14 0
BBX 15 25 -1 -6
BITMAP
0008
0798
0FF8
09F0
1060
0000
0000
7E3E
3C18
1C18
1E10
0E30
0F30
0760
0760
03C0
03C0
03C0
0180
0180
0300
0300
7E00
7C00
F800
ENDCHAR
STARTCHAR 2011
ENCODING 8209
SWIDTH 370 0
DWIDTH 10 0
BBX 8 1 1 6
BITMAP
FF
ENDCHAR
STARTCHAR 2013
ENCODING 8211
SWIDTH 481 0
DWIDTH 13 0
BBX 11 1 1 6
BITMAP
FFE0
ENDCHAR
STARTCHAR 2014
ENCODING 8212
SWIDTH 814 0
DWIDTH 22 0
BBX 20 1 1 6
BITMAP
FFFFF0
ENDCHAR
STARTCHAR 2018
ENCODING 8216
SWIDTH 259 0
DWIDTH 7 0
BBX 4 8 1 11
BITMAP
20
60
40
C0
C0
F0
F0
40
ENDCHAR
STARTCHAR 2019
ENCODING 8217
SWIDTH 259 0
DWIDTH 7 0
BBX 4 8 2 11
BITMAP
20
F0
F0
30
30
20
60
40
ENDCHAR
STARTCHAR 201A
ENCODING 8218
SWIDTH 259 0
DWIDTH 7 0
BBX 4 8 2 -5
BITMAP
20
F0
F0
30
30
20
60
40
ENDCHAR
STARTCHAR 201C
ENCODING 8220
SWIDTH 481 0
DWIDTH 13 0
BBX 11 8 1 11
BITMAP
2040
60C0
4080
C180
C180
F1E0
F1E0
4080
ENDCHAR
STARTCHAR 201D
ENCODING 8221
SWIDTH 481 0
DWIDTH 13 0
BBX 11 8 1 11
BITMAP
2040
F1E0
F1E0
3060
3060
2040
60C0
4080
ENDCHAR
STARTCHAR 201E
ENCODING 8222
SWIDTH 481 0
DWIDTH 13 0
BBX 11 8 1 -5
BITMAP
2040
F1E0
F1E0
3060
3060
2040
60C0
4080
ENDCHAR
STARTCHAR 2020
ENCODING 8224
SWIDTH 481 0
DWIDTH 13 0
BBX 12 21 1 -1
BITMAP
0300
0F00
0E00
0600
4610
7FF0
FFF0
E6E0
0600
0600
0F00
0F00
0F00
0600
0600
0600
0600
0600
0600
0600
0D00
ENDCHAR
STARTCHAR 2021
ENCODING 8225
SWIDTH 481 0
DWIDTH 13 0
BBX 12 21 1 -1
BITMAP
0300
0F00
0F00
0600
4610
7FF0
FFE0
E6E0
0600
0E00
0F00
0F00
0600
7670
7FF0
FFE0
8620
0600
0F00
0F00
0C00
ENDCHAR
STARTCHAR 2022
ENCODING 8226
SWIDTH 296 0
DWIDTH 8 0
BBX 6 7 1 5
BITMAP
78
78
FC
FC
F8
F8
70
ENDCHAR
STARTCHAR 2026
ENCODING 8230
SWIDTH 814 0
DWIDTH 22 0
BBX 19 4 2 -1
BITMAP
70E0E0
F1E1E0
F1E1E0
E1C1C0
ENDCHAR
STARTCHAR 2030
ENCODING 8240
SWIDTH 1074 0
DWIDTH 29 0
BBX 27 17 1 0
BITMAP
00010000
3C060000
660E0000
C30C0000
C3180000
C3300000
C3700000
C3600000
66C00000
3D8F0780
03908840
0330D860
0630D860
0C30D860
1830D860
38198CC0
300F0780
ENDCHAR
STARTCHAR 2039
ENCODING 8249
SWIDTH 333 0
DWIDTH 9 0
BBX 6 12 1 0
BITMAP
04
08
18
30
70
E0
E0
70
30
18
08
04
ENDCHAR
STARTCHAR 203A
ENCODING 8250
SWIDTH 333 0
DWIDTH 9 0
BBX 6 12 2 0
BITMAP
80
C0
60
70
38
3C
3C
38
70
60
C0
80
ENDCHAR
STARTCHAR 2044
ENCODING 8260
SWIDTH 629 0
DWIDTH 17 0
BBX 14 16 2 0
BITMAP
000C
0018
0030
0060
0060
00C0
0180
0300
0700
0600
0C00
1800
3000
3000
6000
C000
ENDCHAR
STARTCHAR 20AC
ENCODING 8364
SWIDTH 518 0
DWIDTH 14 0
BBX 13 16 0 0
BITMAP
03F0
0E78
1C30
1800
3800
3800
7FC0
3800
3800
FF80
3800
3800
3C00
1C08
0E18
07E0
ENDCHAR
STARTCHAR 2122
ENCODING 8482
SWIDTH 592 0
DWIDTH 16 0
BBX 15 6 1 11
BITMAP
FF8E
B58C
319C
316C
316C
7BDE
ENDCHAR
STARTCHAR 2126
ENCODING 8486
SWIDTH 666 0
DWIDTH 18 0
BBX 15 17 1 0
BITMAP
07E0
1838
301C
701C
600E
E00E
E00E
E00E
E00E
E00C
701C
7018
3830
9C72
8C62
FC7E
FC7E
ENDCHAR
STARTCHAR 2202
ENCODING 8706
SWIDTH 518 0
DWIDTH 14 0
BBX 12 18 1 0
BITMAP
1F00
61C0
40E0
00E0
0060
0070
0F70
31F0
70F0
6070
E070
E070
E070
E060
E060
70C0
3880
1F00
ENDCHAR
STARTCHAR 2205
ENCODING 8709
SWIDTH 666 0
DWIDTH 18 0
BBX 16 19 1 -1
BITMAP
0003
07E7
0C3E
303C
303E
6076
40F7
C0E3
C1C3
C3C3
C383
C703
EF02
6E06
7C0C
3C0C
7C30
E7E0
C000
ENDCHAR
STARTCHAR 2206
ENCODING 8710
SWIDTH 592 0
DWIDTH 16 0
BBX 15 17 1 0
BITMAP
0100
0780
0780
0F80
0FC0
0DC0
19E0
18E0
18E0
30F0
3070
7078
6078
6038
E03C
C01C
FFFE
ENDCHAR
STARTCHAR 220F
ENCODING 8719
SWIDTH 666 0
DWIDTH 18 0
BBX 17 17 0 0
BITMAP
FFFF80
380E00
380E00
380E00
380E00
380E00
380E00
380E00
380E00
380E00
380E00
380E00
380E00
380E00
380E00
380E00
FE3F80
ENDCHAR
STARTCHAR 2211
ENCODING 8721
SWIDTH 555 0
DWIDTH 15 0
BBX 13 17 1 0
BITMAP
FFF0
F030
7810
3C10
3C00
1E00
0E00
0F00
0600
0C00
0C00
1808
3018
3018
7FF8
FFF8
FFF8
ENDCHAR
STARTCHAR 2212
ENCODING 8722
SWIDTH 407 0
DWIDTH 11 0
BBX 10 1 1 7
BITMAP
FFC0
ENDCHAR
STARTCHAR 2219
ENCODING 8729
SWIDTH 222 0
DWIDTH 6 0
BBX 4 4 1 7
BITMAP
70
F0
F0
E0
ENDCHAR
STARTCHAR 221A
ENCODING 8730
SWIDTH 629 0
DWIDTH 17 0
BBX 17 19 0 0
BITMAP
000780
000780
000C00
000C00
000C00
000800
101800
F81800
381800
1C3000
1C3000
0E3000
0E2000
076000
076000
03E000
03C000
01C000
018000
ENDCHAR
STARTCHAR 221E
ENCODING 8734
SWIDTH 666 0
DWIDTH 18 0
BBX 16 7 1 4
BITMAP
1C1E
7F3F
C7E7
C3C3
E3E3
FCFE
7878
ENDCHAR
STARTCHAR 222B
ENCODING 8747
SWIDTH 296 0
DWIDTH 8 0
BBX 14 25 -3 -6
BITMAP
00FC
0198
0310
0300
0700
0700
0700
0700
0700
0700
0700
0780
0780
0380
0380
0380
0380
0380
0380
0380
0380
0300
6600
FC00
7800
ENDCHAR
STARTCHAR 2248
ENCODING 8776
SWIDTH 444 0
DWIDTH 12 0
BBX 11 7 1 4
BITMAP
7FE0
8000
0000
0000
0000
7840
87A0
ENDCHAR
STARTCHAR 2260
ENCODING 8800
SWIDTH 444 0
DWIDTH 12 0
BBX 11 12 1 1
BITMAP
00C0
0180
0380
FFE0
0E00
0C00
1C00
FFE0
3000
7000
6000
C000
ENDCHAR
STARTCHAR 2264
ENCODING 8804
SWIDTH 444 0
DWIDTH 12 0
BBX 11 11 1 3
BITMAP
0060
03C0
1F80
FC00
F000
FC00
3F00
07C0
00E0
0000
FFE0
ENDCHAR
STARTCHAR 2265
ENCODING 8805
SWIDTH 444 0
DWIDTH 12 0
BBX 11 11 1 3
BITMAP
C000
F800
3F00
07C0
01E0
0FC0
7E00
F000
8000
0000
FFE0
ENDCHAR
STARTCHAR 25CA
ENCODING 9674
SWIDTH 370 0
DWIDTH 10 0
BBX 10 17 0 0
BITMAP
0400
1C00
1E00
3E00
3700
2700
6380
4380
E1C0
E180
7180
7300
3B00
3E00
1E00
1C00
0800
ENDCHAR
STARTCHAR 25CC
ENCODING 9676
SWIDTH 555 0
DWIDTH 15 0
BBX 13 12 1 0
BITMAP
1F80
3060
0000
C018
0000
8010
0000
0000
C018
3060
1980
0600
ENDCHAR
STARTCHAR 2C60
ENCODING 11360
SWIDTH 518 0
DWIDTH 14 0
BBX 13 17 1 0
BITMAP
FE00
7C00
3800
3800
3800
3800
3800
FF80
3800
3800
FF80
3800
3800
3808
3818
3818
FFF0
ENDCHAR
STARTCHAR 2C61
ENCODING 11361
SWIDTH 333 0
DWIDTH 9 0
BBX 7 20 1 0
BITMAP
18
F8
38
38
38
38
38
38
FE
38
38
FE
38
38
38
38
38
38
38
FE
ENDCHAR
STARTCHAR 2C62
ENCODING 11362
SWIDTH 518 0
DWIDTH 14 0
BBX 15 17 -1 0
BITMAP
3F80
1E00
0E00
0E00
0E00
0E00
0E40
3E60
7F80
4E00
CE00
0E00
0E00
0E02
0E06
0E06
3FFC
ENDCHAR
STARTCHAR A789
ENCODING 42889
SWIDTH 222 0
DWIDTH 6 0
BBX 4 10 1 1
BITMAP
70
F0
F0
E0
00
00
70
F0
F0
E0
ENDCHAR
STARTCHAR A78A
ENCODING 42890
SWIDTH 333 0
DWIDTH 9 0
BBX 8 4 1 4
BITMAP
FF
00
00
FF
ENDCHAR
STARTCHAR A78B
ENCODING 42891
SWIDTH 296 0
DWIDTH 8 0
BBX 4 12 2 9
BITMAP
70
F0
F0
E0
E0
E0
E0
E0
60
60
60
60
ENDCHAR
STARTCHAR A78C
ENCODING 42892
SWIDTH 296 0
DWIDTH 8 0
BBX 4 12 2 8
BITMAP
30
F0
F0
E0
E0
E0
E0
E0
60
60
60
60
ENDCHAR
STARTCHAR F130
ENCODING 61744
SWIDTH 148 0
DWIDTH 4 0
BBX 3 4 1 -4
BITMAP
E0
20
20
20
ENDCHAR
STARTCHAR F131
ENCODING 61745
SWIDTH 148 0
DWIDTH 4 0
BBX 4 4 0 -4
BITMAP
F0
80
80
80
ENDCHAR
STARTCHAR F195
ENCODING 61845
SWIDTH 222 0
DWIDTH 6 0
BBX 6 6 0 14
BITMAP
F0
F0
78
38
1C
0C
ENDCHAR
STARTCHAR F197
ENCODING 61847
SWIDTH 222 0
DWIDTH 6 0
BBX 6 6 0 14
BITMAP
1C
3C
78
70
E0
C0
ENDCHAR
STARTCHAR F1C8
ENCODING 61896
SWIDTH 333 0
DWIDTH 9 0
BBX 8 9 0 11
BITMAP
3E
67
C3
03
06
0C
18
18
18
ENDCHAR
STARTCHAR F1E9
ENCODING 61929
SWIDTH 222 0
DWIDTH 6 0
BBX 4 10 1 1
BITMAP
70
F0
F0
E0
00
00
70
F0
F0
E0
ENDCHAR
STARTCHAR F1EA
ENCODING 61930
SWIDTH 333 0
DWIDTH 9 0
BBX 8 4 1 4
BITMAP
FF
00
00
FF
ENDCHAR
STARTCHAR F20E
ENCODING 61966
SWIDTH 333 0
DWIDTH 9 0
BBX 7 20 1 0
BITMAP
18
F8
38
38
38
38
38
38
FE
38
38
FE
38
38
38
38
38
38
38
FE
ENDCHAR
STARTCHAR F20F
ENCODING 61967
SWIDTH 518 0
DWIDTH 14 0
BBX 13 17 1 0
BITMAP
FE00
7C00
3800
3800
3800
3800
3800
FF80
3800
3800
FF80
3800
3800
3808
3818
3818
FFF0
ENDCHAR
STARTCHAR F211
ENCODING 61969
SWIDTH 555 0
DWIDTH 15 0
BBX 18 18 1 -6
BITMAP
0F1000
30F000
607000
607000
E07000
E07000
E07000
F07000
F8F000
7FF000
3F7000
1E7000
007000
007000
0070C0
0071C0
003380
001F00
ENDCHAR
STARTCHAR F212
ENCODING 61970
SWIDTH 666 0
DWIDTH 18 0
BBX 20 23 1 -6
BITMAP
03C400
0C3C00
181C00
301C00
601C00
601C00
E01C00
E01C00
E01C00
E01C00
E01C00
F01C00
703C00
7C7C00
3FFC00
3FDC00
0F1C00
001C00
001C00
001C30
001C70
000C60
0007C0
ENDCHAR
STARTCHAR F218
ENCODING 61976
SWIDTH 666 0
DWIDTH 18 0
BBX 17 17 0 0
BITMAP
FE1F80
7C0F00
380600
380600
380600
380600
380600
380600
FFFF80
380600
380600
380600
380600
380400
1C0C00
0E1800
03E000
ENDCHAR
STARTCHAR F219
ENCODING 61977
SWIDTH 666 0
DWIDTH 18 0
BBX 18 17 0 0
BITMAP
00C000
01C000
01E000
03E000
03F000
037000
067000
067800
063800
0C3800
0C1C00
081C00
181E00
180E00
300E00
300F00
FC1FC0
ENDCHAR
STARTCHAR F21D
ENCODING 61981
SWIDTH 296 0
DWIDTH 8 0
BBX 4 12 2 8
BITMAP
30
F0
F0
E0
E0
E0
E0
E0
60
60
60
60
ENDCHAR
STARTCHAR F21E
ENCODING 61982
SWIDTH 444 0
DWIDTH 12 0
BBX 10 12 1 0
BITMAP
3F00
63C0
E1C0
E1C0
0380
0700
0E00
1C00
1C00
1C00
1C00
7F00
ENDCHAR
STARTCHAR F21F
ENCODING 61983
SWIDTH 518 0
DWIDTH 14 0
BBX 13 17 1 0
BITMAP
FE00
7C00
3800
3800
3800
3800
3800
3800
3800
FF80
3800
3800
3800
3808
3818
3818
FFF0
ENDCHAR
STARTCHAR F242
ENCODING 62018
SWIDTH 518 0
DWIDTH 14 0
BBX 15 17 -1 0
BITMAP
3F80
1E00
0E00
0E00
0E00
0E00
0E40
3E60
7F80
4E00
CE00
0E00
0E00
0E02
0E06
0E06
3FFC
ENDCHAR
STARTCHAR F26A
ENCODING 62058
SWIDTH 296 0
DWIDTH 8 0
BBX 4 12 2 9
BITMAP
70
F0
F0
E0
E0
E0
E0
E0
60
60
60
60
ENDCHAR
STARTCHAR FB01
ENCODING 64257
SWIDTH 629 0
DWIDTH 17 0
BBX 16 19 1 0
BITMAP
03E0
0CDC
183C
1838
3800
3800
3800
FFFC
391C
381C
381C
381C
381C
381C
381C
381C
381C
381C
FF7F
ENDCHAR
STARTCHAR FB02
ENCODING 64258
SWIDTH 629 0
DWIDTH 17 0
BBX 17 19 0 0
BITMAP
03E600
0CFE00
180E00
180E00
380E00
380E00
380E00
FF8E00
380E00
380E00
380E00
380E00
380E00
380E00
380E00
380E00
380E00
380E00
FF3F80
ENDCHAR
ENDFONT
